<?xml version="1.0" standalone="no"?>
 <!DOCTYPE svg PUBLIC "-//W3C//DTD SVG 1.1//EN" 
 "http://www.w3.org/Graphics/SVG/1.1/DTD/svg11.dtd"> 
<svg xmlns="http://www.w3.org/2000/svg" version="1.1" 
    width="11.5748cm" height="11.3487cm" viewBox="0 0 45570 44680 ">
<title>SVG Picture created as MegaMan_SAO-B_Cu.svg date 2019/06/13 22:21:14 </title>
  <desc>Picture generated by PCBNEW </desc>
<g style="fill:#000000; fill-opacity:1;stroke:#000000; stroke-opacity:1;
stroke-linecap:round; stroke-linejoin:round; "
 transform="translate(0 0) scale(1 1)">
</g>
<g style="fill:#000000; fill-opacity:0.0; 
stroke:#000000; stroke-width:-0.000393701; stroke-opacity:1; 
stroke-linecap:round; stroke-linejoin:round;">
</g>
<g style="fill:#008400; fill-opacity:0.0; 
stroke:#008400; stroke-width:-0.000393701; stroke-opacity:1; 
stroke-linecap:round; stroke-linejoin:round;">
</g>
<g style="fill:#008400; fill-opacity:1.0; 
stroke:#008400; stroke-width:3.93701; stroke-opacity:1; 
stroke-linecap:round; stroke-linejoin:round;">
<path style="fill:#008400; fill-opacity:1.0; 
stroke:#008400; stroke-width:3.93701; stroke-opacity:1; 
stroke-linecap:round; stroke-linejoin:round;fill-rule:evenodd;"
d="M 42627,41664
42589,41673
42555,41690
42525,41713
42501,41743
42484,41778
42473,41816
42471,41854
42477,41891
42490,41926
42510,41957
42536,41984
42567,42005
42603,42020
42623,42025
42640,42028
42654,42029
42667,42028
42683,42026
42696,42023
42733,42010
42765,41990
42794,41963
42817,41929
42822,41919
42829,41904
42833,41892
42835,41880
42836,41863
42836,41845
42834,41812
42829,41785
42819,41761
42804,41738
42789,41720
42760,41695
42731,41677
42698,41666
42668,41662
42627,41664
Z" /> 
<path style="fill:#008400; fill-opacity:1.0; 
stroke:#008400; stroke-width:3.93701; stroke-opacity:1; 
stroke-linecap:round; stroke-linejoin:round;fill-rule:evenodd;"
d="M 39296,42626
39296,42719
39296,42802
39296,42878
39296,42947
39296,43008
39296,43062
39296,43110
39295,43152
39295,43189
39294,43221
39293,43248
39292,43271
39291,43291
39290,43307
39289,43320
39287,43331
39285,43340
39283,43348
39281,43354
39278,43360
39275,43365
39272,43371
39270,43375
39256,43399
39594,43399
39594,43361
39594,43344
39595,43331
39596,43324
39597,43323
39601,43326
39610,43333
39619,43340
39641,43356
39668,43373
39698,43387
39729,43399
39741,43403
39768,43409
39800,43413
39836,43415
39870,43415
39901,43412
39916,43410
39971,43395
40021,43372
40066,43342
40107,43305
40143,43260
40169,43216
40191,43170
40207,43123
40219,43074
40227,43020
40230,42960
40230,42930
40229,42907
39903,42907
39903,42944
39902,42979
39900,43009
39896,43033
39895,43038
39883,43080
39866,43114
39846,43141
39821,43159
39792,43170
39759,43173
39721,43169
39696,43163
39677,43156
39656,43145
39640,43136
39612,43118
39612,42665
39638,42648
39669,42632
39702,42621
39736,42617
39768,42618
39797,42625
39809,42631
39832,42648
39851,42671
39867,42699
39881,42735
39892,42779
39893,42781
39897,42805
39900,42836
39902,42871
39903,42907
40229,42907
40227,42846
40218,42769
40204,42698
40185,42635
40159,42578
40129,42528
40093,42485
40051,42449
40033,42437
39994,42415
39953,42400
39910,42390
39862,42386
39826,42387
39775,42391
39730,42400
39691,42413
39657,42431
39637,42445
39626,42453
39617,42459
39614,42461
39613,42457
39613,42444
39612,42426
39612,42401
39612,42372
39612,42340
39612,42305
39612,42269
39612,42232
39613,42197
39613,42163
39614,42133
39614,42106
39615,42085
39616,42070
39616,42067
39619,42040
39623,42018
39630,41999
39641,41981
39643,41977
39653,41963
39296,41963
39296,42626
Z" /> 
<path style="fill:#008400; fill-opacity:1.0; 
stroke:#008400; stroke-width:3.93701; stroke-opacity:1; 
stroke-linecap:round; stroke-linejoin:round;fill-rule:evenodd;"
d="M 40679,42388
40619,42396
40566,42409
40519,42428
40478,42452
40447,42477
40420,42506
40399,42538
40382,42574
40376,42591
40371,42606
40367,42620
40363,42634
40360,42648
40357,42664
40355,42681
40353,42700
40351,42723
40350,42749
40349,42781
40348,42817
40347,42860
40347,42910
40346,42967
40346,43023
40345,43085
40345,43138
40344,43183
40344,43222
40343,43255
40342,43281
40341,43303
40340,43321
40338,43335
40337,43346
40334,43354
40332,43361
40328,43367
40325,43372
40320,43377
40319,43379
40312,43388
40310,43395
40310,43395
40314,43396
40326,43396
40345,43397
40370,43398
40400,43398
40435,43398
40472,43399
40476,43399
40643,43399
40644,43361
40645,43323
40670,43343
40708,43370
40751,43391
40785,43403
40812,43409
40845,43413
40881,43415
40915,43415
40946,43412
40961,43410
41016,43395
41066,43373
41110,43346
41148,43312
41179,43272
41204,43227
41221,43177
41226,43155
41229,43130
41231,43101
41231,43087
41231,43086
40932,43086
40928,43116
40917,43141
40898,43163
40896,43165
40877,43178
40856,43187
40833,43192
40803,43193
40796,43193
40775,43192
40759,43190
40745,43186
40730,43179
40726,43177
40702,43163
40683,43146
40678,43140
40661,43118
40661,43041
40661,43010
40662,42987
40663,42971
40664,42963
40666,42960
40672,42959
40686,42958
40704,42957
40726,42957
40729,42957
40777,42959
40817,42965
40851,42976
40880,42992
40902,43010
40919,43033
40929,43058
40932,43086
41231,43086
41230,43051
41227,43020
41220,42991
41210,42964
41201,42943
41178,42905
41147,42871
41110,42840
41066,42813
41018,42790
40966,42773
40941,42768
40887,42759
40829,42753
40769,42751
40719,42751
40655,42754
40658,42731
40666,42692
40678,42660
40695,42635
40718,42617
40746,42606
40781,42600
40821,42601
40836,42603
40892,42613
40946,42629
40983,42644
41001,42652
41016,42658
41026,42661
41029,42662
41033,42659
41040,42647
41049,42628
41061,42600
41076,42565
41079,42559
41091,42530
41102,42504
41110,42483
41117,42466
41122,42455
41123,42451
41119,42450
41108,42447
41097,42446
41085,42444
41067,42440
41043,42435
41015,42429
40985,42422
40974,42419
40933,42409
40898,42401
40869,42395
40843,42391
40819,42388
40795,42386
40769,42385
40746,42385
40679,42388
Z" /> 
<path style="fill:#008400; fill-opacity:1.0; 
stroke:#008400; stroke-width:3.93701; stroke-opacity:1; 
stroke-linecap:round; stroke-linejoin:round;fill-rule:evenodd;"
d="M 41602,42027
41539,42035
41475,42051
41408,42074
41338,42105
41334,42108
41311,42119
41291,42128
41274,42135
41263,42140
41259,42141
41252,42143
41250,42144
41252,42149
41258,42159
41268,42174
41281,42194
41296,42217
41312,42241
41329,42266
41346,42291
41362,42315
41377,42336
41389,42354
41398,42367
41404,42375
41405,42375
41409,42374
41418,42367
41430,42356
41436,42351
41474,42321
41516,42299
41561,42285
41610,42280
41637,42280
41685,42287
41728,42301
41766,42323
41800,42352
41830,42389
41855,42433
41870,42467
41887,42521
41900,42579
41908,42640
41912,42703
41911,42766
41906,42828
41897,42886
41883,42941
41865,42990
41858,43003
41832,43048
41800,43086
41764,43117
41724,43140
41681,43155
41634,43162
41618,43163
41570,43159
41523,43146
41476,43124
41432,43095
41396,43064
41377,43047
41306,43164
41288,43193
41272,43220
41258,43243
41246,43263
41238,43277
41234,43285
41233,43286
41236,43290
41247,43296
41262,43306
41282,43316
41305,43328
41330,43341
41355,43353
41379,43364
41401,43374
41420,43382
41429,43385
41482,43400
41536,43410
41595,43415
41644,43416
41671,43415
41697,43415
41720,43413
41737,43412
41742,43411
41797,43400
41853,43382
41907,43359
41957,43332
41987,43311
42037,43268
42084,43219
42126,43163
42163,43102
42194,43038
42211,42992
42231,42920
42244,42843
42251,42764
42251,42684
42244,42604
42231,42527
42211,42454
42210,42449
42185,42385
42155,42327
42118,42273
42074,42221
42056,42203
42003,42154
41948,42114
41890,42081
41830,42056
41765,42039
41727,42032
41665,42026
41602,42027
Z" /> 
<path style="fill:#008400; fill-opacity:1.0; 
stroke:#008400; stroke-width:3.93701; stroke-opacity:1; 
stroke-linecap:round; stroke-linejoin:round;fill-rule:evenodd;"
d="M 42892,41846
42888,41890
42875,41933
42855,41972
42828,42006
42794,42036
42756,42059
42714,42074
42672,42082
42631,42081
42590,42073
42552,42059
42517,42039
42486,42012
42460,41981
42439,41945
42424,41905
42417,41862
42416,41842
42416,41807
42396,41807
42381,41809
42371,41813
42360,41823
42345,41838
42345,42701
42345,42804
42345,42898
42345,42985
42345,43064
42345,43135
42345,43199
42345,43257
42346,43308
42346,43354
42346,43394
42346,43428
42346,43458
42347,43484
42347,43505
42348,43523
42348,43537
42349,43549
42349,43557
42350,43564
42351,43569
42351,43572
42352,43574
42353,43575
42354,43578
42356,43580
42357,43583
42359,43585
42362,43587
42366,43588
42372,43590
42379,43591
42389,43593
42402,43594
42417,43595
42436,43595
42459,43596
42485,43597
42517,43597
42553,43598
42594,43598
42641,43598
42694,43598
42753,43598
42819,43598
42891,43599
42971,43599
43059,43599
43155,43599
43260,43598
43275,43598
43380,43598
43477,43598
43565,43598
43646,43598
43719,43598
43785,43598
43844,43598
43897,43598
43944,43598
43986,43597
44022,43597
44053,43597
44080,43597
44102,43596
44121,43596
44136,43595
44148,43595
44158,43594
44165,43594
44170,43593
44173,43592
44175,43591
44178,43590
44181,43589
44184,43588
44187,43587
44189,43584
44191,43581
44193,43576
44194,43570
44196,43561
44197,43550
44198,43535
44199,43518
44200,43497
44201,43471
44201,43442
44202,43407
44202,43367
44202,43322
44203,43271
44203,43214
44203,43150
44203,43079
44203,43000
44203,42914
44203,42820
44203,42718
44203,42701
44203,42598
44203,42503
44203,42416
44203,42337
44203,42265
44203,42200
44203,42142
44202,42091
44202,42047
44083,42047
44067,42070
44063,42076
44059,42082
44055,42087
44052,42093
44049,42099
44047,42106
44045,42115
44043,42126
44042,42140
44040,42156
44039,42177
44038,42201
44038,42229
44037,42262
44037,42301
44036,42346
44036,42397
44036,42454
44036,42519
44036,42592
44036,42673
44036,42721
44036,42806
44036,42883
44036,42952
44036,43014
44036,43068
44037,43116
44037,43158
44037,43195
44038,43226
44039,43252
44040,43274
44041,43293
44042,43308
44044,43320
44046,43331
44048,43339
44051,43346
44054,43351
44057,43357
44061,43362
44065,43368
44067,43371
44082,43394
43873,43394
43824,43394
43784,43394
43751,43394
43725,43394
43705,43393
43690,43393
43680,43392
43673,43391
43670,43390
43669,43389
43670,43387
43671,43386
43680,43372
43691,43351
43700,43327
43703,43316
43705,43309
43707,43301
43708,43290
43709,43277
43710,43260
43711,43239
43711,43212
43712,43179
43712,43139
43713,43092
43713,43074
43713,43025
43713,42984
43714,42950
43714,42923
43714,42903
43713,42887
43713,42876
43712,42870
43711,42866
43709,42865
43708,42866
43706,42867
43702,42873
43693,42884
43681,42901
43665,42923
43646,42948
43625,42977
43602,43007
43579,43039
43555,43072
43532,43104
43509,43135
43488,43163
43469,43189
43453,43212
43441,43229
43432,43242
43430,43244
43421,43259
43411,43278
43401,43297
43399,43300
43391,43319
43386,43333
43384,43348
43383,43364
43383,43394
42929,43394
42965,43357
42983,43338
43003,43315
43021,43294
43029,43284
43041,43268
43057,43247
43076,43222
43098,43192
43122,43159
43149,43123
43176,43084
43205,43045
43235,43004
43264,42963
43293,42923
43321,42883
43348,42845
43374,42810
43397,42777
43417,42749
43434,42724
43448,42704
43457,42690
43463,42682
43463,42680
43460,42676
43452,42665
43439,42649
43423,42627
43402,42602
43379,42573
43354,42541
43327,42507
43298,42471
43269,42435
43245,42406
42847,42406
42845,42411
42839,42420
42839,42420
42832,42432
42824,42446
42822,42450
42821,42453
42820,42457
42819,42462
42818,42469
42817,42478
42816,42491
42816,42506
42815,42526
42815,42550
42814,42579
42814,42613
42814,42654
42813,42702
42813,42756
42813,42819
42813,42889
42813,42962
42812,43027
42812,43083
42812,43133
42812,43176
42813,43213
42813,43244
42814,43270
42815,43291
42816,43309
42817,43323
42819,43335
42821,43344
42823,43351
42826,43358
42829,43363
42833,43369
42836,43374
42843,43384
42847,43391
42847,43392
42843,43393
42831,43393
42811,43393
42786,43394
42755,43394
42720,43394
42681,43394
42654,43394
42613,43394
42575,43394
42540,43393
42511,43393
42488,43392
42471,43392
42462,43391
42461,43390
42464,43384
42467,43381
42472,43374
42479,43363
42484,43353
42494,43330
42495,42866
42496,42403
42672,42403
42710,42403
42746,42403
42778,42404
42805,42404
42826,42404
42840,42405
42847,42406
42847,42406
43245,42406
43239,42398
43210,42362
43182,42327
43155,42293
43130,42262
43107,42235
43088,42211
43072,42191
43065,42183
43031,42143
43001,42111
42974,42084
42949,42063
42945,42060
42930,42048
43375,42047
43373,42066
43374,42089
43383,42116
43399,42147
43416,42176
43423,42185
43434,42199
43449,42219
43467,42243
43488,42271
43511,42300
43536,42332
43561,42364
43586,42396
43611,42428
43634,42458
43656,42485
43675,42508
43690,42528
43702,42542
43709,42551
43710,42552
43711,42549
43712,42537
43713,42516
43713,42487
43713,42450
43713,42404
43713,42356
43712,42304
43712,42260
43711,42224
43710,42193
43708,42168
43706,42147
43704,42130
43701,42116
43697,42104
43692,42093
43687,42082
43681,42072
43666,42047
44083,42047
44202,42047
44202,42045
44202,42005
44202,41970
44201,41940
44200,41914
44200,41892
44199,41874
44198,41860
44197,41848
44195,41839
44194,41832
44192,41827
44191,41823
44189,41821
44186,41819
44184,41818
44181,41816
44179,41815
44177,41814
44174,41813
44169,41812
44162,41811
44153,41811
44140,41810
44125,41810
44106,41809
44082,41809
44054,41808
44021,41808
43983,41808
43938,41808
43888,41808
43830,41808
43766,41808
43693,41808
43613,41807
43530,41807
42892,41807
42892,41846
Z" /> 
<path style="fill:#008400; fill-opacity:1.0; 
stroke:#008400; stroke-width:3.93701; stroke-opacity:1; 
stroke-linecap:round; stroke-linejoin:round;fill-rule:evenodd;"
d="M 22842,23060
22830,23069
22819,23080
22819,23202
22819,23238
22819,23266
22820,23288
22820,23304
22821,23315
22822,23323
22824,23329
22827,23333
22828,23335
22841,23345
22854,23346
22867,23340
22871,23337
22874,23332
22876,23325
22877,23312
22877,23294
22877,23280
22877,23227
23073,23227
23073,23275
23073,23297
23074,23313
23075,23323
23078,23330
23082,23335
23094,23345
23108,23346
23121,23339
23124,23336
23127,23331
23129,23324
23130,23312
23130,23295
23130,23270
23130,23265
23131,23219
23131,23181
23131,23151
23131,23127
23130,23108
23129,23094
23129,23084
23127,23077
23126,23073
23124,23070
23121,23067
23109,23059
23096,23060
23083,23069
23078,23075
23075,23081
23073,23090
23073,23103
23073,23124
23073,23169
22877,23169
22877,23123
22877,23101
22876,23087
22874,23077
22871,23071
22868,23067
22856,23059
22842,23060
Z" /> 
<path style="fill:#008400; fill-opacity:1.0; 
stroke:#008400; stroke-width:3.93701; stroke-opacity:1; 
stroke-linecap:round; stroke-linejoin:round;fill-rule:evenodd;"
d="M 23341,23058
23310,23058
23286,23059
23268,23059
23255,23060
23245,23061
23239,23063
23235,23065
23233,23066
23223,23079
23222,23092
23228,23104
23232,23109
23237,23112
23243,23114
23253,23115
23268,23116
23291,23116
23295,23116
23353,23116
23353,23223
23353,23256
23353,23282
23353,23301
23354,23315
23355,23325
23357,23331
23359,23335
23361,23338
23374,23346
23388,23345
23400,23336
23401,23335
23404,23331
23406,23326
23408,23320
23409,23310
23410,23296
23410,23276
23410,23250
23410,23220
23410,23116
23465,23116
23489,23116
23505,23115
23516,23114
23522,23112
23527,23108
23527,23108
23534,23095
23533,23080
23526,23067
23523,23065
23519,23063
23514,23061
23506,23060
23493,23059
23477,23059
23454,23058
23425,23058
23388,23058
23380,23058
23341,23058
Z" /> 
<path style="fill:#008400; fill-opacity:1.0; 
stroke:#008400; stroke-width:3.93701; stroke-opacity:1; 
stroke-linecap:round; stroke-linejoin:round;fill-rule:evenodd;"
d="M 23646,23061
23636,23067
23626,23075
23626,23202
23626,23239
23626,23268
23626,23290
23627,23307
23628,23319
23629,23327
23631,23332
23633,23336
23634,23338
23647,23346
23661,23345
23673,23339
23684,23330
23684,23075
23673,23067
23663,23061
23655,23058
23646,23061
Z" /> 
<path style="fill:#008400; fill-opacity:1.0; 
stroke:#008400; stroke-width:3.93701; stroke-opacity:1; 
stroke-linecap:round; stroke-linejoin:round;fill-rule:evenodd;"
d="M 23820,23059
23813,23062
23812,23062
23802,23070
23796,23078
23795,23082
23795,23087
23797,23094
23800,23105
23806,23119
23814,23138
23825,23163
23840,23195
23848,23213
23862,23244
23876,23272
23888,23297
23898,23317
23906,23332
23911,23340
23912,23342
23924,23346
23938,23346
23949,23340
23949,23339
23954,23333
23961,23320
23970,23302
23981,23281
23985,23274
24014,23216
24045,23279
24056,23300
24067,23319
24075,23334
24082,23342
24084,23344
24100,23347
24114,23342
24118,23336
24125,23323
24134,23305
24145,23283
24157,23257
24170,23229
24183,23201
24196,23173
24207,23147
24217,23123
24225,23104
24230,23091
24232,23084
24232,23084
24227,23075
24219,23066
24218,23066
24207,23060
24198,23060
24194,23061
24189,23063
24185,23068
24179,23076
24172,23089
24163,23107
24151,23131
24141,23154
24128,23180
24118,23203
24109,23223
24102,23238
24098,23246
24098,23247
24095,23245
24090,23236
24082,23222
24072,23204
24068,23196
24055,23170
24045,23152
24037,23139
24031,23131
24025,23127
24019,23125
24014,23125
24007,23126
24001,23128
23994,23134
23987,23144
23978,23159
23967,23181
23961,23194
23950,23213
23942,23230
23935,23241
23931,23247
23930,23247
23928,23243
23922,23232
23914,23215
23904,23193
23892,23168
23886,23156
23871,23124
23859,23099
23849,23081
23841,23069
23834,23062
23827,23059
23820,23059
Z" /> 
<path style="fill:#008400; fill-opacity:1.0; 
stroke:#008400; stroke-width:3.93701; stroke-opacity:1; 
stroke-linecap:round; stroke-linejoin:round;fill-rule:evenodd;"
d="M 24894,23058
24843,23060
24800,23065
24764,23074
24733,23087
24709,23105
24689,23127
24673,23154
24673,23155
24663,23180
24660,23201
24662,23223
24671,23248
24673,23252
24684,23274
24697,23291
24714,23306
24737,23320
24738,23321
24758,23330
24780,23337
24807,23342
24839,23345
24877,23347
24891,23347
24956,23347
24966,23335
24968,23332
24970,23327
24972,23321
24973,23312
24974,23299
24974,23289
24913,23289
24876,23289
24854,23289
24832,23287
24814,23285
24812,23284
24780,23276
24755,23263
24736,23245
24723,23221
24721,23215
24719,23205
24720,23196
24725,23183
24727,23176
24737,23160
24748,23148
24760,23140
24784,23129
24815,23122
24852,23117
24878,23116
24913,23116
24913,23289
24974,23289
24974,23281
24975,23257
24975,23226
24975,23202
24975,23080
24964,23069
24959,23065
24954,23062
24946,23060
24935,23059
24919,23058
24895,23058
24894,23058
Z" /> 
<path style="fill:#008400; fill-opacity:1.0; 
stroke:#008400; stroke-width:3.93701; stroke-opacity:1; 
stroke-linecap:round; stroke-linejoin:round;fill-rule:evenodd;"
d="M 25204,23058
25174,23059
25151,23059
25134,23061
25122,23063
25115,23067
25110,23072
25109,23078
25108,23086
25108,23087
25109,23096
25110,23102
25115,23108
25123,23111
25135,23114
25153,23115
25177,23116
25210,23117
25219,23117
25315,23118
25316,23144
25317,23169
25251,23169
25225,23169
25207,23170
25194,23171
25186,23172
25181,23175
25177,23178
25177,23178
25170,23191
25170,23206
25178,23218
25179,23219
25184,23222
25191,23225
25202,23226
25217,23227
25239,23227
25253,23227
25317,23227
25317,23289
25220,23289
25188,23289
25164,23290
25146,23290
25133,23291
25125,23292
25120,23294
25116,23297
25115,23297
25109,23310
25109,23324
25114,23336
25118,23340
25122,23342
25129,23344
25139,23345
25154,23346
25174,23347
25200,23347
25235,23347
25242,23347
25277,23347
25304,23347
25324,23347
25339,23346
25349,23345
25356,23344
25361,23342
25364,23339
25366,23337
25368,23334
25370,23330
25372,23324
25373,23315
25374,23303
25374,23285
25375,23261
25375,23231
25375,23205
25375,23168
25375,23140
25374,23118
25374,23102
25373,23090
25372,23082
25370,23077
25368,23073
25366,23070
25356,23058
25242,23058
25204,23058
Z" /> 
<path style="fill:#008400; fill-opacity:1.0; 
stroke:#008400; stroke-width:3.93701; stroke-opacity:1; 
stroke-linecap:round; stroke-linejoin:round;fill-rule:evenodd;"
d="M 25807,23060
25797,23065
25785,23074
25770,23087
25750,23104
25725,23126
25696,23153
25661,23184
25590,23248
25588,23162
25587,23132
25587,23110
25586,23094
25584,23083
25583,23076
25580,23071
25577,23068
25575,23067
25562,23059
25549,23060
25539,23067
25528,23075
25527,23199
25526,23236
25526,23264
25526,23286
25527,23302
25527,23314
25529,23322
25530,23328
25532,23332
25535,23335
25540,23341
25546,23345
25552,23347
25559,23346
25569,23341
25581,23332
25597,23319
25618,23301
25643,23279
25673,23252
25777,23158
25779,23244
25780,23274
25781,23296
25782,23312
25783,23322
25785,23329
25787,23334
25790,23337
25792,23339
25806,23346
25820,23345
25832,23335
25835,23332
25837,23327
25839,23321
25840,23312
25841,23299
25841,23281
25841,23257
25841,23226
25841,23203
25841,23167
25841,23138
25841,23117
25840,23101
25839,23090
25838,23082
25836,23076
25834,23072
25832,23070
25828,23064
25824,23060
25819,23058
25814,23058
25807,23060
Z" /> 
<path style="fill:#008400; fill-opacity:1.0; 
stroke:#008400; stroke-width:3.93701; stroke-opacity:1; 
stroke-linecap:round; stroke-linejoin:round;fill-rule:evenodd;"
d="M 26063,23060
26036,23065
26015,23072
26001,23081
25998,23086
25994,23099
25996,23110
26004,23120
26017,23125
26035,23125
26048,23122
26079,23117
26111,23117
26146,23121
26155,23123
26188,23132
26214,23146
26232,23164
26242,23186
26245,23197
26243,23220
26234,23240
26218,23258
26196,23272
26168,23282
26136,23288
26101,23289
26063,23285
26061,23284
26046,23282
26037,23279
26033,23275
26033,23268
26033,23264
26033,23249
26060,23249
26083,23248
26100,23242
26109,23233
26112,23220
26112,23218
26110,23206
26104,23198
26091,23192
26071,23189
26052,23188
26024,23187
26004,23188
25990,23192
25982,23200
25977,23212
25975,23231
25975,23255
25975,23283
25977,23301
25980,23311
25980,23312
25996,23325
26018,23334
26046,23341
26079,23345
26114,23346
26151,23344
26173,23340
26206,23331
26238,23315
26264,23295
26268,23291
26282,23274
26293,23252
26302,23230
26307,23210
26308,23202
26305,23186
26299,23166
26289,23145
26277,23125
26267,23112
26243,23093
26212,23078
26175,23067
26133,23060
26095,23059
26063,23060
Z" /> 
<path style="fill:#008400; fill-opacity:1.0; 
stroke:#008400; stroke-width:3.93701; stroke-opacity:1; 
stroke-linecap:round; stroke-linejoin:round;fill-rule:evenodd;"
d="M 26446,23067
26443,23070
26441,23074
26440,23080
26439,23088
26438,23101
26437,23119
26437,23142
26437,23173
26437,23203
26437,23240
26437,23269
26437,23291
26438,23307
26439,23319
26440,23327
26442,23332
26444,23336
26446,23338
26459,23346
26473,23345
26485,23337
26488,23333
26490,23330
26492,23324
26493,23316
26494,23304
26494,23288
26495,23266
26495,23236
26495,23203
26495,23080
26484,23069
26470,23060
26457,23060
26446,23067
Z" /> 
<path style="fill:#008400; fill-opacity:1.0; 
stroke:#008400; stroke-width:3.93701; stroke-opacity:1; 
stroke-linecap:round; stroke-linejoin:round;fill-rule:evenodd;"
d="M 26748,23059
26719,23061
26691,23064
26668,23068
26649,23073
26637,23079
26636,23081
26629,23095
26631,23109
26641,23121
26641,23121
26647,23125
26653,23127
26661,23127
26674,23125
26693,23122
26695,23122
26723,23119
26754,23117
26785,23117
26814,23119
26839,23122
26857,23126
26858,23127
26872,23134
26876,23142
26873,23149
26861,23156
26842,23163
26815,23169
26797,23171
26760,23177
26730,23181
26707,23186
26689,23191
26675,23197
26663,23205
26653,23214
26644,23222
26635,23234
26630,23245
26628,23258
26628,23262
26629,23278
26634,23290
26642,23300
26658,23316
26676,23328
26697,23337
26723,23342
26754,23345
26793,23346
26799,23346
26825,23346
26851,23345
26873,23343
26890,23341
26891,23341
26908,23337
26922,23332
26930,23327
26938,23315
26938,23301
26932,23289
26930,23287
26924,23283
26917,23281
26905,23281
26891,23283
26876,23284
26854,23286
26828,23287
26802,23287
26795,23287
26768,23287
26748,23286
26734,23285
26724,23283
26716,23281
26711,23278
26700,23272
26692,23266
26691,23264
26694,23257
26704,23250
26722,23244
26746,23239
26754,23238
26791,23232
26821,23227
26845,23222
26863,23218
26878,23214
26889,23209
26898,23204
26907,23197
26917,23189
26920,23186
26931,23175
26937,23167
26939,23157
26939,23145
26935,23121
26923,23100
26903,23083
26875,23070
26855,23064
26833,23061
26807,23059
26778,23058
26748,23059
Z" /> 
<path style="fill:#008400; fill-opacity:1.0; 
stroke:#008400; stroke-width:3.93701; stroke-opacity:1; 
stroke-linecap:round; stroke-linejoin:round;fill-rule:evenodd;"
d="M 27150,23058
27123,23058
27102,23059
27087,23059
27077,23060
27070,23062
27065,23064
27061,23066
27060,23067
27052,23079
27051,23094
27056,23106
27058,23109
27062,23111
27068,23113
27078,23114
27092,23115
27112,23116
27139,23117
27164,23117
27261,23118
27263,23144
27264,23169
27198,23169
27169,23170
27148,23171
27134,23173
27124,23177
27119,23183
27117,23191
27117,23199
27118,23209
27122,23216
27129,23221
27142,23225
27160,23226
27186,23227
27200,23227
27264,23227
27264,23289
27166,23289
27134,23289
27109,23290
27092,23290
27079,23291
27071,23292
27065,23294
27061,23296
27059,23298
27052,23309
27050,23318
27053,23330
27059,23338
27062,23341
27066,23343
27072,23344
27081,23346
27094,23346
27113,23347
27137,23347
27169,23347
27186,23347
27221,23347
27249,23347
27270,23347
27285,23346
27296,23345
27303,23344
27308,23342
27311,23339
27313,23338
27315,23335
27317,23331
27319,23326
27320,23317
27321,23304
27321,23287
27321,23263
27321,23232
27321,23203
27321,23167
27321,23138
27321,23116
27321,23100
27320,23088
27319,23080
27317,23075
27315,23071
27312,23069
27311,23068
27308,23065
27304,23063
27298,23061
27290,23060
27278,23059
27260,23059
27237,23058
27207,23058
27185,23058
27150,23058
Z" /> 
<path style="fill:#008400; fill-opacity:1.0; 
stroke:#008400; stroke-width:3.93701; stroke-opacity:1; 
stroke-linecap:round; stroke-linejoin:round;fill-rule:evenodd;"
d="M 27705,23058
27689,23058
27644,23059
27606,23063
27573,23068
27546,23077
27523,23089
27501,23104
27493,23111
27481,23127
27469,23148
27460,23172
27455,23194
27455,23203
27458,23226
27466,23251
27479,23275
27493,23294
27496,23296
27515,23313
27537,23325
27562,23335
27592,23341
27627,23345
27669,23347
27688,23347
27713,23347
27730,23346
27742,23345
27749,23344
27754,23341
27757,23338
27760,23335
27762,23331
27763,23326
27764,23317
27765,23304
27766,23287
27766,23263
27766,23232
27766,23203
27766,23163
27766,23131
27766,23116
27708,23116
27708,23289
27671,23289
27649,23289
27626,23287
27607,23285
27606,23285
27575,23277
27551,23265
27533,23249
27521,23231
27514,23211
27514,23192
27523,23172
27539,23151
27562,23135
27591,23125
27611,23121
27633,23119
27657,23117
27677,23116
27678,23116
27708,23116
27766,23116
27765,23107
27764,23088
27760,23075
27755,23066
27748,23061
27737,23059
27723,23058
27705,23058
Z" /> 
<path style="fill:#008400; fill-opacity:1.0; 
stroke:#008400; stroke-width:3.93701; stroke-opacity:1; 
stroke-linecap:round; stroke-linejoin:round;fill-rule:evenodd;"
d="M 26190,20994
26152,21004
26118,21021
26088,21044
26064,21074
26047,21109
26036,21147
26034,21185
26040,21222
26053,21256
26073,21288
26099,21314
26130,21336
26166,21351
26186,21356
26203,21359
26217,21360
26230,21359
26246,21356
26259,21354
26296,21341
26328,21321
26357,21294
26380,21260
26385,21249
26392,21235
26396,21223
26398,21210
26399,21194
26399,21176
26397,21143
26392,21115
26382,21092
26367,21069
26352,21051
26323,21025
26294,21007
26261,20997
26231,20993
26190,20994
Z" /> 
<path style="fill:#008400; fill-opacity:1.0; 
stroke:#008400; stroke-width:3.93701; stroke-opacity:1; 
stroke-linecap:round; stroke-linejoin:round;fill-rule:evenodd;"
d="M 22859,21957
22859,22049
22859,22133
22859,22209
22859,22277
22859,22338
22859,22393
22858,22441
22858,22483
22858,22520
22857,22552
22856,22579
22855,22602
22854,22621
22853,22637
22852,22651
22850,22662
22848,22671
22846,22678
22844,22685
22841,22691
22838,22696
22835,22702
22833,22705
22819,22729
23157,22729
23157,22692
23157,22674
23158,22661
23159,22654
23160,22654
23164,22656
23173,22663
23182,22671
23204,22687
23231,22703
23261,22718
23292,22730
23304,22734
23331,22739
23363,22743
23399,22745
23433,22745
23464,22743
23479,22741
23534,22726
23584,22703
23629,22673
23670,22635
23706,22591
23732,22547
23754,22501
23770,22454
23782,22404
23790,22351
23793,22291
23793,22260
23792,22238
23466,22238
23466,22275
23465,22309
23462,22340
23459,22364
23458,22369
23446,22411
23429,22445
23409,22471
23384,22490
23355,22501
23322,22504
23284,22500
23259,22494
23240,22486
23219,22476
23203,22467
23175,22449
23175,21996
23201,21979
23232,21963
23265,21952
23299,21947
23331,21949
23360,21956
23372,21962
23395,21979
23414,22001
23430,22030
23444,22066
23455,22109
23456,22112
23460,22136
23463,22167
23465,22201
23466,22238
23792,22238
23790,22177
23781,22100
23767,22029
23748,21966
23722,21909
23692,21859
23656,21816
23614,21780
23596,21768
23557,21746
23516,21730
23473,21721
23425,21717
23389,21717
23337,21722
23293,21730
23254,21743
23220,21762
23200,21775
23189,21784
23180,21790
23177,21792
23176,21787
23176,21775
23175,21756
23175,21732
23175,21703
23175,21671
23175,21636
23175,21600
23175,21563
23176,21528
23176,21494
23177,21464
23177,21437
23178,21416
23179,21401
23179,21398
23182,21370
23186,21349
23193,21330
23204,21312
23206,21308
23216,21294
22859,21294
22859,21957
Z" /> 
<path style="fill:#008400; fill-opacity:1.0; 
stroke:#008400; stroke-width:3.93701; stroke-opacity:1; 
stroke-linecap:round; stroke-linejoin:round;fill-rule:evenodd;"
d="M 24242,21719
24182,21726
24129,21740
24082,21758
24041,21783
24010,21808
23983,21837
23962,21868
23945,21905
23939,21922
23934,21937
23930,21951
23926,21965
23923,21979
23920,21994
23918,22011
23916,22031
23914,22054
23913,22080
23912,22111
23911,22148
23910,22191
23910,22240
23909,22298
23909,22354
23908,22415
23908,22468
23907,22514
23907,22553
23906,22585
23905,22612
23904,22634
23903,22652
23901,22665
23900,22676
23897,22685
23895,22692
23891,22697
23888,22702
23883,22708
23882,22710
23875,22719
23873,22725
23873,22725
23877,22726
23889,22727
23908,22728
23933,22728
23963,22729
23998,22729
24035,22729
24039,22729
24206,22729
24207,22691
24208,22654
24233,22674
24271,22700
24314,22722
24348,22734
24375,22740
24408,22743
24444,22745
24478,22745
24509,22743
24524,22741
24579,22726
24629,22704
24673,22676
24711,22642
24742,22603
24767,22557
24784,22508
24789,22485
24792,22461
24794,22432
24794,22418
24794,22417
24495,22417
24491,22446
24480,22472
24461,22494
24459,22495
24440,22509
24419,22518
24396,22523
24366,22524
24359,22524
24338,22522
24322,22520
24308,22516
24293,22510
24289,22508
24265,22494
24246,22477
24241,22471
24224,22449
24224,22371
24224,22340
24225,22318
24226,22302
24227,22293
24229,22291
24235,22290
24249,22289
24267,22288
24289,22288
24292,22288
24340,22290
24380,22296
24414,22307
24443,22323
24465,22341
24482,22364
24492,22389
24495,22417
24794,22417
24793,22381
24790,22350
24783,22322
24773,22294
24764,22274
24741,22236
24710,22202
24673,22170
24629,22143
24581,22121
24529,22104
24504,22098
24450,22090
24392,22084
24332,22081
24282,22082
24218,22085
24221,22061
24229,22022
24241,21991
24258,21966
24281,21948
24309,21936
24344,21931
24384,21932
24399,21934
24455,21944
24509,21960
24546,21975
24564,21982
24579,21988
24589,21992
24592,21993
24596,21989
24603,21978
24612,21959
24624,21931
24639,21896
24642,21889
24654,21861
24665,21835
24673,21813
24680,21796
24685,21786
24686,21782
24682,21780
24671,21778
24660,21777
24648,21775
24630,21771
24606,21766
24578,21760
24548,21753
24537,21750
24496,21740
24461,21732
24432,21726
24406,21722
24382,21719
24358,21717
24332,21716
24309,21716
24242,21719
Z" /> 
<path style="fill:#008400; fill-opacity:1.0; 
stroke:#008400; stroke-width:3.93701; stroke-opacity:1; 
stroke-linecap:round; stroke-linejoin:round;fill-rule:evenodd;"
d="M 25165,21357
25102,21366
25038,21382
24971,21405
24901,21436
24897,21438
24874,21449
24854,21459
24837,21466
24826,21471
24822,21472
24815,21473
24813,21475
24815,21479
24821,21490
24831,21505
24844,21525
24859,21547
24875,21572
24892,21597
24909,21622
24925,21646
24940,21667
24952,21685
24961,21698
24967,21705
24968,21706
24972,21704
24981,21698
24993,21687
24999,21681
25037,21652
25079,21630
25124,21616
25173,21610
25200,21611
25248,21618
25291,21632
25329,21653
25363,21683
25393,21719
25418,21764
25433,21798
25450,21852
25463,21910
25471,21971
25475,22034
25474,22097
25469,22158
25460,22217
25446,22272
25428,22320
25421,22334
25395,22379
25363,22417
25327,22447
25287,22471
25244,22486
25197,22493
25181,22494
25133,22489
25086,22476
25039,22455
24995,22426
24959,22395
24940,22377
24869,22494
24851,22524
24835,22551
24821,22574
24809,22593
24801,22607
24797,22615
24796,22616
24799,22620
24810,22627
24825,22636
24845,22647
24868,22659
24893,22671
24918,22684
24942,22695
24964,22705
24983,22712
24992,22716
25045,22731
25099,22740
25158,22746
25207,22747
25234,22746
25260,22745
25283,22744
25300,22743
25305,22742
25360,22731
25416,22713
25470,22690
25520,22663
25550,22642
25600,22599
25647,22549
25689,22494
25726,22433
25757,22369
25774,22323
25794,22250
25807,22174
25813,22095
25814,22014
25807,21935
25794,21858
25774,21784
25773,21780
25748,21716
25718,21658
25681,21603
25637,21551
25619,21534
25566,21485
25511,21444
25453,21412
25393,21387
25328,21369
25290,21363
25228,21356
25165,21357
Z" /> 
<path style="fill:#008400; fill-opacity:1.0; 
stroke:#008400; stroke-width:3.93701; stroke-opacity:1; 
stroke-linecap:round; stroke-linejoin:round;fill-rule:evenodd;"
d="M 26455,21176
26450,21221
26438,21264
26418,21302
26391,21337
26357,21367
26319,21389
26277,21405
26235,21412
26194,21412
26153,21404
26115,21390
26080,21369
26049,21343
26023,21312
26002,21276
25987,21236
25980,21192
25979,21173
25979,21138
25959,21138
25944,21139
25934,21144
25923,21153
25908,21168
25908,22031
25908,22134
25908,22229
25908,22316
25908,22394
25908,22466
25908,22530
25908,22588
25909,22639
25909,22685
25909,22724
25909,22759
25909,22789
25910,22814
25910,22836
25911,22854
25911,22868
25912,22879
25912,22888
25913,22895
25914,22899
25914,22903
25915,22905
25916,22906
25917,22908
25919,22911
25920,22913
25922,22915
25925,22917
25929,22919
25935,22921
25942,22922
25952,22923
25965,22924
25980,22925
25999,22926
26022,22927
26048,22927
26080,22928
26116,22928
26157,22929
26204,22929
26257,22929
26316,22929
26382,22929
26454,22929
26534,22929
26622,22929
26718,22929
26823,22929
26838,22929
26943,22929
27040,22929
27128,22929
27209,22929
27282,22929
27348,22929
27407,22929
27460,22929
27507,22928
27549,22928
27585,22928
27616,22928
27643,22927
27665,22927
27684,22927
27699,22926
27711,22926
27721,22925
27728,22924
27733,22924
27736,22923
27738,22922
27741,22921
27744,22920
27747,22919
27750,22917
27752,22915
27754,22912
27756,22907
27757,22901
27759,22892
27760,22880
27761,22866
27762,22849
27763,22827
27764,22802
27764,22772
27765,22738
27765,22698
27765,22653
27766,22602
27766,22544
27766,22480
27766,22409
27766,22331
27766,22245
27766,22151
27766,22048
27766,22032
27766,21928
27766,21833
27766,21746
27766,21667
27766,21596
27766,21531
27766,21473
27765,21421
27765,21378
27646,21378
27630,21401
27626,21407
27622,21413
27618,21418
27615,21423
27612,21430
27610,21437
27608,21446
27606,21457
27605,21470
27603,21487
27602,21507
27601,21531
27601,21560
27600,21593
27600,21632
27599,21677
27599,21727
27599,21785
27599,21850
27599,21923
27599,22003
27599,22052
27599,22137
27599,22214
27599,22283
27599,22345
27599,22399
27600,22447
27600,22489
27600,22525
27601,22556
27602,22583
27603,22605
27604,22624
27605,22639
27607,22651
27609,22661
27611,22669
27614,22676
27617,22682
27620,22687
27624,22693
27628,22699
27630,22702
27645,22725
27436,22725
27387,22725
27347,22725
27314,22725
27288,22724
27268,22724
27253,22724
27243,22723
27236,22722
27233,22721
27232,22719
27233,22718
27234,22717
27243,22702
27254,22682
27263,22657
27266,22647
27268,22640
27270,22632
27271,22621
27272,22608
27273,22591
27274,22570
27274,22543
27275,22510
27275,22470
27276,22422
27276,22405
27276,22356
27276,22314
27277,22281
27277,22254
27277,22233
27276,22218
27276,22207
27275,22200
27274,22197
27272,22196
27271,22196
27269,22198
27265,22203
27256,22215
27244,22232
27228,22253
27209,22279
27188,22307
27165,22338
27142,22370
27118,22402
27095,22434
27072,22465
27051,22494
27032,22520
27016,22542
27004,22560
26995,22572
26993,22575
26984,22589
26974,22608
26964,22628
26962,22630
26954,22649
26949,22664
26947,22678
26946,22695
26946,22725
26492,22725
26528,22688
26546,22668
26566,22646
26584,22625
26592,22615
26604,22599
26620,22578
26639,22553
26661,22523
26685,22489
26712,22453
26739,22415
26768,22375
26798,22335
26827,22294
26856,22253
26884,22214
26911,22176
26937,22141
26960,22108
26980,22079
26997,22055
27011,22035
27020,22020
27026,22012
27026,22011
27023,22006
27015,21996
27002,21979
26986,21958
26965,21933
26942,21904
26917,21872
26890,21838
26861,21802
26832,21766
26808,21736
26410,21736
26408,21741
26402,21750
26402,21751
26395,21763
26387,21777
26385,21780
26384,21784
26383,21788
26382,21793
26381,21800
26380,21809
26379,21821
26379,21837
26378,21856
26378,21880
26377,21909
26377,21944
26377,21985
26376,22032
26376,22087
26376,22150
26376,22220
26376,22293
26375,22357
26375,22414
26375,22464
26375,22507
26376,22543
26376,22574
26377,22600
26378,22622
26379,22640
26380,22654
26382,22665
26384,22675
26386,22682
26389,22688
26392,22694
26396,22699
26399,22704
26406,22715
26410,22722
26410,22723
26406,22723
26394,22724
26374,22724
26349,22724
26318,22725
26283,22725
26244,22725
26217,22725
26176,22725
26138,22725
26103,22724
26074,22724
26051,22723
26034,22722
26025,22721
26024,22721
26027,22715
26030,22712
26035,22705
26042,22693
26047,22684
26057,22660
26058,22197
26059,21734
26235,21734
26273,21734
26309,21734
26341,21734
26368,21735
26389,21735
26403,21736
26410,21736
26410,21736
26808,21736
26802,21729
26773,21693
26745,21657
26718,21624
26693,21593
26670,21565
26651,21541
26635,21522
26628,21514
26594,21474
26564,21441
26537,21415
26512,21393
26508,21390
26493,21378
26938,21378
26936,21397
26937,21420
26946,21447
26962,21478
26979,21506
26986,21515
26997,21530
27012,21550
27030,21574
27051,21601
27074,21631
27099,21663
27124,21695
27149,21727
27174,21759
27197,21788
27219,21815
27238,21839
27253,21859
27265,21873
27272,21881
27273,21883
27274,21879
27275,21868
27276,21847
27276,21818
27276,21780
27276,21734
27276,21687
27275,21635
27275,21591
27274,21554
27273,21524
27271,21499
27269,21478
27267,21461
27264,21447
27260,21435
27255,21424
27249,21413
27244,21403
27229,21378
27646,21378
27765,21378
27765,21376
27765,21336
27765,21301
27764,21270
27763,21245
27763,21223
27762,21205
27761,21190
27760,21179
27758,21169
27757,21163
27755,21157
27754,21154
27752,21151
27749,21150
27747,21148
27744,21147
27742,21146
27740,21145
27737,21144
27732,21143
27725,21142
27716,21141
27703,21141
27688,21140
27669,21140
27645,21139
27617,21139
27584,21139
27546,21139
27501,21139
27451,21138
27393,21138
27329,21138
27256,21138
27176,21138
27093,21138
26455,21138
26455,21176
Z" /> 
<g >
</g>
<g >
</g>
<g >
</g>
<g style="fill:#848400; fill-opacity:1.0; 
stroke:#848400; stroke-width:3.93701; stroke-opacity:1; 
stroke-linecap:round; stroke-linejoin:round;">
</g>
<g style="fill:#848400; fill-opacity:1.0; 
stroke:#848400; stroke-width:0; stroke-opacity:1; 
stroke-linecap:round; stroke-linejoin:round;">
<circle cx="18444.9" cy="13307.1" r="340" /> 
</g>
<g style="fill:#848400; fill-opacity:1.0; 
stroke:#848400; stroke-width:39.3701; stroke-opacity:1; 
stroke-linecap:round; stroke-linejoin:round;">
</g>
<g style="fill:#848400; fill-opacity:1.0; 
stroke:#848400; stroke-width:0; stroke-opacity:1; 
stroke-linecap:round; stroke-linejoin:round;">
<circle cx="18444.9" cy="14307.1" r="340" /> 
</g>
<g style="fill:#848400; fill-opacity:1.0; 
stroke:#848400; stroke-width:39.3701; stroke-opacity:1; 
stroke-linecap:round; stroke-linejoin:round;">
</g>
<g style="fill:#848400; fill-opacity:1.0; 
stroke:#848400; stroke-width:680; stroke-opacity:1; 
stroke-linecap:round; stroke-linejoin:round;">
</g>
<g style="fill:#848400; fill-opacity:0.0; 
stroke:#848400; stroke-width:680; stroke-opacity:1; 
stroke-linecap:round; stroke-linejoin:round;">
<path d="M17444 13307
L17444 13307
" />
<path d="M17444 14307
L17444 14307
" />
<path d="M16444 13307
L16444 13307
" />
</g>
<g style="fill:#848400; fill-opacity:0.0; 
stroke:#848400; stroke-width:0; stroke-opacity:1; 
stroke-linecap:round; stroke-linejoin:round;">
</g>
<g style="fill:#848400; fill-opacity:1.0; 
stroke:#848400; stroke-width:0; stroke-opacity:1; 
stroke-linecap:round; stroke-linejoin:round;">
<path style="fill:#848400; fill-opacity:1.0; 
stroke:#848400; stroke-width:0; stroke-opacity:1; 
stroke-linecap:round; stroke-linejoin:round;fill-rule:evenodd;"
d="M 16104,13967
16784,13967
16784,14647
16104,14647
16104,13967
Z" /> 
</g>
<g >
<path style="fill:#848400; fill-opacity:1.0; 
stroke:#848400; stroke-width:0; stroke-opacity:1; 
stroke-linecap:round; stroke-linejoin:round;fill-rule:evenodd;"
d="M 3011,11692
2303,11692
2303,10984
3011,10984
3011,11692
Z" /> 
<circle cx="2657.48" cy="10338.6" r="354.331" /> 
</g>
<g style="fill:#848400; fill-opacity:1.0; 
stroke:#848400; stroke-width:39.3701; stroke-opacity:1; 
stroke-linecap:round; stroke-linejoin:round;">
</g>
<g >
</g>
<g >
</g>
<g >
</g>
<g >
</g>
<g >
</g>
<g style="fill:#008400; fill-opacity:1.0; 
stroke:#008400; stroke-width:39.3701; stroke-opacity:1; 
stroke-linecap:round; stroke-linejoin:round;">
</g>
<g style="fill:#008400; fill-opacity:1.0; 
stroke:#008400; stroke-width:0; stroke-opacity:1; 
stroke-linecap:round; stroke-linejoin:round;">
<path style="fill:#008400; fill-opacity:1.0; 
stroke:#008400; stroke-width:0; stroke-opacity:1; 
stroke-linecap:round; stroke-linejoin:round;fill-rule:evenodd;"
d="M 16208,10393
16211,10394
16215,10395
16218,10396
16221,10397
16224,10399
16227,10401
16229,10404
16232,10406
16234,10409
16235,10412
16237,10415
16238,10418
16239,10422
16239,10425
16240,10429
16240,10712
16239,10716
16239,10719
16238,10722
16237,10726
16235,10729
16234,10732
16232,10735
16229,10737
16227,10739
16224,10742
16221,10743
16218,10745
16215,10746
16211,10747
16208,10747
16204,10748
15881,10748
15878,10747
15874,10747
15871,10746
15868,10745
15865,10743
15862,10742
15859,10739
15856,10737
15854,10735
15852,10732
15850,10729
15849,10726
15847,10722
15847,10719
15846,10716
15846,10712
15846,10429
15846,10425
15847,10422
15847,10418
15849,10415
15850,10412
15852,10409
15854,10406
15856,10404
15859,10401
15862,10399
15865,10397
15868,10396
15871,10395
15874,10394
15878,10393
15881,10393
16204,10393
16208,10393
Z" /> 
<path style="fill:#008400; fill-opacity:1.0; 
stroke:#008400; stroke-width:0; stroke-opacity:1; 
stroke-linecap:round; stroke-linejoin:round;fill-rule:evenodd;"
d="M 15027,10393
15030,10394
15033,10395
15037,10396
15040,10397
15043,10399
15046,10401
15048,10404
15051,10406
15053,10409
15054,10412
15056,10415
15057,10418
15058,10422
15058,10425
15059,10429
15059,10712
15058,10716
15058,10719
15057,10722
15056,10726
15054,10729
15053,10732
15051,10735
15048,10737
15046,10739
15043,10742
15040,10743
15037,10745
15033,10746
15030,10747
15027,10747
15023,10748
14700,10748
14697,10747
14693,10747
14690,10746
14687,10745
14684,10743
14681,10742
14678,10739
14675,10737
14673,10735
14671,10732
14669,10729
14668,10726
14666,10722
14666,10719
14665,10716
14665,10712
14665,10429
14665,10425
14666,10422
14666,10418
14668,10415
14669,10412
14671,10409
14673,10406
14675,10404
14678,10401
14681,10399
14684,10397
14687,10396
14690,10395
14693,10394
14697,10393
14700,10393
15023,10393
15027,10393
Z" /> 
<path style="fill:#008400; fill-opacity:1.0; 
stroke:#008400; stroke-width:0; stroke-opacity:1; 
stroke-linecap:round; stroke-linejoin:round;fill-rule:evenodd;"
d="M 15588,10511
15591,10512
15593,10512
15595,10513
15597,10514
15599,10515
15601,10517
15603,10518
15604,10520
15606,10522
15607,10524
15608,10526
15609,10528
15609,10530
15610,10533
15610,10535
15610,10724
15610,10726
15609,10729
15609,10731
15608,10733
15607,10735
15606,10737
15604,10739
15603,10741
15601,10742
15599,10744
15597,10745
15595,10746
15593,10747
15591,10747
15588,10747
15586,10748
15318,10748
15316,10747
15314,10747
15312,10747
15309,10746
15307,10745
15305,10744
15303,10742
15302,10741
15300,10739
15299,10737
15298,10735
15297,10733
15296,10731
15295,10729
15295,10726
15295,10724
15295,10535
15295,10533
15295,10530
15296,10528
15297,10526
15298,10524
15299,10522
15300,10520
15302,10518
15303,10517
15305,10515
15307,10514
15309,10513
15312,10512
15314,10512
15316,10511
15318,10511
15586,10511
15588,10511
Z" /> 
</g>
<g >
<path style="fill:#008400; fill-opacity:1.0; 
stroke:#008400; stroke-width:0; stroke-opacity:1; 
stroke-linecap:round; stroke-linejoin:round;fill-rule:evenodd;"
d="M 18777,7736
18780,7736
18782,7737
18784,7738
18786,7739
18788,7740
18790,7741
18792,7743
18793,7744
18795,7746
18796,7748
18797,7750
18798,7752
18798,7755
18799,7757
18799,7759
18799,8027
18799,8029
18798,8032
18798,8034
18797,8036
18796,8038
18795,8040
18793,8042
18792,8044
18790,8045
18788,8047
18786,8048
18784,8049
18782,8050
18780,8050
18777,8051
18775,8051
18586,8051
18584,8051
18582,8050
18579,8050
18577,8049
18575,8048
18573,8047
18571,8045
18569,8044
18568,8042
18566,8040
18565,8038
18564,8036
18564,8034
18563,8032
18563,8029
18562,8027
18562,7759
18563,7757
18563,7755
18564,7752
18564,7750
18565,7748
18566,7746
18568,7744
18569,7743
18571,7741
18573,7740
18575,7739
18577,7738
18579,7737
18582,7736
18584,7736
18586,7736
18775,7736
18777,7736
Z" /> 
<path style="fill:#008400; fill-opacity:1.0; 
stroke:#008400; stroke-width:0; stroke-opacity:1; 
stroke-linecap:round; stroke-linejoin:round;fill-rule:evenodd;"
d="M 18767,8287
18770,8288
18774,8288
18777,8290
18780,8291
18783,8293
18786,8295
18788,8297
18791,8300
18793,8303
18795,8306
18796,8309
18797,8312
18798,8315
18799,8319
18799,8322
18799,8645
18799,8649
18798,8652
18797,8655
18796,8659
18795,8662
18793,8665
18791,8668
18788,8670
18786,8673
18783,8675
18780,8676
18777,8678
18774,8679
18770,8680
18767,8680
18763,8681
18480,8681
18476,8680
18473,8680
18470,8679
18466,8678
18463,8676
18460,8675
18457,8673
18455,8670
18452,8668
18450,8665
18449,8662
18447,8659
18446,8655
18445,8652
18445,8649
18444,8645
18444,8322
18445,8319
18445,8315
18446,8312
18447,8309
18449,8306
18450,8303
18452,8300
18455,8297
18457,8295
18460,8293
18463,8291
18466,8290
18470,8288
18473,8288
18476,8287
18480,8287
18763,8287
18767,8287
Z" /> 
<path style="fill:#008400; fill-opacity:1.0; 
stroke:#008400; stroke-width:0; stroke-opacity:1; 
stroke-linecap:round; stroke-linejoin:round;fill-rule:evenodd;"
d="M 18767,7106
18770,7106
18774,7107
18777,7108
18780,7110
18783,7112
18786,7114
18788,7116
18791,7119
18793,7122
18795,7125
18796,7128
18797,7131
18798,7134
18799,7138
18799,7141
18799,7464
18799,7468
18798,7471
18797,7474
18796,7478
18795,7481
18793,7484
18791,7487
18788,7489
18786,7491
18783,7494
18780,7495
18777,7497
18774,7498
18770,7499
18767,7499
18763,7500
18480,7500
18476,7499
18473,7499
18470,7498
18466,7497
18463,7495
18460,7494
18457,7491
18455,7489
18452,7487
18450,7484
18449,7481
18447,7478
18446,7474
18445,7471
18445,7468
18444,7464
18444,7141
18445,7138
18445,7134
18446,7131
18447,7128
18449,7125
18450,7122
18452,7119
18455,7116
18457,7114
18460,7112
18463,7110
18466,7108
18470,7107
18473,7106
18476,7106
18480,7106
18763,7106
18767,7106
Z" /> 
</g>
<g >
<path style="fill:#008400; fill-opacity:1.0; 
stroke:#008400; stroke-width:0; stroke-opacity:1; 
stroke-linecap:round; stroke-linejoin:round;fill-rule:evenodd;"
d="M 15027,5039
15030,5040
15033,5040
15037,5042
15040,5043
15043,5045
15046,5047
15048,5049
15051,5052
15053,5055
15054,5058
15056,5061
15057,5064
15058,5067
15058,5071
15059,5074
15059,5358
15058,5361
15058,5365
15057,5368
15056,5371
15054,5374
15053,5377
15051,5380
15048,5383
15046,5385
15043,5387
15040,5389
15037,5391
15033,5392
15030,5393
15027,5393
15023,5393
14700,5393
14697,5393
14693,5393
14690,5392
14687,5391
14684,5389
14681,5387
14678,5385
14675,5383
14673,5380
14671,5377
14669,5374
14668,5371
14666,5368
14666,5365
14665,5361
14665,5358
14665,5074
14665,5071
14666,5067
14666,5064
14668,5061
14669,5058
14671,5055
14673,5052
14675,5049
14678,5047
14681,5045
14684,5043
14687,5042
14690,5040
14693,5040
14697,5039
14700,5039
15023,5039
15027,5039
Z" /> 
<path style="fill:#008400; fill-opacity:1.0; 
stroke:#008400; stroke-width:0; stroke-opacity:1; 
stroke-linecap:round; stroke-linejoin:round;fill-rule:evenodd;"
d="M 16208,5039
16211,5040
16215,5040
16218,5042
16221,5043
16224,5045
16227,5047
16229,5049
16232,5052
16234,5055
16235,5058
16237,5061
16238,5064
16239,5067
16239,5071
16240,5074
16240,5358
16239,5361
16239,5365
16238,5368
16237,5371
16235,5374
16234,5377
16232,5380
16229,5383
16227,5385
16224,5387
16221,5389
16218,5391
16215,5392
16211,5393
16208,5393
16204,5393
15881,5393
15878,5393
15874,5393
15871,5392
15868,5391
15865,5389
15862,5387
15859,5385
15856,5383
15854,5380
15852,5377
15850,5374
15849,5371
15847,5368
15847,5365
15846,5361
15846,5358
15846,5074
15846,5071
15847,5067
15847,5064
15849,5061
15850,5058
15852,5055
15854,5052
15856,5049
15859,5047
15862,5045
15865,5043
15868,5042
15871,5040
15874,5040
15878,5039
15881,5039
16204,5039
16208,5039
Z" /> 
<path style="fill:#008400; fill-opacity:1.0; 
stroke:#008400; stroke-width:0; stroke-opacity:1; 
stroke-linecap:round; stroke-linejoin:round;fill-rule:evenodd;"
d="M 15588,5039
15591,5039
15593,5040
15595,5041
15597,5042
15599,5043
15601,5044
15603,5046
15604,5048
15606,5049
15607,5051
15608,5053
15609,5056
15609,5058
15610,5060
15610,5062
15610,5251
15610,5254
15609,5256
15609,5258
15608,5261
15607,5263
15606,5265
15604,5266
15603,5268
15601,5270
15599,5271
15597,5272
15595,5273
15593,5274
15591,5275
15588,5275
15586,5275
15318,5275
15316,5275
15314,5275
15312,5274
15309,5273
15307,5272
15305,5271
15303,5270
15302,5268
15300,5266
15299,5265
15298,5263
15297,5261
15296,5258
15295,5256
15295,5254
15295,5251
15295,5062
15295,5060
15295,5058
15296,5056
15297,5053
15298,5051
15299,5049
15300,5048
15302,5046
15303,5044
15305,5043
15307,5042
15309,5041
15312,5040
15314,5039
15316,5039
15318,5039
15586,5039
15588,5039
Z" /> 
</g>
<g >
<path style="fill:#008400; fill-opacity:1.0; 
stroke:#008400; stroke-width:0; stroke-opacity:1; 
stroke-linecap:round; stroke-linejoin:round;fill-rule:evenodd;"
d="M 12861,6614
12865,6614
12868,6615
12871,6616
12874,6618
12877,6620
12880,6622
12883,6624
12885,6627
12887,6629
12889,6632
12891,6636
12892,6639
12893,6642
12893,6646
12893,6649
12893,6972
12893,6975
12893,6979
12892,6982
12891,6986
12889,6989
12887,6992
12885,6994
12883,6997
12880,6999
12877,7001
12874,7003
12871,7005
12868,7006
12865,7007
12861,7007
12858,7007
12574,7007
12571,7007
12567,7007
12564,7006
12561,7005
12558,7003
12555,7001
12552,6999
12549,6997
12547,6994
12545,6992
12543,6989
12542,6986
12540,6982
12540,6979
12539,6975
12539,6972
12539,6649
12539,6646
12540,6642
12540,6639
12542,6636
12543,6632
12545,6629
12547,6627
12549,6624
12552,6622
12555,6620
12558,6618
12561,6616
12564,6615
12567,6614
12571,6614
12574,6614
12858,6614
12861,6614
Z" /> 
<path style="fill:#008400; fill-opacity:1.0; 
stroke:#008400; stroke-width:0; stroke-opacity:1; 
stroke-linecap:round; stroke-linejoin:round;fill-rule:evenodd;"
d="M 12861,7795
12865,7795
12868,7796
12871,7797
12874,7799
12877,7801
12880,7803
12883,7805
12885,7808
12887,7811
12889,7814
12891,7817
12892,7820
12893,7823
12893,7827
12893,7830
12893,8153
12893,8157
12893,8160
12892,8163
12891,8167
12889,8170
12887,8173
12885,8176
12883,8178
12880,8180
12877,8183
12874,8184
12871,8186
12868,8187
12865,8188
12861,8188
12858,8188
12574,8188
12571,8188
12567,8188
12564,8187
12561,8186
12558,8184
12555,8183
12552,8180
12549,8178
12547,8176
12545,8173
12543,8170
12542,8167
12540,8163
12540,8160
12539,8157
12539,8153
12539,7830
12539,7827
12540,7823
12540,7820
12542,7817
12543,7814
12545,7811
12547,7808
12549,7805
12552,7803
12555,7801
12558,7799
12561,7797
12564,7796
12567,7795
12571,7795
12574,7795
12858,7795
12861,7795
Z" /> 
<path style="fill:#008400; fill-opacity:1.0; 
stroke:#008400; stroke-width:0; stroke-opacity:1; 
stroke-linecap:round; stroke-linejoin:round;fill-rule:evenodd;"
d="M 12872,7244
12874,7244
12876,7245
12879,7245
12881,7246
12883,7248
12885,7249
12886,7251
12888,7252
12889,7254
12890,7256
12891,7258
12892,7260
12893,7263
12893,7265
12893,7267
12893,7535
12893,7537
12893,7540
12892,7542
12891,7544
12890,7546
12889,7548
12888,7550
12886,7552
12885,7553
12883,7555
12881,7556
12879,7557
12876,7558
12874,7558
12872,7558
12870,7559
12681,7559
12678,7558
12676,7558
12674,7558
12672,7557
12669,7556
12667,7555
12666,7553
12664,7552
12662,7550
12661,7548
12660,7546
12659,7544
12658,7542
12657,7540
12657,7537
12657,7535
12657,7267
12657,7265
12657,7263
12658,7260
12659,7258
12660,7256
12661,7254
12662,7252
12664,7251
12666,7249
12667,7248
12669,7246
12672,7245
12674,7245
12676,7244
12678,7244
12681,7244
12870,7244
12872,7244
Z" /> 
</g>
<g >
<path style="fill:#008400; fill-opacity:1.0; 
stroke:#008400; stroke-width:0; stroke-opacity:1; 
stroke-linecap:round; stroke-linejoin:round;fill-rule:evenodd;"
d="M 10942,9732
10944,9733
10946,9733
10949,9734
10951,9735
10953,9736
10955,9738
10956,9739
11146,9929
11147,9930
11149,9932
11150,9934
11151,9936
11152,9938
11152,9941
11152,9943
11153,9945
11152,9948
11152,9950
11152,9952
11151,9954
11150,9956
11149,9958
11147,9960
11146,9962
11012,10096
11010,10097
11008,10098
11006,10100
11004,10101
11002,10101
11000,10102
10998,10102
10995,10102
10993,10102
10991,10102
10988,10101
10986,10101
10984,10100
10982,10098
10980,10097
10979,10096
10789,9906
10788,9905
10786,9903
10785,9901
10784,9899
10783,9896
10783,9894
10782,9892
10782,9890
10782,9887
10783,9885
10783,9883
10784,9881
10785,9878
10786,9876
10788,9875
10789,9873
10923,9739
10925,9738
10926,9736
10928,9735
10931,9734
10933,9733
10935,9733
10937,9732
10940,9732
10942,9732
Z" /> 
<path style="fill:#008400; fill-opacity:1.0; 
stroke:#008400; stroke-width:0; stroke-opacity:1; 
stroke-linecap:round; stroke-linejoin:round;fill-rule:evenodd;"
d="M 10581,9208
10585,9209
10588,9210
10591,9211
10594,9212
10597,9214
10600,9216
10603,9219
10831,9447
10833,9449
10835,9452
10837,9455
10839,9458
10840,9462
10841,9465
10841,9468
10841,9472
10841,9475
10841,9479
10840,9482
10839,9486
10837,9489
10835,9492
10833,9494
10831,9497
10631,9697
10628,9700
10625,9702
10622,9704
10619,9705
10616,9706
10612,9707
10609,9708
10606,9708
10602,9708
10599,9707
10595,9706
10592,9705
10589,9704
10586,9702
10583,9700
10580,9697
10352,9469
10350,9467
10348,9464
10346,9461
10345,9458
10343,9454
10343,9451
10342,9448
10342,9444
10342,9441
10343,9437
10343,9434
10345,9431
10346,9427
10348,9424
10350,9422
10352,9419
10553,9219
10555,9216
10558,9214
10561,9212
10564,9211
10567,9210
10571,9209
10574,9208
10578,9208
10581,9208
Z" /> 
<path style="fill:#008400; fill-opacity:1.0; 
stroke:#008400; stroke-width:0; stroke-opacity:1; 
stroke-linecap:round; stroke-linejoin:round;fill-rule:evenodd;"
d="M 11416,10044
11420,10044
11423,10045
11426,10046
11430,10048
11433,10049
11435,10051
11438,10054
11666,10282
11669,10285
11671,10287
11672,10290
11674,10294
11675,10297
11676,10300
11676,10304
11677,10307
11676,10311
11676,10314
11675,10317
11674,10321
11672,10324
11671,10327
11669,10330
11666,10332
11466,10533
11463,10535
11460,10537
11457,10539
11454,10540
11451,10541
11448,10542
11444,10543
11441,10543
11437,10543
11434,10542
11430,10541
11427,10540
11424,10539
11421,10537
11418,10535
11416,10533
11187,10304
11185,10302
11183,10299
11181,10296
11180,10293
11179,10290
11178,10286
11177,10283
11177,10279
11177,10276
11178,10272
11179,10269
11180,10266
11181,10263
11183,10260
11185,10257
11187,10254
11388,10054
11390,10051
11393,10049
11396,10048
11399,10046
11403,10045
11406,10044
11409,10044
11413,10043
11416,10044
Z" /> 
</g>
<g >
<path style="fill:#008400; fill-opacity:1.0; 
stroke:#008400; stroke-width:0; stroke-opacity:1; 
stroke-linecap:round; stroke-linejoin:round;fill-rule:evenodd;"
d="M 17942,10276
17952,10277
17961,10279
17970,10283
17979,10287
17987,10292
17995,10297
18002,10304
18009,10311
18014,10319
18019,10327
18024,10336
18027,10345
18029,10354
18031,10364
18031,10374
18031,10728
18031,10737
18029,10747
18027,10756
18024,10766
18019,10774
18014,10783
18009,10790
18002,10797
17995,10804
17987,10810
17979,10815
17970,10819
17961,10822
17952,10824
17942,10826
17933,10826
17677,10826
17667,10826
17657,10824
17648,10822
17639,10819
17630,10815
17622,10810
17614,10804
17607,10797
17601,10790
17595,10783
17590,10774
17586,10766
17582,10756
17580,10747
17579,10737
17578,10728
17578,10374
17579,10364
17580,10354
17582,10345
17586,10336
17590,10327
17595,10319
17601,10311
17607,10304
17614,10297
17622,10292
17630,10287
17639,10283
17648,10279
17657,10277
17667,10276
17677,10275
17933,10275
17942,10276
Z" /> 
<path style="fill:#008400; fill-opacity:1.0; 
stroke:#008400; stroke-width:0; stroke-opacity:1; 
stroke-linecap:round; stroke-linejoin:round;fill-rule:evenodd;"
d="M 18749,10276
18759,10277
18768,10279
18777,10283
18786,10287
18794,10292
18802,10297
18809,10304
18816,10311
18821,10319
18826,10327
18831,10336
18834,10345
18836,10354
18838,10364
18838,10374
18838,10728
18838,10737
18836,10747
18834,10756
18831,10766
18826,10774
18821,10783
18816,10790
18809,10797
18802,10804
18794,10810
18786,10815
18777,10819
18768,10822
18759,10824
18749,10826
18740,10826
18484,10826
18474,10826
18465,10824
18455,10822
18446,10819
18437,10815
18429,10810
18421,10804
18414,10797
18408,10790
18402,10783
18397,10774
18393,10766
18390,10756
18387,10747
18386,10737
18385,10728
18385,10374
18386,10364
18387,10354
18390,10345
18393,10336
18397,10327
18402,10319
18408,10311
18414,10304
18421,10297
18429,10292
18437,10287
18446,10283
18455,10279
18465,10277
18474,10276
18484,10275
18740,10275
18749,10276
Z" /> 
</g>
<g >
<path style="fill:#008400; fill-opacity:1.0; 
stroke:#008400; stroke-width:0; stroke-opacity:1; 
stroke-linecap:round; stroke-linejoin:round;fill-rule:evenodd;"
d="M 13080,12402
13090,12403
13099,12405
13108,12409
13117,12413
13125,12418
13133,12423
13140,12430
13146,12437
13152,12445
13157,12453
13161,12462
13165,12471
13167,12480
13168,12490
13169,12500
13169,12755
13168,12765
13167,12775
13165,12784
13161,12793
13157,12802
13152,12810
13146,12818
13140,12825
13133,12831
13125,12837
13117,12842
13108,12846
13099,12850
13090,12852
13080,12853
13070,12854
12716,12854
12706,12853
12697,12852
12687,12850
12678,12846
12670,12842
12661,12837
12654,12831
12646,12825
12640,12818
12634,12810
12629,12802
12625,12793
12622,12784
12620,12775
12618,12765
12618,12755
12618,12500
12618,12490
12620,12480
12622,12471
12625,12462
12629,12453
12634,12445
12640,12437
12646,12430
12654,12423
12661,12418
12670,12413
12678,12409
12687,12405
12697,12403
12706,12402
12716,12401
13070,12401
13080,12402
Z" /> 
<path style="fill:#008400; fill-opacity:1.0; 
stroke:#008400; stroke-width:0; stroke-opacity:1; 
stroke-linecap:round; stroke-linejoin:round;fill-rule:evenodd;"
d="M 13080,11594
13090,11596
13099,11598
13108,11601
13117,11606
13125,11611
13133,11616
13140,11623
13146,11630
13152,11638
13157,11646
13161,11655
13165,11664
13167,11673
13168,11683
13169,11692
13169,11948
13168,11958
13167,11968
13165,11977
13161,11986
13157,11995
13152,12003
13146,12011
13140,12018
13133,12024
13125,12030
13117,12035
13108,12039
13099,12043
13090,12045
13080,12046
13070,12047
12716,12047
12706,12046
12697,12045
12687,12043
12678,12039
12670,12035
12661,12030
12654,12024
12646,12018
12640,12011
12634,12003
12629,11995
12625,11986
12622,11977
12620,11968
12618,11958
12618,11948
12618,11692
12618,11683
12620,11673
12622,11664
12625,11655
12629,11646
12634,11638
12640,11630
12646,11623
12654,11616
12661,11611
12670,11606
12678,11601
12687,11598
12697,11596
12706,11594
12716,11594
13070,11594
13080,11594
Z" /> 
</g>
<g >
<path style="fill:#008400; fill-opacity:1.0; 
stroke:#008400; stroke-width:0; stroke-opacity:1; 
stroke-linecap:round; stroke-linejoin:round;fill-rule:evenodd;"
d="M 11505,11594
11515,11596
11524,11598
11533,11601
11542,11606
11550,11611
11558,11616
11565,11623
11572,11630
11577,11638
11582,11646
11586,11655
11590,11664
11592,11673
11594,11683
11594,11692
11594,11948
11594,11958
11592,11968
11590,11977
11586,11986
11582,11995
11577,12003
11572,12011
11565,12018
11558,12024
11550,12030
11542,12035
11533,12039
11524,12043
11515,12045
11505,12046
11496,12047
11141,12047
11132,12046
11122,12045
11113,12043
11104,12039
11095,12035
11087,12030
11079,12024
11072,12018
11065,12011
11059,12003
11054,11995
11050,11986
11047,11977
11045,11968
11043,11958
11043,11948
11043,11692
11043,11683
11045,11673
11047,11664
11050,11655
11054,11646
11059,11638
11065,11630
11072,11623
11079,11616
11087,11611
11095,11606
11104,11601
11113,11598
11122,11596
11132,11594
11141,11594
11496,11594
11505,11594
Z" /> 
<path style="fill:#008400; fill-opacity:1.0; 
stroke:#008400; stroke-width:0; stroke-opacity:1; 
stroke-linecap:round; stroke-linejoin:round;fill-rule:evenodd;"
d="M 11505,12402
11515,12403
11524,12405
11533,12409
11542,12413
11550,12418
11558,12423
11565,12430
11572,12437
11577,12445
11582,12453
11586,12462
11590,12471
11592,12480
11594,12490
11594,12500
11594,12755
11594,12765
11592,12775
11590,12784
11586,12793
11582,12802
11577,12810
11572,12818
11565,12825
11558,12831
11550,12837
11542,12842
11533,12846
11524,12850
11515,12852
11505,12853
11496,12854
11141,12854
11132,12853
11122,12852
11113,12850
11104,12846
11095,12842
11087,12837
11079,12831
11072,12825
11065,12818
11059,12810
11054,12802
11050,12793
11047,12784
11045,12775
11043,12765
11043,12755
11043,12500
11043,12490
11045,12480
11047,12471
11050,12462
11054,12453
11059,12445
11065,12437
11072,12430
11079,12423
11087,12418
11095,12413
11104,12409
11113,12405
11122,12403
11132,12402
11141,12401
11496,12401
11505,12402
Z" /> 
</g>
<g >
</g>
<g >
</g>
<g style="fill:#008400; fill-opacity:1.0; 
stroke:#008400; stroke-width:100; stroke-opacity:1; 
stroke-linecap:round; stroke-linejoin:round;">
</g>
<g style="fill:#008400; fill-opacity:0.0; 
stroke:#008400; stroke-width:100; stroke-opacity:1; 
stroke-linecap:round; stroke-linejoin:round;">
<path d="M18612 8494
L18622 8484
" />
<path d="M18612 10551
L18612 8494
" />
<path d="M18110 7972
L18622 8484
" />
<path d="M18110 6942
L18110 7972
" />
<path d="M17879 6712
L18110 6942
" />
<path d="M17125 6712
L17879 6712
" />
<path d="M17125 5867
L17125 6712
" />
<path d="M16043 5629
L16141 5728
" />
<path d="M16043 5216
L16043 5629
" />
<path d="M16986 5728
L17125 5867
" />
<path d="M16141 5728
L16986 5728
" />
<path d="M13139 11575
L12893 11820
" />
<path d="M13287 11427
L13139 11575
" />
<path d="M13287 8562
L13287 11427
" />
<path d="M12716 7992
L13287 8562
" />
<path d="M10592 10316
L10592 9744
" />
<path d="M12096 11820
L10592 10316
" />
<path d="M10592 9744
L10592 9458
" />
<path d="M12893 11820
L12096 11820
" />
<path d="M3158 10338
L2657 10338
" />
<path d="M10102 10338
L3158 10338
" />
<path d="M11318 11555
L10102 10338
" />
<path d="M11318 11820
L11318 11555
" />
<path d="M15765 12627
L12893 12627
" />
<path d="M16444 13307
L15765 12627
" />
<path d="M12893 12627
L11318 12627
" />
<path d="M17805 11946
L17805 10551
" />
<path d="M16444 13307
L17805 11946
" />
</g>
<g >
</g>
<g style="fill:#008400; fill-opacity:1.0; 
stroke:#008400; stroke-width:10; stroke-opacity:1; 
stroke-linecap:round; stroke-linejoin:round;">
<path style="fill:#008400; fill-opacity:1.0; 
stroke:#008400; stroke-width:10; stroke-opacity:1; 
stroke-linecap:round; stroke-linejoin:round;fill-rule:evenodd;"
d="M 16530,5531
16530,5532
16530,5533
16531,5534
16531,5535
16532,5535
16533,5536
16534,5536
16535,5536
17317,5536
17317,6515
17317,6516
17318,6517
17318,6518
17319,6519
17320,6519
17320,6520
17321,6520
17322,6520
19089,6520
19089,15467
14011,15467
14011,14785
14011,14783
14010,14776
14008,14770
14005,14764
14001,14758
13995,14754
13989,14751
13983,14749
13978,14748
13976,14748
13974,14748
13026,14748
13026,14647
15898,14647
15902,14687
15914,14725
15933,14761
15959,14792
15990,14818
16026,14837
16064,14849
16104,14853
16298,14852
16349,14800
16349,14402
16539,14402
16539,14800
16591,14852
16784,14853
16825,14849
16863,14837
16899,14818
16930,14792
16956,14761
16975,14725
16986,14687
16990,14647
16989,14453
16938,14402
16539,14402
16349,14402
15951,14402
15899,14453
15898,14647
13026,14647
13026,14307
17037,14307
17045,14386
17068,14462
17106,14533
17157,14594
17218,14645
17289,14683
17365,14706
17424,14712
17464,14712
17524,14706
17600,14683
17670,14645
17732,14594
17783,14533
17820,14462
17844,14386
17851,14307
17847,14267
18039,14267
18039,14346
18055,14425
18085,14498
18130,14565
18186,14621
18253,14665
18326,14696
18404,14712
18484,14712
18563,14696
18636,14665
18703,14621
18759,14565
18803,14498
18834,14425
18849,14346
18849,14267
18834,14188
18803,14115
18759,14048
18703,13992
18636,13948
18563,13917
18484,13902
18404,13902
18326,13917
18253,13948
18186,13992
18130,14048
18085,14115
18055,14188
18039,14267
17847,14267
17844,14227
17820,14151
17783,14080
17732,14019
17670,13968
17600,13931
17524,13907
17464,13902
17424,13902
17365,13907
17289,13931
17218,13968
17157,14019
17106,14080
17068,14151
17045,14227
17037,14307
13026,14307
13026,13967
15898,13967
15899,14160
15951,14212
16349,14212
16349,13813
16539,13813
16539,14212
16938,14212
16989,14160
16990,13967
16986,13926
16975,13888
16956,13852
16930,13821
16899,13795
16863,13776
16825,13765
16784,13761
16591,13762
16539,13813
16349,13813
16298,13762
16104,13761
16064,13765
16026,13776
15990,13795
15959,13821
15933,13852
15914,13888
15902,13926
15898,13967
13026,13967
13026,13800
13026,13799
13026,13792
13024,13785
13021,13779
13016,13774
13011,13770
13005,13767
12998,13765
12993,13764
12992,13764
12990,13764
10831,13764
10831,12500
10977,12500
10977,12755
10981,12787
10990,12818
11005,12846
11025,12871
11050,12892
11079,12907
11109,12916
11141,12919
11496,12919
11528,12916
11558,12907
11587,12892
11611,12871
11632,12846
11647,12818
11656,12787
11659,12755
11659,12742
12552,12742
12552,12755
12555,12787
12565,12818
12580,12846
12600,12871
12625,12892
12653,12907
12684,12916
12716,12919
13070,12919
13102,12916
13133,12907
13161,12892
13186,12871
13207,12846
13222,12818
13231,12787
13234,12755
13234,12742
15718,12742
16088,13113
16068,13151
16045,13227
16037,13307
16045,13386
16068,13462
16106,13533
16157,13594
16218,13645
16289,13683
16365,13706
16424,13712
16464,13712
16524,13706
16600,13683
16670,13645
16732,13594
16783,13533
16820,13462
16844,13386
16851,13307
17037,13307
17045,13386
17068,13462
17106,13533
17157,13594
17218,13645
17289,13683
17365,13706
17424,13712
17464,13712
17524,13706
17600,13683
17670,13645
17732,13594
17783,13533
17820,13462
17844,13386
17851,13307
17847,13267
18039,13267
18039,13346
18055,13425
18085,13498
18130,13565
18186,13621
18253,13665
18326,13696
18404,13712
18484,13712
18563,13696
18636,13665
18703,13621
18759,13565
18803,13498
18834,13425
18849,13346
18849,13267
18834,13188
18803,13115
18759,13048
18703,12992
18636,12948
18563,12917
18484,12902
18404,12902
18326,12917
18253,12948
18186,12992
18130,13048
18085,13115
18055,13188
18039,13267
17847,13267
17844,13227
17820,13151
17783,13080
17732,13019
17670,12968
17600,12931
17524,12907
17464,12902
17424,12902
17365,12907
17289,12931
17218,12968
17157,13019
17106,13080
17068,13151
17045,13227
17037,13307
16851,13307
16844,13227
16820,13151
16800,13113
17882,12032
17886,12028
17901,12011
17911,11991
17918,11969
17920,11952
17920,11952
17920,11946
17920,11941
17920,10892
17933,10892
17965,10888
17995,10879
18024,10864
18048,10844
18069,10819
18084,10791
18093,10760
18096,10728
18096,10374
18093,10342
18084,10311
18069,10283
18048,10258
18024,10237
17995,10222
17965,10213
17933,10210
17677,10210
17645,10213
17614,10222
17586,10237
17561,10258
17541,10283
17525,10311
17516,10342
17513,10374
17513,10728
17516,10760
17525,10791
17541,10819
17561,10844
17586,10864
17614,10879
17645,10888
17677,10892
17690,10892
17690,11899
16638,12951
16600,12931
16524,12907
16464,12902
16424,12902
16365,12907
16289,12931
16251,12951
15851,12550
15847,12546
15829,12531
15809,12521
15788,12514
15771,12512
15771,12512
15765,12512
15760,12512
13234,12512
13234,12500
13231,12468
13222,12437
13207,12409
13186,12384
13161,12363
13133,12348
13102,12339
13070,12336
12716,12336
12684,12339
12653,12348
12625,12363
12600,12384
12580,12409
12565,12437
12555,12468
12552,12500
12552,12512
11659,12512
11659,12500
11656,12468
11647,12437
11632,12409
11611,12384
11587,12363
11558,12348
11528,12339
11496,12336
11141,12336
11109,12339
11079,12348
11050,12363
11025,12384
11005,12409
10990,12437
10981,12468
10977,12500
10831,12500
10831,11929
10831,11928
10831,11927
10830,11926
10830,11925
10829,11924
10828,11924
10827,11924
10826,11924
1215,11924
1215,11832
1215,11830
1215,11823
1213,11817
1210,11811
1205,11806
1200,11801
1194,11798
1187,11796
1182,11796
1181,11795
1179,11796
231,11796
231,11692
2097,11692
2101,11733
2112,11771
2131,11807
2157,11838
2188,11864
2224,11883
2262,11894
2303,11898
2511,11897
2562,11846
2562,11433
2752,11433
2752,11846
2803,11897
3011,11898
3051,11894
3090,11883
3126,11864
3157,11838
3183,11807
3202,11771
3213,11733
3217,11692
3216,11484
3165,11433
2752,11433
2562,11433
2149,11433
2098,11484
2097,11692
231,11692
231,10984
2097,10984
2098,11192
2149,11243
2562,11243
2562,10830
2752,10830
2752,11243
3165,11243
3216,11192
3217,10984
3213,10944
3202,10905
3183,10869
3157,10838
3126,10812
3090,10793
3051,10782
3011,10778
2803,10779
2752,10830
2562,10830
2511,10779
2303,10778
2262,10782
2224,10793
2188,10812
2157,10838
2131,10869
2112,10905
2101,10944
2097,10984
231,10984
231,10297
2238,10297
2238,10379
2254,10460
2285,10537
2331,10605
2390,10664
2458,10710
2535,10741
2616,10757
2698,10757
2779,10741
2856,10710
2924,10664
2983,10605
3029,10537
3060,10460
3062,10453
10054,10453
11131,11530
11109,11532
11079,11541
11050,11556
11025,11577
11005,11601
10990,11630
10981,11660
10977,11692
10977,11948
10981,11980
10990,12011
11005,12039
11025,12064
11050,12084
11079,12100
11109,12109
11141,12112
11496,12112
11528,12109
11558,12100
11587,12084
11611,12064
11632,12039
11647,12011
11656,11980
11659,11948
11659,11692
11656,11660
11647,11630
11632,11601
11611,11577
11587,11556
11558,11541
11528,11532
11496,11529
11431,11529
11425,11510
11414,11490
11404,11477
11404,11477
11400,11473
11396,11469
10187,10261
10184,10256
10166,10242
10146,10231
10124,10225
10108,10223
10108,10223
10102,10223
10096,10223
3062,10223
3060,10216
3029,10139
2983,10071
2924,10012
2856,9966
2779,9935
2698,9919
2616,9919
2535,9935
2458,9966
2390,10012
2331,10071
2285,10139
2254,10216
2238,10297
231,10297
231,9896
1179,9896
1181,9897
1182,9896
1187,9896
1194,9894
1200,9891
1205,9886
1210,9881
1213,9875
1215,9869
1215,9862
1215,9860
1215,9444
10277,9444
10278,9464
10284,9483
10293,9500
10306,9515
10477,9686
10477,9750
10477,9750
10477,10310
10476,10316
10477,10322
10477,10322
10478,10339
10485,10360
10496,10380
10510,10398
10514,10401
12011,11898
12014,11902
12019,11906
12019,11906
12032,11916
12052,11927
12073,11934
12096,11936
12102,11935
12552,11935
12552,11948
12555,11980
12565,12011
12580,12039
12600,12064
12625,12084
12653,12100
12684,12109
12716,12112
13070,12112
13102,12109
13133,12100
13161,12084
13186,12064
13207,12039
13222,12011
13231,11980
13234,11948
13234,11692
13231,11660
13227,11649
13364,11512
13369,11508
13383,11491
13394,11471
13400,11449
13402,11432
13402,11432
13402,11427
13402,11421
13402,10429
14600,10429
14600,10712
14601,10732
14607,10751
14617,10768
14629,10783
14644,10796
14662,10805
14681,10811
14700,10813
15023,10813
15043,10811
15062,10805
15079,10796
15094,10783
15107,10768
15116,10751
15122,10732
15124,10712
15124,10535
15229,10535
15229,10724
15231,10741
15236,10758
15244,10773
15256,10787
15269,10798
15284,10806
15301,10811
15318,10813
15586,10813
15603,10811
15620,10806
15636,10798
15645,10790
15656,10826
15675,10862
15700,10893
15732,10919
15767,10938
15806,10950
15846,10954
15897,10953
15948,10901
15948,10665
16138,10665
16138,10901
16189,10953
16240,10954
16280,10950
16318,10938
16354,10919
16385,10893
16411,10862
16430,10826
16442,10788
16446,10748
16445,10717
16393,10665
16138,10665
15948,10665
15940,10665
15940,10475
15948,10475
15948,10239
16138,10239
16138,10475
16393,10475
16445,10424
16446,10393
16442,10353
16430,10314
16411,10279
16385,10248
16354,10222
16318,10203
16280,10191
16240,10187
16189,10188
16138,10239
15948,10239
15897,10188
15846,10187
15806,10191
15767,10203
15732,10222
15700,10248
15675,10279
15656,10314
15644,10353
15640,10393
15641,10424
15692,10475
15652,10475
15649,10472
15636,10461
15620,10453
15603,10448
15586,10446
15318,10446
15301,10448
15284,10453
15269,10461
15256,10472
15244,10486
15236,10501
15231,10518
15229,10535
15124,10535
15124,10429
15122,10409
15116,10390
15107,10373
15094,10357
15079,10345
15062,10336
15043,10330
15023,10328
14700,10328
14681,10330
14662,10336
14644,10345
14629,10357
14617,10373
14607,10390
14601,10409
14600,10429
13402,10429
13402,8568
13402,8562
13400,8540
13394,8518
13383,8498
13372,8485
13372,8485
13369,8481
13364,8477
12959,8071
12959,7830
12957,7811
12951,7792
12942,7774
12929,7759
12914,7746
12896,7737
12877,7731
12858,7729
12574,7729
12555,7731
12536,7737
12518,7746
12503,7759
12491,7774
12481,7792
12475,7811
12474,7830
12474,8153
12475,8173
12481,8192
12491,8209
12503,8224
12518,8237
12536,8246
12555,8252
12574,8254
12816,8254
13172,8610
13172,11379
13061,11490
13022,11529
12716,11529
12684,11532
12653,11541
12625,11556
12600,11577
12580,11601
12565,11630
12555,11660
12552,11692
12552,11705
12144,11705
11033,10594
11260,10594
11260,10667
11295,10703
11326,10729
11362,10748
11401,10760
11441,10764
11481,10760
11520,10748
11555,10729
11586,10703
11608,10681
11608,10608
11427,10428
11260,10594
11033,10594
10707,10268
10707,9890
10717,9890
10719,9907
10724,9924
10732,9939
10743,9952
10932,10142
10946,10153
10961,10161
10978,10166
10990,10167
10972,10200
10960,10239
10956,10279
10960,10319
10972,10358
10991,10394
11017,10425
11053,10460
11126,10460
11292,10293
11561,10293
11742,10474
11814,10474
11837,10453
11863,10422
11882,10386
11893,10347
11897,10307
11893,10267
11882,10228
11863,10193
11837,10161
11800,10126
11728,10126
11561,10293
11292,10293
11287,10288
11421,10153
11427,10159
11594,9992
11594,9920
11559,9883
11527,9857
11492,9838
11453,9827
11413,9823
11373,9827
11334,9838
11298,9857
11267,9883
11246,9906
11246,9978
11217,9949
11218,9945
11216,9928
11211,9911
11203,9896
11192,9882
11002,9693
10989,9682
10974,9674
10957,9669
10940,9667
10922,9669
10906,9674
10890,9682
10877,9693
10743,9827
10732,9840
10724,9856
10719,9872
10717,9890
10707,9890
10707,9714
10877,9543
10890,9528
10899,9511
10905,9492
10907,9472
10905,9452
10899,9433
10890,9416
10877,9401
10649,9172
10634,9160
10616,9151
10597,9145
10578,9143
10558,9145
10539,9151
10522,9160
10506,9172
10306,9373
10293,9388
10284,9406
10278,9424
10277,9444
1215,9444
1215,8912
3147,8912
3149,8912
3151,8912
3156,8912
3162,8910
3168,8906
3174,8902
3178,8897
3181,8891
3183,8884
3184,8877
3184,8876
3184,7928
7051,7928
7051,8384
7051,8384
7051,8876
7051,8877
7052,8884
7054,8891
7057,8897
7061,8902
7067,8906
7073,8910
7079,8912
7084,8912
7086,8912
7088,8912
10037,8912
10039,8912
10041,8912
10046,8912
10052,8910
10058,8906
10064,8902
10068,8897
10071,8891
10073,8884
10074,8877
10074,8876
10074,5925
11010,5925
11022,8901
11022,8902
11022,8903
11023,8904
11024,8905
11024,8905
11025,8906
11026,8906
11027,8906
11994,8906
11991,9881
11991,9882
11991,9883
11991,9884
11992,9885
11993,9886
11994,9886
11995,9886
11996,9886
13007,9886
13008,9886
13009,9886
13010,9886
13011,9885
13012,9884
13012,9883
13012,9882
13012,9881
13012,8877
13012,8876
13012,8876
13012,8875
13011,8874
13010,8873
13009,8873
13008,8873
13007,8872
12028,8872
12028,7007
12333,7007
12337,7048
12349,7086
12368,7122
12393,7153
12424,7179
12460,7198
12499,7209
12539,7213
12570,7212
12621,7161
12621,7202
12618,7204
12607,7218
12598,7233
12593,7250
12592,7267
12592,7535
12593,7552
12598,7569
12607,7584
12618,7598
12631,7609
12647,7617
12663,7622
12681,7624
12870,7624
12887,7622
12904,7617
12919,7609
12932,7598
12944,7584
12952,7569
12957,7552
12959,7535
12959,7267
12957,7250
12952,7233
12944,7218
12936,7209
12972,7198
13008,7179
13039,7153
13064,7122
13084,7086
13095,7048
13099,7007
13098,6957
13047,6906
12811,6906
12811,6913
12621,6913
12621,6906
12385,6906
12334,6957
12333,7007
12028,7007
12028,6614
12333,6614
12334,6664
12385,6716
12621,6716
12621,6460
12811,6460
12811,6716
13047,6716
13098,6664
13099,6614
13095,6573
13084,6535
13064,6499
13039,6468
13008,6442
12972,6423
12933,6412
12893,6408
12862,6409
12811,6460
12621,6460
12570,6409
12539,6408
12499,6412
12460,6423
12424,6442
12393,6468
12368,6499
12349,6535
12337,6573
12333,6614
12028,6614
12028,5925
13975,5925
13975,6933
13975,6934
13975,6934
13976,6935
13976,6936
13977,6937
13978,6937
13979,6937
13980,6938
15943,6941
15943,8872
13980,8872
13979,8873
13978,8873
13977,8873
13976,8874
13976,8875
13975,8876
13975,8876
13975,8877
13975,9885
13975,9886
13975,9887
13976,9888
13976,9889
13977,9889
13978,9890
13979,9890
13980,9890
16940,9890
16941,9890
16942,9890
16943,9889
16944,9889
16945,9888
16945,9887
16945,9886
16945,9885
16945,8906
17921,8906
17922,8906
17923,8906
17924,8905
17924,8905
17925,8904
17925,8903
17926,8902
17926,8901
17926,6921
17995,6990
17995,7966
17994,7972
17996,7994
18003,8016
18014,8036
18014,8036
18028,8054
18032,8057
18379,8404
18379,8645
18381,8665
18387,8684
18396,8701
18409,8716
18424,8729
18441,8738
18460,8744
18480,8746
18497,8746
18497,10210
18484,10210
18452,10213
18421,10222
18393,10237
18368,10258
18348,10283
18332,10311
18323,10342
18320,10374
18320,10728
18323,10760
18332,10791
18348,10819
18368,10844
18393,10864
18421,10879
18452,10888
18484,10892
18740,10892
18772,10888
18802,10879
18831,10864
18855,10844
18876,10819
18891,10791
18900,10760
18903,10728
18903,10374
18900,10342
18891,10311
18876,10283
18855,10258
18831,10237
18802,10222
18772,10213
18740,10210
18727,10210
18727,8746
18763,8746
18783,8744
18802,8738
18819,8729
18835,8716
18847,8701
18856,8684
18862,8665
18864,8645
18864,8322
18862,8303
18856,8284
18847,8266
18835,8251
18819,8239
18802,8229
18783,8224
18763,8222
18522,8222
18225,7924
18225,7500
18238,7500
18242,7540
18254,7578
18273,7614
18299,7645
18330,7671
18366,7690
18404,7702
18444,7705
18475,7705
18527,7653
18527,7694
18523,7696
18512,7710
18504,7725
18499,7742
18497,7759
18497,8027
18499,8044
18504,8061
18512,8076
18523,8090
18537,8101
18552,8109
18569,8114
18586,8116
18775,8116
18792,8114
18809,8109
18825,8101
18838,8090
18849,8076
18857,8061
18862,8044
18864,8027
18864,7759
18862,7742
18857,7725
18849,7710
18841,7701
18878,7690
18913,7671
18944,7645
18970,7614
18989,7578
19001,7540
19005,7500
19004,7449
18952,7398
18717,7398
18717,7406
18527,7406
18527,7398
18291,7398
18239,7449
18238,7500
18225,7500
18225,7106
18238,7106
18239,7156
18291,7208
18527,7208
18527,6952
18717,6952
18717,7208
18952,7208
19004,7156
19005,7106
19001,7066
18989,7027
18970,6991
18944,6960
18913,6935
18878,6915
18839,6904
18799,6900
18768,6901
18717,6952
18527,6952
18475,6901
18444,6900
18404,6904
18366,6915
18330,6935
18299,6960
18273,6991
18254,7027
18242,7066
18238,7106
18225,7106
18225,6948
18225,6942
18225,6937
18225,6937
18223,6920
18216,6898
18206,6878
18191,6861
18187,6857
17965,6635
17961,6630
17944,6616
17924,6605
17902,6599
17885,6597
17885,6597
17879,6597
17874,6597
17240,6597
17240,5873
17241,5867
17240,5862
17240,5862
17239,5845
17232,5823
17222,5803
17211,5790
17211,5790
17207,5786
17203,5782
17071,5651
17068,5646
17050,5632
17030,5621
17009,5615
16992,5613
16992,5613
16986,5612
16980,5613
16189,5613
16158,5582
16158,5459
16204,5459
16224,5457
16243,5451
16260,5442
16275,5429
16288,5414
16297,5396
16303,5377
16305,5358
16305,5074
16303,5055
16297,5036
16288,5018
16275,5003
16260,4991
16243,4981
16224,4975
16204,4974
15881,4974
15862,4975
15843,4981
15825,4991
15810,5003
15798,5018
15788,5036
15783,5055
15781,5074
15781,5358
15783,5377
15788,5396
15798,5414
15810,5429
15825,5442
15843,5451
15862,5457
15881,5459
15928,5459
15928,5624
15927,5629
15929,5652
15936,5674
15947,5694
15947,5694
15961,5711
15965,5715
16056,5805
16060,5810
16077,5824
16097,5835
16119,5841
16136,5843
16136,5843
16141,5843
16147,5843
16938,5843
17010,5915
17010,6706
17010,6712
17012,6735
17019,6756
17029,6776
17044,6794
17061,6808
17081,6819
17103,6825
17120,6827
17125,6828
17131,6827
17832,6827
17909,6904
16945,6904
16945,5925
16945,5924
16945,5923
16945,5922
16944,5921
16943,5921
16942,5920
16941,5920
16940,5920
13980,5920
13979,5920
13978,5920
13977,5921
13976,5921
13976,5922
13975,5923
13975,5924
13975,5925
12028,5925
12028,5924
12028,5923
12027,5922
12027,5921
12026,5921
12025,5920
12024,5920
12023,5920
11015,5920
11014,5920
11013,5920
11012,5921
11012,5921
11011,5922
11011,5923
11010,5924
11010,5925
10074,5925
10074,5393
14459,5393
14463,5433
14475,5472
14494,5508
14519,5539
14550,5564
14586,5584
14625,5595
14665,5599
14715,5598
14767,5547
14767,5311
14511,5311
14460,5362
14459,5393
10074,5393
10074,5039
14459,5039
14460,5070
14511,5121
14767,5121
14767,4885
14957,4885
14957,5121
14965,5121
14965,5311
14957,5311
14957,5547
15008,5598
15059,5599
15099,5595
15137,5584
15173,5564
15204,5539
15230,5508
15249,5472
15261,5433
15265,5393
15264,5362
15212,5311
15253,5311
15256,5314
15269,5325
15284,5334
15301,5339
15318,5340
15586,5340
15603,5339
15620,5334
15636,5325
15649,5314
15660,5301
15668,5286
15673,5269
15675,5251
15675,5062
15673,5045
15668,5028
15660,5013
15649,5000
15636,4989
15620,4980
15603,4975
15586,4974
15318,4974
15301,4975
15284,4980
15269,4989
15260,4996
15249,4960
15230,4924
15204,4893
15173,4868
15137,4849
15099,4837
15059,4833
15008,4834
14957,4885
14767,4885
14715,4834
14665,4833
14625,4837
14586,4849
14550,4868
14519,4893
14494,4924
14475,4960
14463,4999
14459,5039
10074,5039
10074,4650
16530,4650
16530,5531
Z" /> 
</g>
</g>
<g style="fill:#FFFFFF; fill-opacity:1.0; 
stroke:#FFFFFF; stroke-width:10; stroke-opacity:1; 
stroke-linecap:round; stroke-linejoin:round;">
</g>
<g style="fill:#FFFFFF; fill-opacity:1.0; 
stroke:#FFFFFF; stroke-width:0; stroke-opacity:1; 
stroke-linecap:round; stroke-linejoin:round;">
<circle cx="18444.9" cy="13307.1" r="200" /> 
</g>
<g style="fill:#FFFFFF; fill-opacity:1.0; 
stroke:#FFFFFF; stroke-width:39.3701; stroke-opacity:1; 
stroke-linecap:round; stroke-linejoin:round;">
</g>
<g style="fill:#FFFFFF; fill-opacity:1.0; 
stroke:#FFFFFF; stroke-width:0; stroke-opacity:1; 
stroke-linecap:round; stroke-linejoin:round;">
<circle cx="18444.9" cy="14307.1" r="200" /> 
</g>
<g style="fill:#FFFFFF; fill-opacity:1.0; 
stroke:#FFFFFF; stroke-width:39.3701; stroke-opacity:1; 
stroke-linecap:round; stroke-linejoin:round;">
</g>
<g style="fill:#FFFFFF; fill-opacity:1.0; 
stroke:#FFFFFF; stroke-width:0; stroke-opacity:1; 
stroke-linecap:round; stroke-linejoin:round;">
<circle cx="17444.9" cy="13307.1" r="200" /> 
</g>
<g style="fill:#FFFFFF; fill-opacity:1.0; 
stroke:#FFFFFF; stroke-width:39.3701; stroke-opacity:1; 
stroke-linecap:round; stroke-linejoin:round;">
</g>
<g style="fill:#FFFFFF; fill-opacity:1.0; 
stroke:#FFFFFF; stroke-width:0; stroke-opacity:1; 
stroke-linecap:round; stroke-linejoin:round;">
<circle cx="17444.9" cy="14307.1" r="200" /> 
</g>
<g style="fill:#FFFFFF; fill-opacity:1.0; 
stroke:#FFFFFF; stroke-width:39.3701; stroke-opacity:1; 
stroke-linecap:round; stroke-linejoin:round;">
</g>
<g style="fill:#FFFFFF; fill-opacity:1.0; 
stroke:#FFFFFF; stroke-width:0; stroke-opacity:1; 
stroke-linecap:round; stroke-linejoin:round;">
<circle cx="16444.9" cy="13307.1" r="200" /> 
</g>
<g style="fill:#FFFFFF; fill-opacity:1.0; 
stroke:#FFFFFF; stroke-width:39.3701; stroke-opacity:1; 
stroke-linecap:round; stroke-linejoin:round;">
</g>
<g style="fill:#FFFFFF; fill-opacity:1.0; 
stroke:#FFFFFF; stroke-width:0; stroke-opacity:1; 
stroke-linecap:round; stroke-linejoin:round;">
<circle cx="16444.9" cy="14307.1" r="200" /> 
</g>
<g style="fill:#FFFFFF; fill-opacity:1.0; 
stroke:#FFFFFF; stroke-width:39.3701; stroke-opacity:1; 
stroke-linecap:round; stroke-linejoin:round;">
</g>
<g style="fill:#FFFFFF; fill-opacity:1.0; 
stroke:#FFFFFF; stroke-width:0; stroke-opacity:1; 
stroke-linecap:round; stroke-linejoin:round;">
<circle cx="2657.48" cy="11338.6" r="177.165" /> 
</g>
<g style="fill:#FFFFFF; fill-opacity:1.0; 
stroke:#FFFFFF; stroke-width:39.3701; stroke-opacity:1; 
stroke-linecap:round; stroke-linejoin:round;">
</g>
<g style="fill:#FFFFFF; fill-opacity:1.0; 
stroke:#FFFFFF; stroke-width:0; stroke-opacity:1; 
stroke-linecap:round; stroke-linejoin:round;">
<circle cx="2657.48" cy="10338.6" r="177.165" /> 
</g>
<g style="fill:#FFFFFF; fill-opacity:1.0; 
stroke:#FFFFFF; stroke-width:39.3701; stroke-opacity:1; 
stroke-linecap:round; stroke-linejoin:round;">
</g>
<g style="fill:#000000; fill-opacity:1.0; 
stroke:#000000; stroke-width:39.3701; stroke-opacity:1; 
stroke-linecap:round; stroke-linejoin:round;">
</g> 
</svg>
