<?xml version="1.0" encoding="UTF-8" standalone="no"?>
<!-- Created with Inkscape (http://www.inkscape.org/) -->

<svg
   xmlns:dc="http://purl.org/dc/elements/1.1/"
   xmlns:cc="http://creativecommons.org/ns#"
   xmlns:rdf="http://www.w3.org/1999/02/22-rdf-syntax-ns#"
   xmlns:svg="http://www.w3.org/2000/svg"
   xmlns="http://www.w3.org/2000/svg"
   xmlns:sodipodi="http://sodipodi.sourceforge.net/DTD/sodipodi-0.dtd"
   xmlns:inkscape="http://www.inkscape.org/namespaces/inkscape"
   version="1.1"
   id="svg3226"
   width="40mm"
   height="40mm"
   viewBox="0 0 40 40.000001"
   sodipodi:docname="password_recolored.svg"
   inkscape:version="0.92.4 5da689c313, 2019-01-14">
  <metadata
     id="metadata3232">
    <rdf:RDF>
      <cc:Work
         rdf:about="">
        <dc:format>image/svg+xml</dc:format>
        <dc:type
           rdf:resource="http://purl.org/dc/dcmitype/StillImage" />
        <dc:title></dc:title>
      </cc:Work>
    </rdf:RDF>
  </metadata>
  <defs
     id="defs3230" />
  <sodipodi:namedview
     pagecolor="#ffffff"
     bordercolor="#666666"
     borderopacity="1"
     objecttolerance="10"
     gridtolerance="10"
     guidetolerance="10"
     inkscape:pageopacity="0"
     inkscape:pageshadow="2"
     inkscape:window-width="1920"
     inkscape:window-height="1146"
     id="namedview3228"
     showgrid="true"
     inkscape:zoom="64"
     inkscape:cx="99.742754"
     inkscape:cy="72.310955"
     inkscape:window-x="0"
     inkscape:window-y="25"
     inkscape:window-maximized="1"
     inkscape:current-layer="g3327"
     borderlayer="true"
     inkscape:document-units="mm">
    <inkscape:grid
       id="grid3309"
       units="mm"
       type="xygrid"
       empspacing="1"
       spacingy="2.54"
       spacingx="2.54" />
  </sodipodi:namedview>
  <g
     id="g3319"
     sodipodi:insensitive="true"
     inkscape:groupmode="layer"
     inkscape:label="[fixed] BG"
     transform="translate(0,14.6)">
    <rect
       id="rect3317"
       style="fill:#ffffff;fill-opacity:1;stroke:none"
       height="25.4"
       width="25.4"
       y="0"
       x="0" />
  </g>
  <g
     id="g3321"
     inkscape:groupmode="layer"
     inkscape:label="Edge.Cuts"
     transform="translate(0,14.6)" />
  <g
     id="g3323"
     inkscape:groupmode="layer"
     inkscape:label="B.Cu-disabled"
     transform="translate(0,14.6)" />
  <g
     id="g3325"
     inkscape:groupmode="layer"
     inkscape:label="B.Mask-disabled"
     transform="translate(0,14.6)" />
  <g
     id="g3327"
     inkscape:groupmode="layer"
     inkscape:label="B.Silk"
     transform="translate(0,14.6)">
    <g
       id="g3238"
       transform="matrix(0.15943877,0,0,0.15943877,0.42806172,-3.3359179)">
      <path
         style="fill:#b1fe53;stroke-width:0.31999999"
         d="m 70.479999,55.360004 v -52.48 H 122.96 175.44 v 52.48 V 107.84 H 122.96 70.479999 Z m 20.48,40.96 v -8.96 h -8.96 -8.96 v 8.96 8.959996 h 8.96 8.96 z m 20.480001,0 v -8.96 h -8.96 -8.960001 v 8.96 V 105.28 H 102.48 111.44 Z M 99.919999,100.8 v -0.64 h -0.64 -0.64 v -0.639996 -0.64 h -0.64 -0.64 v -2.56 -2.56 h 0.64 0.64 v -0.64 -0.64 h 0.64 0.64 v -0.64 -0.64 h 2.560001 2.56 v 0.64 0.64 h 0.64 0.64 v 0.64 0.64 h 0.64 0.64 v 2.56 2.56 h -0.64 -0.64 v 0.64 0.639996 h -0.64 -0.64 v 0.64 0.64 h -2.56 -2.560001 z M 131.92,96.320004 v -8.96 H 122.96 114 v 8.96 8.959996 h 8.96 8.96 z m 20.48,0 v -8.96 h -8.96 -8.96 v 8.96 8.959996 h 8.96 8.96 z m 20.48,0 v -8.96 h -8.96 -8.96 v 8.96 8.959996 h 8.96 8.96 z m -81.920001,-20.48 v -8.96 h -8.96 -8.96 v 8.96 8.96 h 8.96 8.96 z m 20.480001,0 v -8.96 h -8.96 -8.960001 v 8.96 8.96 h 8.960001 8.96 z m 20.48,0 v -8.96 H 122.96 114 v 8.96 8.96 h 8.96 8.96 z m 20.48,0 v -8.96 h -8.96 -8.96 v 8.96 8.96 h 8.96 8.96 z m -11.52,4.48 v -0.64 h -0.64 -0.64 v -0.64 -0.64 h -0.64 -0.64 v -2.56 -2.56 h 0.64 0.64 v -0.64 -0.64 h 0.64 0.64 v -0.64 -0.64 h 2.56 2.56 v 0.64 0.64 h 0.64 0.64 v 0.64 0.64 h 0.64 0.64 v 2.56 2.56 h -0.64 -0.64 v 0.64 0.64 H 146.64 146 v 0.64 0.64 h -2.56 -2.56 z m 32,-4.48 v -8.96 h -8.96 -8.96 v 8.96 8.96 h 8.96 8.96 z m -11.52,4.48 v -0.64 h -0.64 -0.64 v -0.64 -0.64 h -0.64 -0.64 v -2.56 -2.56 h 0.64 0.64 v -0.64 -0.64 h 0.64 0.64 v -0.64 -0.64 h 2.56 2.56 v 0.64 0.64 h 0.64 0.64 v 0.64 0.64 h 0.64 0.64 v 2.56 2.56 h -0.64 -0.64 v 0.64 0.64 h -0.64 -0.64 v 0.64 0.64 h -2.56 -2.56 z m -70.400001,-24.96 v -8.96 h -8.96 -8.96 v 8.96 8.96 h 8.96 8.96 z m -11.52,4.48 v -0.64 h -0.64 -0.64 v -0.64 -0.64 h -0.64 -0.64 v -2.56 -2.56 h 0.64 0.64 v -0.64 -0.64 h 0.64 0.64 v -0.64 -0.64 h 2.56 2.56 v 0.64 0.64 h 0.64 0.64 v 0.64 0.64 h 0.64 0.64 v 2.56 2.56 h -0.64 -0.64 v 0.64 0.64 h -0.64 -0.64 v 0.64 0.64 h -2.56 -2.56 z m 32.000001,-4.48 v -8.96 h -8.96 -8.960001 v 8.96 8.96 h 8.960001 8.96 z m 20.48,0 v -8.96 H 122.96 114 v 8.96 8.96 h 8.96 8.96 z m -11.52,4.48 v -0.64 h -0.64 -0.64 v -0.64 -0.64 h -0.64 -0.64 v -2.56 -2.56 h 0.64 0.64 v -0.64 -0.64 h 0.64 0.64 v -0.64 -0.64 h 2.56 2.56 v 0.64 0.64 h 0.64 0.64 v 0.64 0.64 h 0.64 0.64 v 2.56 2.56 h -0.64 -0.64 v 0.64 0.64 h -0.64 -0.64 v 0.64 0.64 h -2.56 -2.56 z m 32,-4.48 v -8.96 h -8.96 -8.96 v 8.96 8.96 h 8.96 8.96 z m 20.48,0 v -8.96 h -8.96 -8.96 v 8.96 8.96 h 8.96 8.96 z m -11.52,4.48 v -0.64 h -0.64 -0.64 v -0.64 -0.64 h -0.64 -0.64 v -2.56 -2.56 h 0.64 0.64 v -0.64 -0.64 h 0.64 0.64 v -0.64 -0.64 h 2.56 2.56 v 0.64 0.64 h 0.64 0.64 v 0.64 0.64 h 0.64 0.64 v 2.56 2.56 h -0.64 -0.64 v 0.64 0.64 h -0.64 -0.64 v 0.64 0.64 h -2.56 -2.56 z m -70.400001,-24.96 v -8.96 h -8.96 -8.96 v 8.96 8.96 h 8.96 8.96 z m 20.480001,0 v -8.96 h -8.96 -8.960001 v 8.96 8.96 h 8.960001 8.96 z m -11.520001,4.48 v -0.64 h -0.64 -0.64 v -0.64 -0.64 h -0.64 -0.64 v -2.56 -2.56 h 0.64 0.64 v -0.64 -0.64 h 0.64 0.64 v -0.64 -0.64 h 2.560001 2.56 v 0.64 0.64 h 0.64 0.64 v 0.64 0.64 h 0.64 0.64 v 2.56 2.56 h -0.64 -0.64 v 0.64 0.64 h -0.64 -0.64 v 0.64 0.64 h -2.56 -2.560001 z m 32.000001,-4.48 v -8.96 H 122.96 114 v 8.96 8.96 h 8.96 8.96 z m 20.48,0 v -8.96 h -8.96 -8.96 v 8.96 8.96 h 8.96 8.96 z m -11.52,4.48 v -0.64 h -0.64 -0.64 v -0.64 -0.64 h -0.64 -0.64 v -2.56 -2.56 h 0.64 0.64 v -0.64 -0.64 h 0.64 0.64 v -0.64 -0.64 h 2.56 2.56 v 0.64 0.64 h 0.64 0.64 v 0.64 0.64 h 0.64 0.64 v 2.56 2.56 h -0.64 -0.64 v 0.64 0.64 H 146.64 146 v 0.64 0.64 h -2.56 -2.56 z m 32,-4.48 v -8.96 h -8.96 -8.96 v 8.96 8.96 h 8.96 8.96 z m -81.920001,-20.48 v -8.96 h -8.96 -8.96 v 8.96 8.96 h 8.96 8.96 z m 20.480001,0 v -8.96 h -8.96 -8.960001 v 8.96 8.96 h 8.960001 8.96 z m 20.48,0 v -8.96 H 122.96 114 v 8.96 8.96 h 8.96 8.96 z m 20.48,0 v -8.96 h -8.96 -8.96 v 8.96 8.96 h 8.96 8.96 z m 20.48,0 v -8.96 h -8.96 -8.96 v 8.96 8.96 h 8.96 8.96 z m -11.52,4.48 v -0.64 h -0.64 -0.64 v -0.64 -0.64 h -0.64 -0.64 v -2.56 -2.56 h 0.64 0.64 v -0.64 -0.64 h 0.64 0.64 v -0.64 -0.64 h 2.56 2.56 v 0.64 0.64 h 0.64 0.64 v 0.64 0.64 h 0.64 0.64 v 2.56 2.56 h -0.64 -0.64 v 0.64 0.64 h -0.64 -0.64 v 0.64 0.64 h -2.56 -2.56 z m -111.360001,78.08 v -4.48 h 4.48 4.48 v 0.64 0.64 h -3.2 -3.2 v 1.28 1.28 h 2.56 2.56 v 0.64 0.64 h -2.56 -2.56 v 1.28 1.279996 h 3.2 3.2 v 0.64 0.64 h -4.48 -4.48 z m 0,-20.48 v -4.48 h 3.84 3.84 v 0.64 0.64 h 0.64 0.64 v 3.2 3.2 h -0.64 -0.64 v 0.64 0.64 h -3.84 -3.84 z m 6.4,0 v -3.2 h -1.92 -1.92 v 3.2 3.2 h 1.92 1.92 z m -5.12,-16.64 v -0.64 h -0.64 -0.64 v -3.2 -3.2 h 0.64 0.64 v -0.64 -0.64 h 3.2 3.2 v 0.64 0.64 h 0.64 0.64 v 0.64 0.64 h -1.28 -1.28 v -0.64 -0.64 h -1.92 -1.92 v 3.2 3.2 h 1.92 1.92 v -0.64 -0.64 h 1.28 1.28 v 0.64 0.64 h -0.64 -0.64 v 0.64 0.64 h -3.2 -3.2 z m -1.28,-24.32 v -4.48 h 3.84 3.84 v 0.64 0.64 h 0.64 0.64 v 1.28 1.28 h -0.64 -0.64 v 0.64 0.64 h 0.64 0.64 v 1.28 1.28 h -0.64 -0.64 v 0.64 0.64 h -3.84 -3.84 z m 6.4,1.92 v -1.28 h -1.92 -1.92 v 1.28 1.28 h 1.92 1.92 z m 0,-3.84 v -1.28 h -1.92 -1.92 v 1.28 1.28 h 1.92 1.92 z m -6.4,-17.92 v -3.84 h 0.64 0.64 v -0.64 -0.64 h 3.2 3.2 v 0.64 0.64 h 0.64 0.64 v 3.84 3.84 h -1.28 -1.28 v -1.28 -1.28 h -1.92 -1.92 v 1.28 1.28 h -1.28 -1.28 z m 6.4,-1.92 v -1.92 h -1.92 -1.92 v 1.92 1.92 h 1.92 1.92 z m 21.76,-24.32 v -3.2 h -0.64 -0.64 v -0.64 -0.64 h 0.64 0.64 v -0.64 -0.64 h 1.92 1.92 v 4.48 4.48 h -1.92 -1.92 z m 17.92,1.92 v -1.28 h 0.64 0.64 v -0.64 -0.64 h 0.64 0.64 v -0.64 -0.64 h 1.920001 1.92 v -1.28 -1.28 h -1.92 -1.920001 v 0.64 0.64 h -1.28 -1.28 v -0.64 -0.64 h 0.64 0.64 v -0.64 -0.64 h 3.200001 3.2 v 0.64 0.64 h 0.64 0.64 v 1.28 1.28 h -0.64 -0.64 v 0.64 0.64 h -1.92 -1.920001 v 0.64 0.64 h -0.64 -0.64 v 0.64 0.64 h 3.200001 3.2 v 0.64 0.64 h -4.48 -4.480001 z m 21.760001,0.64 v -0.64 h -0.64 -0.64 v -0.64 -0.64 h 1.28 1.28 v 0.64 0.64 h 1.92 1.92 v -1.28 -1.28 h -1.92 -1.92 v -0.64 -0.64 h 1.92 1.92 v -1.28 -1.28 h -1.92 -1.92 v 0.64 0.64 h -1.28 -1.28 v -0.64 -0.64 h 0.64 0.64 v -0.64 -0.64 h 3.2 3.2 v 0.64 0.64 h 0.64 0.64 v 1.28 1.28 h -0.64 -0.64 v 0.64 0.64 h 0.64 0.64 v 1.28 1.28 h -0.64 -0.64 v 0.64 0.64 h -3.2 -3.2 z m 24.32,-0.64 v -1.28 h -2.56 -2.56 v -3.2 -3.2 h 1.28 1.28 v 2.56 2.56 h 1.28 1.28 v -2.56 -2.56 h 1.28 1.28 v 2.56 2.56 h 0.64 0.64 v 0.64 0.64 h -0.64 -0.64 v 1.28 1.28 h -1.28 -1.28 z m 16.64,0.64 v -0.64 h -0.64 -0.64 v -0.64 -0.64 h 1.28 1.28 v 0.64 0.64 h 1.92 1.92 v -1.92 -1.92 h -3.2 -3.2 v -1.92 -1.92 h 4.48 4.48 v 0.64 0.64 h -3.2 -3.2 v 0.64 0.64 h 2.56 2.56 v 0.64 0.64 h 0.64 0.64 v 1.92 1.92 h -0.64 -0.64 v 0.64 0.64 h -3.2 -3.2 z"
         id="path3246"
         inkscape:connector-curvature="0"
         sodipodi:nodetypes="ccccccccccccccccccccccccccccccccccccccccccccccccccccccccccccccccccccccccccccccccccccccccccccccccccccccccccccccccccccccccccccccccccccccccccccccccccccccccccccccccccccccccccccccccccccccccccccccccccccccccccccccccccccccccccccccccccccccccccccccccccccccccccccccccccccccccccccccccccccccccccccccccccccccccccccccccccccccccccccccccccccccccccccccccccccccccccccccccccccccccccccccccccccccccccccccccccccccccccccccccccccccccccccccccccccccccccccccccccccccccccccccccccccccccccccccccccccccccccccccccccccccccccccccccccccccccccccccccccccccccccccccccccccccccccccccccccccccccccccccccccccccccccccccccccccccccccccccccccccccccccccccccccccccccccccccccccccccccccccccccccccccccccccccccccccccccccccccccccccccccccccccccccccccccccccccccccccccccccccccccccccccccccccccccccccccccccccccccccccccccccccccccccccccccccccccccccccccccccccccccccccccccccccccccccccccccccccccccccccccccccccccccccccccccccccccccccccccccccccccccccccccccccccccccccccccccccccccccccccccccccccccccccccccccccccccccccccacccaccccaccccccccccc" />
      <path
         style="fill:#3bbbfb;stroke-width:0.31999999"
         d="m 70.479999,107.2 v -0.64 H 122.32 174.16 v -51.839996 -51.84 h 0.64 0.64 v 52.48 V 107.84 H 122.96 70.479999 Z m 1.28,-11.519996 v -9.6 h 9.6 9.6 v 0.64 0.64 h -8.96 -8.96 v 8.96 8.959996 h -0.64 -0.64 z m 20.48,0 v -9.6 h 9.600001 9.6 v 0.64 0.64 h -8.96 -8.960001 v 8.96 8.959996 h -0.64 -0.64 z m 20.480001,0 v -9.6 h 9.6 9.6 v 0.64 0.64 H 122.96 114 v 8.96 8.959996 h -0.64 -0.64 z m 20.48,0 v -9.6 h 9.6 9.6 v 0.64 0.64 h -8.96 -8.96 v 8.96 8.959996 h -0.64 -0.64 z m 20.48,0 v -9.6 h 9.6 9.6 v 0.64 0.64 h -8.96 -8.96 v 8.96 8.959996 h -0.64 -0.64 z M 99.919999,100.8 v -0.64 h -0.64 -0.64 v -0.639996 -0.64 h -0.64 -0.64 v -2.56 -2.56 h 0.64 0.64 v -0.64 -0.64 h 0.64 0.64 v -0.64 -0.64 h 2.560001 2.56 v 0.64 0.64 h 0.64 0.64 v 0.64 0.64 h 0.64 0.64 v 2.56 2.56 h -0.64 -0.64 v 0.64 0.639996 h -0.64 -0.64 v 0.64 0.64 h -2.56 -2.560001 z M 101.2,95.680004 v -0.64 h 0.64 0.64 v -1.28 -1.28 h -1.28 -1.280001 v 0.64 0.64 h -0.64 -0.64 v 1.28 1.28 h 1.28 H 101.2 Z m -29.440001,-20.48 v -9.6 h 9.6 9.6 v 0.64 0.64 h -8.96 -8.96 v 8.96 8.96 h -0.64 -0.64 z m 20.48,0 v -9.6 h 9.600001 9.6 v 0.64 0.64 h -8.96 -8.960001 v 8.96 8.96 h -0.64 -0.64 z m 20.480001,0 v -9.6 h 9.6 9.6 v 0.64 0.64 H 122.96 114 v 8.96 8.96 h -0.64 -0.64 z m 20.48,0 v -9.6 h 9.6 9.6 v 0.64 0.64 h -8.96 -8.96 v 8.96 8.96 h -0.64 -0.64 z m 20.48,0 v -9.6 h 9.6 9.6 v 0.64 0.64 h -8.96 -8.96 v 8.96 8.96 h -0.64 -0.64 z m -12.8,5.12 v -0.64 h -0.64 -0.64 v -0.64 -0.64 h -0.64 -0.64 v -2.56 -2.56 h 0.64 0.64 v -0.64 -0.64 h 0.64 0.64 v -0.64 -0.64 h 2.56 2.56 v 0.64 0.64 h 0.64 0.64 v 0.64 0.64 h 0.64 0.64 v 2.56 2.56 h -0.64 -0.64 v 0.64 0.64 H 146.64 146 v 0.64 0.64 h -2.56 -2.56 z m 1.28,-5.12 v -0.64 h 0.64 0.64 v -1.28 -1.28 h -1.28 -1.28 v 0.64 0.64 h -0.64 -0.64 v 1.28 1.28 h 1.28 1.28 z m 19.2,5.12 v -0.64 h -0.64 -0.64 v -0.64 -0.64 h -0.64 -0.64 v -2.56 -2.56 h 0.64 0.64 v -0.64 -0.64 h 0.64 0.64 v -0.64 -0.64 h 2.56 2.56 v 0.64 0.64 h 0.64 0.64 v 0.64 0.64 h 0.64 0.64 v 2.56 2.56 h -0.64 -0.64 v 0.64 0.64 h -0.64 -0.64 v 0.64 0.64 h -2.56 -2.56 z m 1.28,-5.12 v -0.64 h 0.64 0.64 v -1.28 -1.28 h -1.28 -1.28 v 0.64 0.64 h -0.64 -0.64 v 1.28 1.28 h 1.28 1.28 z m -90.880001,-20.48 v -9.6 h 9.6 9.6 v 0.64 0.64 h -8.96 -8.96 v 8.96 8.96 h -0.64 -0.64 z m 20.48,0 v -9.6 h 9.600001 9.6 v 0.64 0.64 h -8.96 -8.960001 v 8.96 8.96 h -0.64 -0.64 z m 20.480001,0 v -9.6 h 9.6 9.6 v 0.64 0.64 H 122.96 114 v 8.96 8.96 h -0.64 -0.64 z m 20.48,0 v -9.6 h 9.6 9.6 v 0.64 0.64 h -8.96 -8.96 v 8.96 8.96 h -0.64 -0.64 z m 20.48,0 v -9.6 h 9.6 9.6 v 0.64 0.64 h -8.96 -8.96 v 8.96 8.96 h -0.64 -0.64 z m -74.240001,5.12 v -0.64 h -0.64 -0.64 v -0.64 -0.64 h -0.64 -0.64 v -2.56 -2.56 h 0.64 0.64 v -0.64 -0.64 h 0.64 0.64 v -0.64 -0.64 h 2.56 2.56 v 0.64 0.64 h 0.64 0.64 v 0.64 0.64 h 0.64 0.64 v 2.56 2.56 h -0.64 -0.64 v 0.64 0.64 h -0.64 -0.64 v 0.64 0.64 h -2.56 -2.56 z m 1.28,-5.12 v -0.64 h 0.64 0.64 v -1.28 -1.28 h -1.28 -1.28 v 0.64 0.64 h -0.64 -0.64 v 1.28 1.28 h 1.28 1.28 z m 39.680001,5.12 v -0.64 h -0.64 -0.64 v -0.64 -0.64 h -0.64 -0.64 v -2.56 -2.56 h 0.64 0.64 v -0.64 -0.64 h 0.64 0.64 v -0.64 -0.64 h 2.56 2.56 v 0.64 0.64 h 0.64 0.64 v 0.64 0.64 h 0.64 0.64 v 2.56 2.56 h -0.64 -0.64 v 0.64 0.64 h -0.64 -0.64 v 0.64 0.64 h -2.56 -2.56 z m 1.28,-5.12 v -0.64 h 0.64 0.64 v -1.28 -1.28 h -1.28 -1.28 v 0.64 0.64 h -0.64 -0.64 v 1.28 1.28 h 1.28 1.28 z m 39.68,5.12 v -0.64 h -0.64 -0.64 v -0.64 -0.64 h -0.64 -0.64 v -2.56 -2.56 h 0.64 0.64 v -0.64 -0.64 h 0.64 0.64 v -0.64 -0.64 h 2.56 2.56 v 0.64 0.64 h 0.64 0.64 v 0.64 0.64 h 0.64 0.64 v 2.56 2.56 h -0.64 -0.64 v 0.64 0.64 h -0.64 -0.64 v 0.64 0.64 h -2.56 -2.56 z m 1.28,-5.12 v -0.64 h 0.64 0.64 v -1.28 -1.28 h -1.28 -1.28 v 0.64 0.64 h -0.64 -0.64 v 1.28 1.28 h 1.28 1.28 z m -90.880001,-20.48 v -9.6 h 9.6 9.6 v 0.64 0.64 h -8.96 -8.96 v 8.96 8.96 h -0.64 -0.64 z m 20.48,0 v -2.4 -2.4 -2.4 -2.4 h 2.4 2.4 2.4 2.400001 0.6 0.6 0.6 0.6 0.6 0.6 0.6 0.6 0.6 0.6 0.6 0.6 0.6 0.6 0.6 0.6 v 0.16 0.16 0.16 0.16 0.16 0.16 0.16 0.16 h -2.24 -2.24 -2.24 -2.24 -2.24 -2.240001 -2.24 -2.24 v 2.24 2.24 2.24 2.24 2.24 2.24 2.24 2.24 h -0.16 -0.16 -0.16 -0.16 -0.16 -0.16 -0.16 -0.16 v -2.4 -2.4 -2.4 z m 20.480001,0 v -9.6 h 9.6 9.6 v 0.64 0.64 H 122.96 114 v 8.96 8.96 h -0.64 -0.64 z m 20.48,0 v -9.6 h 9.6 9.6 v 0.64 0.64 h -8.96 -8.96 v 8.96 8.96 h -0.64 -0.64 z m 20.48,0 v -9.6 h 9.6 9.6 v 0.64 0.64 h -8.96 -8.96 v 8.96 8.96 h -0.64 -0.64 z m -53.760001,5.12 v -0.64 h -0.64 -0.64 v -0.64 -0.64 h -0.64 -0.64 v -2.56 -2.56 h 0.64 0.64 v -0.64 -0.64 h 0.64 0.64 v -0.64 -0.64 h 2.560001 2.56 v 0.64 0.64 h 0.64 0.64 v 0.64 0.64 h 0.64 0.64 v 2.56 2.56 h -0.64 -0.64 v 0.64 0.64 h -0.64 -0.64 v 0.64 0.64 h -2.56 -2.560001 z m 1.280001,-5.12 v -0.64 h 0.64 0.64 v -1.28 -1.28 h -1.28 -1.280001 v 0.64 0.64 h -0.64 -0.64 v 1.28 1.28 h 1.28 H 101.2 Z m 39.68,5.12 v -0.64 h -0.64 -0.64 v -0.64 -0.64 h -0.64 -0.64 v -2.56 -2.56 h 0.64 0.64 v -0.64 -0.64 h 0.64 0.64 v -0.64 -0.64 h 2.56 2.56 v 0.64 0.64 h 0.64 0.64 v 0.64 0.64 h 0.64 0.64 v 2.56 2.56 h -0.64 -0.64 v 0.64 0.64 H 146.64 146 v 0.64 0.64 h -2.56 -2.56 z m 1.28,-5.12 v -0.64 h 0.64 0.64 v -1.28 -1.28 h -1.28 -1.28 v 0.64 0.64 h -0.64 -0.64 v 1.28 1.28 h 1.28 1.28 z m -70.400001,-20.48 v -9.6 h 9.6 9.6 v 0.64 0.64 h -8.96 -8.96 v 8.96 8.96 h -0.64 -0.64 z m 20.48,0 v -9.6 h 9.600001 9.6 v 0.64 0.64 h -8.96 -8.960001 v 8.96 8.96 h -0.64 -0.64 z m 20.480001,0 v -9.6 h 9.6 9.6 v 0.64 0.64 H 122.96 114 v 8.96 8.96 h -0.64 -0.64 z m 20.48,0 v -9.6 h 9.6 9.6 v 0.64 0.64 h -8.96 -8.96 v 8.96 8.96 h -0.64 -0.64 z m 20.48,0 v -9.6 h 9.6 9.6 v 0.64 0.64 h -8.96 -8.96 v 8.96 8.96 h -0.64 -0.64 z m 7.68,5.12 v -0.64 h -0.64 -0.64 v -0.64 -0.64 h -0.64 -0.64 v -2.56 -2.56 h 0.64 0.64 v -0.64 -0.64 h 0.64 0.64 v -0.64 -0.64 h 2.56 2.56 v 0.64 0.64 h 0.64 0.64 v 0.64 0.64 h 0.64 0.64 v 2.56 2.56 h -0.64 -0.64 v 0.64 0.64 h -0.64 -0.64 v 0.64 0.64 h -2.56 -2.56 z m 1.28,-5.12 v -0.64 h 0.64 0.64 v -1.28 -1.28 h -1.28 -1.28 v 0.64 0.64 h -0.64 -0.64 v 1.28 1.28 h 1.28 1.28 z"
         id="path3244"
         inkscape:connector-curvature="0"
         sodipodi:nodetypes="cccccccccccccccccccccccccccccccccccccccccccccccccccccccccccccccccccccccccccccccccccccccccccccccccccccccccccccccccccccccccccccccccccccccccccccccccccccccccccccccccccccccccccccccccccccccccccccccccccccccccccccccccccccccccccccccccccccccccccccccccccccccccccccccccccccccccccccccccccccccccccccccccccccccccccccccccccccccccccccccccccccccccccccccccccccccccccccccccccccccccccccccccccccccccccccccccccccccccccccccccccccccccccccccccccccccccccccccccccccccccccccccccccccccccccccccccccccccccccccccccccccccccccccccccccccccccccccccccccccccccccccccccccccccccccccccccccccccccccccccccccccccccccccccccccccccccccccccccccccccccccccccccccccccccccccccccccccccccccccccccccccccccccccccccccccccccccccccccccccccccccccccccccccccccccccccccccccccccccccccccccccccccccccccccccccccccccccccccccccccccccccccccccccccccccccccccccccccccccccccccccccccccccccccccccccccccccccccccccccccccccccccccccccccccccccccccccccccccccccccccccccccccccccccccccccccccccc" />
      <path
         style="fill:#d72700;stroke-width:0.31999999"
         d="m 99.919999,100.8 v -0.64 h -0.64 -0.64 v -0.639996 -0.64 h -0.64 -0.64 v -2.56 -2.56 h 0.64 0.64 v -0.64 -0.64 h 0.64 0.64 v -0.64 -0.64 h 2.560001 2.56 v 0.64 0.64 h 0.64 0.64 v 0.64 0.64 h 0.64 0.64 v 2.56 2.56 h -0.64 -0.64 v 0.64 0.639996 h -0.64 -0.64 v 0.64 0.64 h -2.56 -2.560001 z M 101.2,95.680004 v -0.64 h 0.64 0.64 v -1.28 -1.28 h -1.28 -1.280001 v 0.64 0.64 h -0.64 -0.64 v 1.28 1.28 h 1.28 H 101.2 Z m 39.68,-15.36 v -0.64 h -0.64 -0.64 v -0.64 -0.64 h -0.64 -0.64 v -2.56 -2.56 h 0.64 0.64 v -0.64 -0.64 h 0.64 0.64 v -0.64 -0.64 h 2.56 2.56 v 0.64 0.64 h 0.64 0.64 v 0.64 0.64 h 0.64 0.64 v 2.56 2.56 h -0.64 -0.64 v 0.64 0.64 H 146.64 146 v 0.64 0.64 h -2.56 -2.56 z m 1.28,-5.12 v -0.64 h 0.64 0.64 v -1.28 -1.28 h -1.28 -1.28 v 0.64 0.64 h -0.64 -0.64 v 1.28 1.28 h 1.28 1.28 z m 19.2,5.12 v -0.64 h -0.64 -0.64 v -0.64 -0.64 h -0.64 -0.64 v -2.56 -2.56 h 0.64 0.64 v -0.64 -0.64 h 0.64 0.64 v -0.64 -0.64 h 2.56 2.56 v 0.64 0.64 h 0.64 0.64 v 0.64 0.64 h 0.64 0.64 v 2.56 2.56 h -0.64 -0.64 v 0.64 0.64 h -0.64 -0.64 v 0.64 0.64 h -2.56 -2.56 z m 1.28,-5.12 v -0.64 h 0.64 0.64 v -1.28 -1.28 h -1.28 -1.28 v 0.64 0.64 h -0.64 -0.64 v 1.28 1.28 h 1.28 1.28 z m -83.200001,-15.36 v -0.64 h -0.64 -0.64 v -0.64 -0.64 h -0.64 -0.64 v -2.56 -2.56 h 0.64 0.64 v -0.64 -0.64 h 0.64 0.64 v -0.64 -0.64 h 2.56 2.56 v 0.64 0.64 h 0.64 0.64 v 0.64 0.64 h 0.64 0.64 v 2.56 2.56 h -0.64 -0.64 v 0.64 0.64 h -0.64 -0.64 v 0.64 0.64 h -2.56 -2.56 z m 1.28,-5.12 v -0.64 h 0.64 0.64 v -1.28 -1.28 h -1.28 -1.28 v 0.64 0.64 h -0.64 -0.64 v 1.28 1.28 h 1.28 1.28 z m 39.680001,5.12 v -0.64 h -0.64 -0.64 v -0.64 -0.64 h -0.64 -0.64 v -2.56 -2.56 h 0.64 0.64 v -0.64 -0.64 h 0.64 0.64 v -0.64 -0.64 h 2.56 2.56 v 0.64 0.64 h 0.64 0.64 v 0.64 0.64 h 0.64 0.64 v 2.56 2.56 h -0.64 -0.64 v 0.64 0.64 h -0.64 -0.64 v 0.64 0.64 h -2.56 -2.56 z m 1.28,-5.12 v -0.64 h 0.64 0.64 v -1.28 -1.28 h -1.28 -1.28 v 0.64 0.64 h -0.64 -0.64 v 1.28 1.28 h 1.28 1.28 z m 39.68,5.12 v -0.64 h -0.64 -0.64 v -0.64 -0.64 h -0.64 -0.64 v -2.56 -2.56 h 0.64 0.64 v -0.64 -0.64 h 0.64 0.64 v -0.64 -0.64 h 2.56 2.56 v 0.64 0.64 h 0.64 0.64 v 0.64 0.64 h 0.64 0.64 v 2.56 2.56 h -0.64 -0.64 v 0.64 0.64 h -0.64 -0.64 v 0.64 0.64 h -2.56 -2.56 z m 1.28,-5.12 v -0.64 h 0.64 0.64 v -1.28 -1.28 h -1.28 -1.28 v 0.64 0.64 h -0.64 -0.64 v 1.28 1.28 h 1.28 1.28 z m -62.720001,-15.36 v -0.64 h -0.64 -0.64 v -0.64 -0.64 h -0.64 -0.64 v -2.56 -2.56 h 0.64 0.64 v -0.64 -0.64 h 0.64 0.64 v -0.64 -0.64 h 2.560001 2.56 v 0.64 0.64 h 0.64 0.64 v 0.64 0.64 h 0.64 0.64 v 2.56 2.56 h -0.64 -0.64 v 0.64 0.64 h -0.64 -0.64 v 0.64 0.64 h -2.56 -2.560001 z m 1.280001,-5.12 v -0.64 h 0.64 0.64 v -1.28 -1.28 h -1.28 -1.280001 v 0.64 0.64 h -0.64 -0.64 v 1.28 1.28 h 1.28 H 101.2 Z m 39.68,5.12 v -0.64 h -0.64 -0.64 v -0.64 -0.64 h -0.64 -0.64 v -2.56 -2.56 h 0.64 0.64 v -0.64 -0.64 h 0.64 0.64 v -0.64 -0.64 h 2.56 2.56 v 0.64 0.64 h 0.64 0.64 v 0.64 0.64 h 0.64 0.64 v 2.56 2.56 h -0.64 -0.64 v 0.64 0.64 H 146.64 146 v 0.64 0.64 h -2.56 -2.56 z m 1.28,-5.12 v -0.64 h 0.64 0.64 v -1.28 -1.28 h -1.28 -1.28 v 0.64 0.64 h -0.64 -0.64 v 1.28 1.28 h 1.28 1.28 z m 19.2,-15.36 v -0.64 h -0.64 -0.64 v -0.64 -0.64 h -0.64 -0.64 v -2.56 -2.56 h 0.64 0.64 v -0.64 -0.64 h 0.64 0.64 v -0.64 -0.64 h 2.56 2.56 v 0.64 0.64 h 0.64 0.64 v 0.64 0.64 h 0.64 0.64 v 2.56 2.56 h -0.64 -0.64 v 0.64 0.64 h -0.64 -0.64 v 0.64 0.64 h -2.56 -2.56 z m 1.28,-5.12 v -0.64 h 0.64 0.64 v -1.28 -1.28 h -1.28 -1.28 v 0.64 0.64 h -0.64 -0.64 v 1.28 1.28 h 1.28 1.28 z"
         id="path3242"
         inkscape:connector-curvature="0" />
      <path
         style="fill:#000000;stroke-width:0.31999999"
         d="m 99.919999,100.8 v -0.64 h -0.64 -0.64 v -0.639996 -0.64 h -0.64 -0.64 v -2.56 -2.56 h 0.64 0.64 v -0.64 -0.64 h 0.64 0.64 v -0.64 -0.64 h 2.560001 2.56 v 0.64 0.64 h 0.64 0.64 v 0.64 0.64 h 0.64 0.64 v 2.56 2.56 h -0.64 -0.64 v 0.64 0.639996 h -0.64 -0.64 v 0.64 0.64 h -2.56 -2.560001 z M 101.2,95.680004 v -0.64 h 0.64 0.64 v -1.28 -1.28 h -1.28 -1.280001 v 0.64 0.64 h -0.64 -0.64 v 1.28 1.28 h 1.28 H 101.2 Z m 39.68,-15.36 v -0.64 h -0.64 -0.64 v -0.64 -0.64 h -0.64 -0.64 v -2.56 -2.56 h 0.64 0.64 v 1.28 1.28 h 1.28 1.28 v -0.64 -0.64 h 0.64 0.64 v -1.28 -1.28 h -1.28 -1.28 v -0.64 -0.64 h 2.56 2.56 v 0.64 0.64 h 0.64 0.64 v 0.64 0.64 h 0.64 0.64 v 2.56 2.56 h -0.64 -0.64 v 0.64 0.64 H 146.64 146 v 0.64 0.64 h -2.56 -2.56 z m 20.48,0 v -0.64 h -0.64 -0.64 v -0.64 -0.64 h -0.64 -0.64 v -2.56 -2.56 h 0.64 0.64 v 1.28 1.28 h 1.28 1.28 v -0.64 -0.64 h 0.64 0.64 v -1.28 -1.28 h -1.28 -1.28 v -0.64 -0.64 h 2.56 2.56 v 0.64 0.64 h 0.64 0.64 v 0.64 0.64 h 0.64 0.64 v 2.56 2.56 h -0.64 -0.64 v 0.64 0.64 h -0.64 -0.64 v 0.64 0.64 h -2.56 -2.56 z m -81.920001,-20.48 v -0.64 h -0.64 -0.64 v -0.64 -0.64 h -0.64 -0.64 v -2.56 -2.56 h 0.64 0.64 v -0.64 -0.64 h 0.64 0.64 v -0.64 -0.64 h 2.56 2.56 v 0.64 0.64 h 0.64 0.64 v 0.64 0.64 h 0.64 0.64 v 2.56 2.56 h -0.64 -0.64 v 0.64 0.64 h -0.64 -0.64 v 0.64 0.64 h -2.56 -2.56 z m 1.28,-5.12 v -0.64 h 0.64 0.64 v -1.28 -1.28 h -1.28 -1.28 v 0.64 0.64 h -0.64 -0.64 v 1.28 1.28 h 1.28 1.28 z m 39.680001,5.12 v -0.64 h -0.64 -0.64 v -0.64 -0.64 h -0.64 -0.64 v -2.56 -2.56 h 0.64 0.64 v -0.64 -0.64 h 0.64 0.64 v -0.64 -0.64 h 2.56 2.56 v 0.64 0.64 h 0.64 0.64 v 0.64 0.64 h 0.64 0.64 v 2.56 2.56 h -0.64 -0.64 v 0.64 0.64 h -0.64 -0.64 v 0.64 0.64 h -2.56 -2.56 z m 1.28,-5.12 v -0.64 h 0.64 0.64 v -1.28 -1.28 h -1.28 -1.28 v 0.64 0.64 h -0.64 -0.64 v 1.28 1.28 h 1.28 1.28 z m 39.68,5.12 v -0.64 h -0.64 -0.64 v -0.64 -0.64 h -0.64 -0.64 v -2.56 -2.56 h 0.64 0.64 v -0.64 -0.64 h 0.64 0.64 v -0.64 -0.64 h 2.56 2.56 v 0.64 0.64 h 0.64 0.64 v 0.64 0.64 h 0.64 0.64 v 2.56 2.56 h -0.64 -0.64 v 0.64 0.64 h -0.64 -0.64 v 0.64 0.64 h -2.56 -2.56 z m 1.28,-5.12 v -0.64 h 0.64 0.64 v -1.28 -1.28 h -1.28 -1.28 v 0.64 0.64 h -0.64 -0.64 v 1.28 1.28 h 1.28 1.28 z m -62.720001,-15.36 v -0.64 h -0.64 -0.64 v -0.64 -0.64 h -0.64 -0.64 v -0.780154 -0.556498 -0.23609 -0.987258 -0.32 -0.32 -0.32 -0.32 -0.32 -0.32 -0.32 -0.32 h 0.64 0.64 v -0.64 -0.64 h 0.64 0.64 v -0.64 -0.64 h 1.101631 0.30355 1.15482 0.9194 1.01181 0.62879 v 0.64 0.64 h 0.64 0.64 v 0.64 0.64 h 0.64 0.64 v 0.32 0.32 0.32 0.32 0.32 0.32 0.32 0.32 2.56 h -0.64 -0.64 v 0.64 0.64 h -0.64 -0.64 v 0.64 0.64 h -1.33706 -0.25295 -0.96999 -0.61519 -0.96122 -0.43846 -0.545131 z m 1.280001,-5.12 v -0.64 h 0.64 0.64 v -1.28 -1.28 h -1.28 -1.280001 v 0.64 0.64 h -0.64 -0.64 v 1.28 1.28 h 1.28 H 101.2 Z m 39.68,5.12 v -0.64 h -0.64 -0.64 v -0.64 -0.64 h -0.64 -0.64 v -2.56 -2.56 h 0.64 0.64 v -0.64 -0.64 h 0.64 0.64 v -0.64 -0.64 h 2.56 2.56 v 0.64 0.64 h 0.64 0.64 v 0.64 0.64 h 0.64 0.64 v 2.56 2.56 h -0.64 -0.64 v 0.64 0.64 H 146.64 146 v 0.64 0.64 h -2.56 -2.56 z m 1.28,-5.12 v -0.64 h 0.64 0.64 v -1.28 -1.28 h -1.28 -1.28 v 0.64 0.64 h -0.64 -0.64 v 1.28 1.28 h 1.28 1.28 z m 19.2,-15.36 v -0.64 h -0.64 -0.64 v -0.64 -0.64 h -0.64 -0.64 v -2.56 -2.56 h 0.64 0.64 v -0.16 -0.16 -0.16 -0.16 -0.16 -0.16 -0.16 -0.16 h 0.16 0.16 0.16 0.16 0.16 0.16 0.16 0.16 v -0.64 -0.64 h 2.56 2.56 v 0.64 0.64 h 0.64 0.64 v 0.64 0.64 h 0.64 0.64 v 2.56 2.56 h -0.64 -0.64 v 0.64 0.64 h -0.64 -0.64 v 0.64 0.64 h -2.56 -2.56 z m 1.28,-5.12 v -0.64 h 0.64 0.64 v -1.28 -1.28 h -1.28 -1.28 v 0.16 0.16 0.16 0.16 0.16 0.16 0.16 0.16 h -0.16 -0.16 -0.16 -0.16 -0.16 -0.16 -0.16 -0.16 v 1.28 1.28 h 1.28 1.28 z"
         id="path3240"
         inkscape:connector-curvature="0"
         sodipodi:nodetypes="ccccccccccccccccccccccccccccccccccccccccccccccccccccccccccccccccccccccccccccccccccccccccccccccccccccccccccccccccccccccccccccccccccccccccccccccccccccccccccccccccccccccccccccccccccccccccccccccccccccccccccccccccccccccccccccccccccccccccccccccccccccccccccccccccccccccccccccccccccccccccccccccccccccccccccccccccccccccccccccccccccccccccccccccccccccccccccccccccccccccccccccccccccccccccccccccccccccccccccccccccccccccccccccccccccccccccccccccccccccccccccccccccccccccccccccccccccccccccccccccccccccccccccccccccccccccccccccccccccccccccccccccccccccccccccccccccccccaccccc" />
    </g>
  </g>
  <g
     id="g3329"
     inkscape:groupmode="layer"
     inkscape:label="F.Cu"
     transform="translate(0,14.6)" />
  <g
     id="g3331"
     inkscape:groupmode="layer"
     inkscape:label="F.Mask-disabled"
     transform="translate(0,14.6)" />
  <g
     id="g3333"
     inkscape:groupmode="layer"
     inkscape:label="F.Silk-disabled"
     transform="translate(0,14.6)" />
  <g
     id="g3335"
     inkscape:groupmode="layer"
     inkscape:label="Drill"
     transform="translate(0,14.6)" />
</svg>
