G04 #@! TF.GenerationSoftware,KiCad,Pcbnew,5.1.2*
G04 #@! TF.CreationDate,2019-07-07T07:42:55-07:00*
G04 #@! TF.ProjectId,MegaMan_SAO,4d656761-4d61-46e5-9f53-414f2e6b6963,rev?*
G04 #@! TF.SameCoordinates,Original*
G04 #@! TF.FileFunction,Soldermask,Top*
G04 #@! TF.FilePolarity,Negative*
%FSLAX46Y46*%
G04 Gerber Fmt 4.6, Leading zero omitted, Abs format (unit mm)*
G04 Created by KiCad (PCBNEW 5.1.2) date 2019-07-07 07:42:55*
%MOMM*%
%LPD*%
G04 APERTURE LIST*
%ADD10C,0.010000*%
%ADD11C,2.127200*%
%ADD12O,2.127200X2.127200*%
%ADD13R,2.127200X2.127200*%
%ADD14R,2.200000X2.200000*%
%ADD15C,2.200000*%
G04 APERTURE END LIST*
D10*
G36*
X91279333Y-92507000D02*
G01*
X93777000Y-92507000D01*
X93777000Y-87511666D01*
X96274666Y-87511666D01*
X96274666Y-92507000D01*
X101270000Y-92507000D01*
X101270000Y-87511666D01*
X96274666Y-87511666D01*
X96274666Y-85014000D01*
X106265333Y-85014000D01*
X106265333Y-87511666D01*
X108763000Y-87511666D01*
X108763000Y-95047000D01*
X106265333Y-95047000D01*
X106265333Y-100042333D01*
X93777000Y-100042333D01*
X93777000Y-97544666D01*
X91279333Y-97544666D01*
X91279333Y-95047000D01*
X93777000Y-95047000D01*
X93777000Y-97502333D01*
X103767666Y-97502333D01*
X103767666Y-95047000D01*
X93777000Y-95047000D01*
X91279333Y-95047000D01*
X88781666Y-95047000D01*
X88781666Y-85014000D01*
X91279333Y-85014000D01*
X91279333Y-92507000D01*
X91279333Y-92507000D01*
G37*
X91279333Y-92507000D02*
X93777000Y-92507000D01*
X93777000Y-87511666D01*
X96274666Y-87511666D01*
X96274666Y-92507000D01*
X101270000Y-92507000D01*
X101270000Y-87511666D01*
X96274666Y-87511666D01*
X96274666Y-85014000D01*
X106265333Y-85014000D01*
X106265333Y-87511666D01*
X108763000Y-87511666D01*
X108763000Y-95047000D01*
X106265333Y-95047000D01*
X106265333Y-100042333D01*
X93777000Y-100042333D01*
X93777000Y-97544666D01*
X91279333Y-97544666D01*
X91279333Y-95047000D01*
X93777000Y-95047000D01*
X93777000Y-97502333D01*
X103767666Y-97502333D01*
X103767666Y-95047000D01*
X93777000Y-95047000D01*
X91279333Y-95047000D01*
X88781666Y-95047000D01*
X88781666Y-85014000D01*
X91279333Y-85014000D01*
X91279333Y-92507000D01*
D11*
X107600000Y-103750000D03*
X107600000Y-106290000D03*
D12*
X105060000Y-103750000D03*
X105060000Y-106290000D03*
X102520000Y-103750000D03*
D13*
X102520000Y-106290000D03*
D14*
X67500000Y-98750000D03*
D15*
X67500000Y-96210000D03*
M02*
