G04 #@! TF.GenerationSoftware,KiCad,Pcbnew,5.1.2*
G04 #@! TF.CreationDate,2019-07-07T07:42:55-07:00*
G04 #@! TF.ProjectId,MegaMan_SAO,4d656761-4d61-46e5-9f53-414f2e6b6963,rev?*
G04 #@! TF.SameCoordinates,Original*
G04 #@! TF.FileFunction,Soldermask,Bot*
G04 #@! TF.FilePolarity,Negative*
%FSLAX46Y46*%
G04 Gerber Fmt 4.6, Leading zero omitted, Abs format (unit mm)*
G04 Created by KiCad (PCBNEW 5.1.2) date 2019-07-07 07:42:55*
%MOMM*%
%LPD*%
G04 APERTURE LIST*
%ADD10C,0.010000*%
%ADD11C,0.100000*%
%ADD12C,1.000000*%
%ADD13C,1.300000*%
%ADD14C,2.127200*%
%ADD15O,2.127200X2.127200*%
%ADD16R,2.127200X2.127200*%
%ADD17R,2.200000X2.200000*%
%ADD18C,2.200000*%
%ADD19C,1.550000*%
G04 APERTURE END LIST*
D10*
G36*
X124699999Y-96030663D02*
G01*
X124699999Y-96082111D01*
X124699999Y-96170000D01*
X124788554Y-96170000D01*
X124859999Y-96170000D01*
X124859999Y-96230000D01*
X124859999Y-96328083D01*
X124859999Y-96500000D01*
X124809999Y-96500000D01*
X124712380Y-96500000D01*
X124690749Y-96499972D01*
X124585780Y-96500000D01*
X124529999Y-96500000D01*
X124529999Y-96425888D01*
X124530000Y-96340000D01*
X124444777Y-96340000D01*
X124369999Y-96340000D01*
X124369999Y-96267472D01*
X124369999Y-96170000D01*
X124369999Y-96063772D01*
X124369999Y-96010000D01*
X124520951Y-96009900D01*
X124542582Y-96010000D01*
X124699999Y-96010000D01*
X124699999Y-96030000D01*
X124699999Y-96030663D01*
G37*
X124699999Y-96030663D02*
X124699999Y-96082111D01*
X124699999Y-96170000D01*
X124788554Y-96170000D01*
X124859999Y-96170000D01*
X124859999Y-96230000D01*
X124859999Y-96328083D01*
X124859999Y-96500000D01*
X124809999Y-96500000D01*
X124712380Y-96500000D01*
X124690749Y-96499972D01*
X124585780Y-96500000D01*
X124529999Y-96500000D01*
X124529999Y-96425888D01*
X124530000Y-96340000D01*
X124444777Y-96340000D01*
X124369999Y-96340000D01*
X124369999Y-96267472D01*
X124369999Y-96170000D01*
X124369999Y-96063772D01*
X124369999Y-96010000D01*
X124520951Y-96009900D01*
X124542582Y-96010000D01*
X124699999Y-96010000D01*
X124699999Y-96030000D01*
X124699999Y-96030663D01*
G36*
X122250000Y-100940663D02*
G01*
X122250000Y-100992111D01*
X122250000Y-101080000D01*
X122338555Y-101080000D01*
X122410000Y-101080000D01*
X122410000Y-101140000D01*
X122410000Y-101238083D01*
X122410000Y-101410000D01*
X122360000Y-101410000D01*
X122262381Y-101410000D01*
X122240750Y-101409972D01*
X122135781Y-101410000D01*
X122080000Y-101410000D01*
X122080000Y-101335888D01*
X122080001Y-101250000D01*
X121994778Y-101250000D01*
X121920000Y-101250000D01*
X121920000Y-101177472D01*
X121920000Y-101080000D01*
X121920000Y-100973772D01*
X121920000Y-100920000D01*
X122070952Y-100919900D01*
X122092583Y-100920000D01*
X122250000Y-100920000D01*
X122250000Y-100940000D01*
X122250000Y-100940663D01*
G37*
X122250000Y-100940663D02*
X122250000Y-100992111D01*
X122250000Y-101080000D01*
X122338555Y-101080000D01*
X122410000Y-101080000D01*
X122410000Y-101140000D01*
X122410000Y-101238083D01*
X122410000Y-101410000D01*
X122360000Y-101410000D01*
X122262381Y-101410000D01*
X122240750Y-101409972D01*
X122135781Y-101410000D01*
X122080000Y-101410000D01*
X122080000Y-101335888D01*
X122080001Y-101250000D01*
X121994778Y-101250000D01*
X121920000Y-101250000D01*
X121920000Y-101177472D01*
X121920000Y-101080000D01*
X121920000Y-100973772D01*
X121920000Y-100920000D01*
X122070952Y-100919900D01*
X122092583Y-100920000D01*
X122250000Y-100920000D01*
X122250000Y-100940000D01*
X122250000Y-100940663D01*
G36*
X117330000Y-98483191D02*
G01*
X117330000Y-98534639D01*
X117330000Y-98622528D01*
X117418555Y-98622528D01*
X117490000Y-98622528D01*
X117490000Y-98682528D01*
X117490000Y-98780611D01*
X117490000Y-98952528D01*
X117440000Y-98952528D01*
X117342381Y-98952528D01*
X117320750Y-98952500D01*
X117215781Y-98952528D01*
X117160000Y-98952528D01*
X117160000Y-98878416D01*
X117160001Y-98792528D01*
X117074778Y-98792528D01*
X117000000Y-98792528D01*
X117000000Y-98720000D01*
X117000000Y-98622528D01*
X117000000Y-98516300D01*
X117000000Y-98462528D01*
X117150952Y-98462428D01*
X117172583Y-98462528D01*
X117330000Y-98462528D01*
X117330000Y-98482528D01*
X117330000Y-98483191D01*
G37*
X117330000Y-98483191D02*
X117330000Y-98534639D01*
X117330000Y-98622528D01*
X117418555Y-98622528D01*
X117490000Y-98622528D01*
X117490000Y-98682528D01*
X117490000Y-98780611D01*
X117490000Y-98952528D01*
X117440000Y-98952528D01*
X117342381Y-98952528D01*
X117320750Y-98952500D01*
X117215781Y-98952528D01*
X117160000Y-98952528D01*
X117160000Y-98878416D01*
X117160001Y-98792528D01*
X117074778Y-98792528D01*
X117000000Y-98792528D01*
X117000000Y-98720000D01*
X117000000Y-98622528D01*
X117000000Y-98516300D01*
X117000000Y-98462528D01*
X117150952Y-98462428D01*
X117172583Y-98462528D01*
X117330000Y-98462528D01*
X117330000Y-98482528D01*
X117330000Y-98483191D01*
G36*
X114900000Y-98480663D02*
G01*
X114900000Y-98532111D01*
X114900000Y-98620000D01*
X114988555Y-98620000D01*
X115060000Y-98620000D01*
X115060000Y-98680000D01*
X115060000Y-98778083D01*
X115060000Y-98950000D01*
X115010000Y-98950000D01*
X114912381Y-98950000D01*
X114890750Y-98949972D01*
X114785781Y-98950000D01*
X114730000Y-98950000D01*
X114730000Y-98875888D01*
X114730001Y-98790000D01*
X114644778Y-98790000D01*
X114570000Y-98790000D01*
X114570000Y-98717472D01*
X114570000Y-98620000D01*
X114570000Y-98513772D01*
X114570000Y-98460000D01*
X114720952Y-98459900D01*
X114742583Y-98460000D01*
X114900000Y-98460000D01*
X114900000Y-98480000D01*
X114900000Y-98480663D01*
G37*
X114900000Y-98480663D02*
X114900000Y-98532111D01*
X114900000Y-98620000D01*
X114988555Y-98620000D01*
X115060000Y-98620000D01*
X115060000Y-98680000D01*
X115060000Y-98778083D01*
X115060000Y-98950000D01*
X115010000Y-98950000D01*
X114912381Y-98950000D01*
X114890750Y-98949972D01*
X114785781Y-98950000D01*
X114730000Y-98950000D01*
X114730000Y-98875888D01*
X114730001Y-98790000D01*
X114644778Y-98790000D01*
X114570000Y-98790000D01*
X114570000Y-98717472D01*
X114570000Y-98620000D01*
X114570000Y-98513772D01*
X114570000Y-98460000D01*
X114720952Y-98459900D01*
X114742583Y-98460000D01*
X114900000Y-98460000D01*
X114900000Y-98480000D01*
X114900000Y-98480663D01*
G36*
X119790000Y-96030663D02*
G01*
X119790000Y-96082111D01*
X119790000Y-96170000D01*
X119878555Y-96170000D01*
X119950000Y-96170000D01*
X119950000Y-96230000D01*
X119950000Y-96328083D01*
X119950000Y-96500000D01*
X119900000Y-96500000D01*
X119802381Y-96500000D01*
X119780750Y-96499972D01*
X119675781Y-96500000D01*
X119620000Y-96500000D01*
X119620000Y-96425888D01*
X119620001Y-96340000D01*
X119534778Y-96340000D01*
X119460000Y-96340000D01*
X119460000Y-96267472D01*
X119460000Y-96170000D01*
X119460000Y-96063772D01*
X119460000Y-96010000D01*
X119610952Y-96009900D01*
X119632583Y-96010000D01*
X119790000Y-96010000D01*
X119790000Y-96030000D01*
X119790000Y-96030663D01*
G37*
X119790000Y-96030663D02*
X119790000Y-96082111D01*
X119790000Y-96170000D01*
X119878555Y-96170000D01*
X119950000Y-96170000D01*
X119950000Y-96230000D01*
X119950000Y-96328083D01*
X119950000Y-96500000D01*
X119900000Y-96500000D01*
X119802381Y-96500000D01*
X119780750Y-96499972D01*
X119675781Y-96500000D01*
X119620000Y-96500000D01*
X119620000Y-96425888D01*
X119620001Y-96340000D01*
X119534778Y-96340000D01*
X119460000Y-96340000D01*
X119460000Y-96267472D01*
X119460000Y-96170000D01*
X119460000Y-96063772D01*
X119460000Y-96010000D01*
X119610952Y-96009900D01*
X119632583Y-96010000D01*
X119790000Y-96010000D01*
X119790000Y-96030000D01*
X119790000Y-96030663D01*
G36*
X114900000Y-96030663D02*
G01*
X114900000Y-96082111D01*
X114900000Y-96170000D01*
X114988555Y-96170000D01*
X115060000Y-96170000D01*
X115060000Y-96230000D01*
X115060000Y-96328083D01*
X115060000Y-96500000D01*
X115010000Y-96500000D01*
X114912381Y-96500000D01*
X114890750Y-96499972D01*
X114785781Y-96500000D01*
X114730000Y-96500000D01*
X114730000Y-96425888D01*
X114730001Y-96340000D01*
X114644778Y-96340000D01*
X114570000Y-96340000D01*
X114570000Y-96267472D01*
X114570000Y-96170000D01*
X114570000Y-96063772D01*
X114570000Y-96010000D01*
X114720952Y-96009900D01*
X114742583Y-96010000D01*
X114900000Y-96010000D01*
X114900000Y-96030000D01*
X114900000Y-96030663D01*
G37*
X114900000Y-96030663D02*
X114900000Y-96082111D01*
X114900000Y-96170000D01*
X114988555Y-96170000D01*
X115060000Y-96170000D01*
X115060000Y-96230000D01*
X115060000Y-96328083D01*
X115060000Y-96500000D01*
X115010000Y-96500000D01*
X114912381Y-96500000D01*
X114890750Y-96499972D01*
X114785781Y-96500000D01*
X114730000Y-96500000D01*
X114730000Y-96425888D01*
X114730001Y-96340000D01*
X114644778Y-96340000D01*
X114570000Y-96340000D01*
X114570000Y-96267472D01*
X114570000Y-96170000D01*
X114570000Y-96063772D01*
X114570000Y-96010000D01*
X114720952Y-96009900D01*
X114742583Y-96010000D01*
X114900000Y-96010000D01*
X114900000Y-96030000D01*
X114900000Y-96030663D01*
G36*
X122260000Y-93600663D02*
G01*
X122260000Y-93652111D01*
X122260000Y-93740000D01*
X122348555Y-93740000D01*
X122420000Y-93740000D01*
X122420000Y-93800000D01*
X122420000Y-93898083D01*
X122420000Y-94070000D01*
X122370000Y-94070000D01*
X122272381Y-94070000D01*
X122250750Y-94069972D01*
X122145781Y-94070000D01*
X122090000Y-94070000D01*
X122090000Y-93995888D01*
X122090001Y-93910000D01*
X122004778Y-93910000D01*
X121930000Y-93910000D01*
X121930000Y-93837472D01*
X121930000Y-93740000D01*
X121930000Y-93633772D01*
X121930000Y-93580000D01*
X122080952Y-93579900D01*
X122102583Y-93580000D01*
X122260000Y-93580000D01*
X122260000Y-93600000D01*
X122260000Y-93600663D01*
G37*
X122260000Y-93600663D02*
X122260000Y-93652111D01*
X122260000Y-93740000D01*
X122348555Y-93740000D01*
X122420000Y-93740000D01*
X122420000Y-93800000D01*
X122420000Y-93898083D01*
X122420000Y-94070000D01*
X122370000Y-94070000D01*
X122272381Y-94070000D01*
X122250750Y-94069972D01*
X122145781Y-94070000D01*
X122090000Y-94070000D01*
X122090000Y-93995888D01*
X122090001Y-93910000D01*
X122004778Y-93910000D01*
X121930000Y-93910000D01*
X121930000Y-93837472D01*
X121930000Y-93740000D01*
X121930000Y-93633772D01*
X121930000Y-93580000D01*
X122080952Y-93579900D01*
X122102583Y-93580000D01*
X122260000Y-93580000D01*
X122260000Y-93600000D01*
X122260000Y-93600663D01*
G36*
X117360000Y-93590663D02*
G01*
X117360000Y-93642111D01*
X117360000Y-93730000D01*
X117448555Y-93730000D01*
X117520000Y-93730000D01*
X117520000Y-93790000D01*
X117520000Y-93888083D01*
X117520000Y-94060000D01*
X117470000Y-94060000D01*
X117372381Y-94060000D01*
X117350750Y-94059972D01*
X117245781Y-94060000D01*
X117190000Y-94060000D01*
X117190000Y-93985888D01*
X117190001Y-93900000D01*
X117104778Y-93900000D01*
X117030000Y-93900000D01*
X117030000Y-93827472D01*
X117030000Y-93730000D01*
X117030000Y-93623772D01*
X117030000Y-93570000D01*
X117180952Y-93569900D01*
X117202583Y-93570000D01*
X117360000Y-93570000D01*
X117360000Y-93590000D01*
X117360000Y-93590663D01*
G37*
X117360000Y-93590663D02*
X117360000Y-93642111D01*
X117360000Y-93730000D01*
X117448555Y-93730000D01*
X117520000Y-93730000D01*
X117520000Y-93790000D01*
X117520000Y-93888083D01*
X117520000Y-94060000D01*
X117470000Y-94060000D01*
X117372381Y-94060000D01*
X117350750Y-94059972D01*
X117245781Y-94060000D01*
X117190000Y-94060000D01*
X117190000Y-93985888D01*
X117190001Y-93900000D01*
X117104778Y-93900000D01*
X117030000Y-93900000D01*
X117030000Y-93827472D01*
X117030000Y-93730000D01*
X117030000Y-93623772D01*
X117030000Y-93570000D01*
X117180952Y-93569900D01*
X117202583Y-93570000D01*
X117360000Y-93570000D01*
X117360000Y-93590000D01*
X117360000Y-93590663D01*
G36*
X114900000Y-91140663D02*
G01*
X114900000Y-91192111D01*
X114900000Y-91280000D01*
X114988555Y-91280000D01*
X115060000Y-91280000D01*
X115060000Y-91340000D01*
X115060000Y-91438083D01*
X115060000Y-91610000D01*
X115010000Y-91610000D01*
X114912381Y-91610000D01*
X114890750Y-91609972D01*
X114785781Y-91610000D01*
X114730000Y-91610000D01*
X114730000Y-91535888D01*
X114730001Y-91450000D01*
X114644778Y-91450000D01*
X114570000Y-91450000D01*
X114570000Y-91377472D01*
X114570000Y-91280000D01*
X114570000Y-91173772D01*
X114570000Y-91120000D01*
X114720952Y-91119900D01*
X114742583Y-91120000D01*
X114900000Y-91120000D01*
X114900000Y-91140000D01*
X114900000Y-91140663D01*
G37*
X114900000Y-91140663D02*
X114900000Y-91192111D01*
X114900000Y-91280000D01*
X114988555Y-91280000D01*
X115060000Y-91280000D01*
X115060000Y-91340000D01*
X115060000Y-91438083D01*
X115060000Y-91610000D01*
X115010000Y-91610000D01*
X114912381Y-91610000D01*
X114890750Y-91609972D01*
X114785781Y-91610000D01*
X114730000Y-91610000D01*
X114730000Y-91535888D01*
X114730001Y-91450000D01*
X114644778Y-91450000D01*
X114570000Y-91450000D01*
X114570000Y-91377472D01*
X114570000Y-91280000D01*
X114570000Y-91173772D01*
X114570000Y-91120000D01*
X114720952Y-91119900D01*
X114742583Y-91120000D01*
X114900000Y-91120000D01*
X114900000Y-91140000D01*
X114900000Y-91140663D01*
G36*
X104869506Y-78071333D02*
G01*
X104147493Y-78071333D01*
X104169833Y-75340833D01*
X104847166Y-75340833D01*
X104869506Y-78071333D01*
X104869506Y-78071333D01*
G37*
X104869506Y-78071333D02*
X104147493Y-78071333D01*
X104169833Y-75340833D01*
X104847166Y-75340833D01*
X104869506Y-78071333D01*
G36*
X95883669Y-76706083D02*
G01*
X95894839Y-78071333D01*
X95172827Y-78071333D01*
X95183996Y-76706083D01*
X95195166Y-75340833D01*
X95872500Y-75340833D01*
X95883669Y-76706083D01*
X95883669Y-76706083D01*
G37*
X95883669Y-76706083D02*
X95894839Y-78071333D01*
X95172827Y-78071333D01*
X95183996Y-76706083D01*
X95195166Y-75340833D01*
X95872500Y-75340833D01*
X95883669Y-76706083D01*
G36*
X98678832Y-75667167D02*
G01*
X98680000Y-76000000D01*
X99010000Y-76000000D01*
X99360000Y-76000000D01*
X99356197Y-76346250D01*
X99368561Y-76674333D01*
X100673771Y-76674333D01*
X100686135Y-76346250D01*
X100698500Y-76018166D01*
X101024834Y-76005834D01*
X101351168Y-75993501D01*
X101363500Y-75667167D01*
X101375833Y-75340833D01*
X102730500Y-75340833D01*
X102742834Y-75667294D01*
X102755169Y-75993754D01*
X103123834Y-76005960D01*
X103492500Y-76018166D01*
X103503552Y-77764416D01*
X103514605Y-79510666D01*
X102751666Y-79510666D01*
X102751666Y-80188000D01*
X101397000Y-80188000D01*
X101397000Y-80865333D01*
X98645333Y-80865333D01*
X98645333Y-80188000D01*
X97290666Y-80188000D01*
X97290666Y-79510666D01*
X96527727Y-79510666D01*
X96532550Y-78748666D01*
X98010333Y-78748666D01*
X98010333Y-79464771D01*
X98338416Y-79477135D01*
X98666500Y-79489500D01*
X98691228Y-80145666D01*
X101351105Y-80145666D01*
X101375833Y-79489500D01*
X101703916Y-79477135D01*
X102032000Y-79464771D01*
X102032000Y-78748666D01*
X98010333Y-78748666D01*
X96532550Y-78748666D01*
X96545411Y-76716666D01*
X98010333Y-76716666D01*
X98010333Y-78029000D01*
X99322666Y-78029000D01*
X99322666Y-76716666D01*
X100719666Y-76716666D01*
X100719666Y-78029000D01*
X102032000Y-78029000D01*
X102032000Y-76716666D01*
X100719666Y-76716666D01*
X99322666Y-76716666D01*
X98010333Y-76716666D01*
X96545411Y-76716666D01*
X96549833Y-76018166D01*
X97300000Y-76020000D01*
X97299498Y-75667294D01*
X97300000Y-75340833D01*
X98680000Y-75340833D01*
X98678832Y-75667167D01*
X98678832Y-75667167D01*
G37*
X98678832Y-75667167D02*
X98680000Y-76000000D01*
X99010000Y-76000000D01*
X99360000Y-76000000D01*
X99356197Y-76346250D01*
X99368561Y-76674333D01*
X100673771Y-76674333D01*
X100686135Y-76346250D01*
X100698500Y-76018166D01*
X101024834Y-76005834D01*
X101351168Y-75993501D01*
X101363500Y-75667167D01*
X101375833Y-75340833D01*
X102730500Y-75340833D01*
X102742834Y-75667294D01*
X102755169Y-75993754D01*
X103123834Y-76005960D01*
X103492500Y-76018166D01*
X103503552Y-77764416D01*
X103514605Y-79510666D01*
X102751666Y-79510666D01*
X102751666Y-80188000D01*
X101397000Y-80188000D01*
X101397000Y-80865333D01*
X98645333Y-80865333D01*
X98645333Y-80188000D01*
X97290666Y-80188000D01*
X97290666Y-79510666D01*
X96527727Y-79510666D01*
X96532550Y-78748666D01*
X98010333Y-78748666D01*
X98010333Y-79464771D01*
X98338416Y-79477135D01*
X98666500Y-79489500D01*
X98691228Y-80145666D01*
X101351105Y-80145666D01*
X101375833Y-79489500D01*
X101703916Y-79477135D01*
X102032000Y-79464771D01*
X102032000Y-78748666D01*
X98010333Y-78748666D01*
X96532550Y-78748666D01*
X96545411Y-76716666D01*
X98010333Y-76716666D01*
X98010333Y-78029000D01*
X99322666Y-78029000D01*
X99322666Y-76716666D01*
X100719666Y-76716666D01*
X100719666Y-78029000D01*
X102032000Y-78029000D01*
X102032000Y-76716666D01*
X100719666Y-76716666D01*
X99322666Y-76716666D01*
X98010333Y-76716666D01*
X96545411Y-76716666D01*
X96549833Y-76018166D01*
X97300000Y-76020000D01*
X97299498Y-75667294D01*
X97300000Y-75340833D01*
X98680000Y-75340833D01*
X98678832Y-75667167D01*
G36*
X124780000Y-87890000D02*
G01*
X124780000Y-87970000D01*
X124850000Y-87970000D01*
X124850000Y-88050000D01*
X124889160Y-88050000D01*
X124940000Y-88050000D01*
X125020000Y-88050000D01*
X125019001Y-88230000D01*
X124989066Y-88230000D01*
X124934333Y-88231333D01*
X124850000Y-88230000D01*
X124850000Y-88280000D01*
X124850000Y-88336973D01*
X124850486Y-88462109D01*
X124849666Y-88612333D01*
X124849666Y-88993333D01*
X124384000Y-88993333D01*
X124384000Y-87892666D01*
X124599629Y-87892666D01*
X124737500Y-87890000D01*
X124780000Y-87890000D01*
G37*
X124780000Y-87890000D02*
X124780000Y-87970000D01*
X124850000Y-87970000D01*
X124850000Y-88050000D01*
X124889160Y-88050000D01*
X124940000Y-88050000D01*
X125020000Y-88050000D01*
X125019001Y-88230000D01*
X124989066Y-88230000D01*
X124934333Y-88231333D01*
X124850000Y-88230000D01*
X124850000Y-88280000D01*
X124850000Y-88336973D01*
X124850486Y-88462109D01*
X124849666Y-88612333D01*
X124849666Y-88993333D01*
X124384000Y-88993333D01*
X124384000Y-87892666D01*
X124599629Y-87892666D01*
X124737500Y-87890000D01*
X124780000Y-87890000D01*
G36*
X122340326Y-87899774D02*
G01*
X122450185Y-87901508D01*
X122548513Y-87900299D01*
X122549349Y-87950904D01*
X122549349Y-87978237D01*
X122549349Y-88060904D01*
X122631453Y-88061000D01*
X122699349Y-88060000D01*
X122699349Y-88150904D01*
X122699349Y-88220000D01*
X122610000Y-88220000D01*
X122541849Y-88220000D01*
X122430000Y-88220000D01*
X122390000Y-88220000D01*
X122390000Y-88169368D01*
X122390000Y-88110631D01*
X122299431Y-88110727D01*
X122160850Y-88111315D01*
X122030000Y-88110000D01*
X121930000Y-88110000D01*
X121930000Y-88150000D01*
X121930000Y-88230000D01*
X121930000Y-88270000D01*
X121930000Y-88296302D01*
X121930000Y-88360000D01*
X122025722Y-88360000D01*
X122150000Y-88360000D01*
X122180000Y-88360000D01*
X122295402Y-88360000D01*
X122390000Y-88360000D01*
X122390000Y-88414200D01*
X122390000Y-88443904D01*
X122390000Y-88520000D01*
X122484175Y-88520000D01*
X122560000Y-88520000D01*
X122560000Y-88610000D01*
X122560000Y-88690000D01*
X122626515Y-88690000D01*
X122690000Y-88690000D01*
X122689900Y-88832576D01*
X122690015Y-88846070D01*
X122690015Y-88994237D01*
X122160849Y-88994237D01*
X121945622Y-88991733D01*
X121800000Y-88990000D01*
X121700000Y-88990000D01*
X121652866Y-88990000D01*
X121630000Y-88990000D01*
X121631682Y-88909570D01*
X121630000Y-88869344D01*
X121630000Y-88830000D01*
X121740000Y-88830000D01*
X121862458Y-88830000D01*
X122020000Y-88830000D01*
X122200000Y-88830000D01*
X122314336Y-88830000D01*
X122374487Y-88830000D01*
X122390000Y-88830000D01*
X122390000Y-88745857D01*
X122390000Y-88700000D01*
X122309015Y-88700000D01*
X122220000Y-88700000D01*
X122220000Y-88610000D01*
X122220000Y-88530590D01*
X122167669Y-88529409D01*
X122073200Y-88529473D01*
X121991515Y-88528570D01*
X121851103Y-88530000D01*
X121770000Y-88530000D01*
X121770000Y-88400000D01*
X121730000Y-88400000D01*
X121695182Y-88400000D01*
X121640000Y-88400000D01*
X121640000Y-88280919D01*
X121640000Y-88232237D01*
X121640911Y-88110132D01*
X121640000Y-88063687D01*
X121690244Y-88062904D01*
X121769349Y-88060904D01*
X121770948Y-87978237D01*
X121769349Y-87900904D01*
X121829349Y-87900904D01*
X121911640Y-87900904D01*
X122074665Y-87900678D01*
X122145335Y-87899322D01*
X122299675Y-87900226D01*
X122340326Y-87899774D01*
G37*
X122340326Y-87899774D02*
X122450185Y-87901508D01*
X122548513Y-87900299D01*
X122549349Y-87950904D01*
X122549349Y-87978237D01*
X122549349Y-88060904D01*
X122631453Y-88061000D01*
X122699349Y-88060000D01*
X122699349Y-88150904D01*
X122699349Y-88220000D01*
X122610000Y-88220000D01*
X122541849Y-88220000D01*
X122430000Y-88220000D01*
X122390000Y-88220000D01*
X122390000Y-88169368D01*
X122390000Y-88110631D01*
X122299431Y-88110727D01*
X122160850Y-88111315D01*
X122030000Y-88110000D01*
X121930000Y-88110000D01*
X121930000Y-88150000D01*
X121930000Y-88230000D01*
X121930000Y-88270000D01*
X121930000Y-88296302D01*
X121930000Y-88360000D01*
X122025722Y-88360000D01*
X122150000Y-88360000D01*
X122180000Y-88360000D01*
X122295402Y-88360000D01*
X122390000Y-88360000D01*
X122390000Y-88414200D01*
X122390000Y-88443904D01*
X122390000Y-88520000D01*
X122484175Y-88520000D01*
X122560000Y-88520000D01*
X122560000Y-88610000D01*
X122560000Y-88690000D01*
X122626515Y-88690000D01*
X122690000Y-88690000D01*
X122689900Y-88832576D01*
X122690015Y-88846070D01*
X122690015Y-88994237D01*
X122160849Y-88994237D01*
X121945622Y-88991733D01*
X121800000Y-88990000D01*
X121700000Y-88990000D01*
X121652866Y-88990000D01*
X121630000Y-88990000D01*
X121631682Y-88909570D01*
X121630000Y-88869344D01*
X121630000Y-88830000D01*
X121740000Y-88830000D01*
X121862458Y-88830000D01*
X122020000Y-88830000D01*
X122200000Y-88830000D01*
X122314336Y-88830000D01*
X122374487Y-88830000D01*
X122390000Y-88830000D01*
X122390000Y-88745857D01*
X122390000Y-88700000D01*
X122309015Y-88700000D01*
X122220000Y-88700000D01*
X122220000Y-88610000D01*
X122220000Y-88530590D01*
X122167669Y-88529409D01*
X122073200Y-88529473D01*
X121991515Y-88528570D01*
X121851103Y-88530000D01*
X121770000Y-88530000D01*
X121770000Y-88400000D01*
X121730000Y-88400000D01*
X121695182Y-88400000D01*
X121640000Y-88400000D01*
X121640000Y-88280919D01*
X121640000Y-88232237D01*
X121640911Y-88110132D01*
X121640000Y-88063687D01*
X121690244Y-88062904D01*
X121769349Y-88060904D01*
X121770948Y-87978237D01*
X121769349Y-87900904D01*
X121829349Y-87900904D01*
X121911640Y-87900904D01*
X122074665Y-87900678D01*
X122145335Y-87899322D01*
X122299675Y-87900226D01*
X122340326Y-87899774D01*
G36*
X119940000Y-87900000D02*
G01*
X120020000Y-87900000D01*
X120065599Y-87900000D01*
X120100000Y-87900000D01*
X120100000Y-87976709D01*
X120100000Y-88070000D01*
X120198457Y-88070000D01*
X120281544Y-88070000D01*
X120280000Y-88220000D01*
X120253872Y-88220000D01*
X120171422Y-88220000D01*
X120108333Y-88220000D01*
X119990590Y-88220847D01*
X119940000Y-88220000D01*
X119940000Y-88169458D01*
X119940259Y-88110541D01*
X119844748Y-88109823D01*
X119706166Y-88110000D01*
X119573059Y-88110000D01*
X119470000Y-88110000D01*
X119470000Y-88157627D01*
X119470000Y-88200000D01*
X119470000Y-88230666D01*
X119470000Y-88360000D01*
X119510000Y-88360000D01*
X119570000Y-88360000D01*
X119680000Y-88360000D01*
X119710000Y-88360000D01*
X119840000Y-88360000D01*
X119910000Y-88360000D01*
X119930000Y-88360000D01*
X119930000Y-88440000D01*
X119930000Y-88550000D01*
X119880000Y-88550000D01*
X119770000Y-88550000D01*
X119716750Y-88550000D01*
X119587160Y-88550000D01*
X119500000Y-88550000D01*
X119470000Y-88550000D01*
X119470000Y-88686416D01*
X119467968Y-88824000D01*
X119710038Y-88822000D01*
X119850000Y-88820000D01*
X119916592Y-88820792D01*
X119938999Y-88820000D01*
X119939000Y-88760500D01*
X119940000Y-88700000D01*
X120060000Y-88700000D01*
X120123114Y-88700000D01*
X120230000Y-88699999D01*
X120280000Y-88700000D01*
X120280000Y-88764463D01*
X120280000Y-88880000D01*
X120190000Y-88880000D01*
X120120000Y-88880000D01*
X120120000Y-88990000D01*
X120089747Y-88990000D01*
X120025394Y-88990000D01*
X119902384Y-88990586D01*
X119707824Y-88993333D01*
X119706166Y-88993333D01*
X119514457Y-88991060D01*
X119393136Y-88990000D01*
X119328009Y-88990000D01*
X119310000Y-88990000D01*
X119310000Y-88929833D01*
X119310000Y-88860000D01*
X119240000Y-88860000D01*
X119180000Y-88860000D01*
X119180000Y-88740000D01*
X119180000Y-88690000D01*
X119180000Y-88579257D01*
X119180000Y-88530000D01*
X119240000Y-88530000D01*
X119310000Y-88530000D01*
X119310000Y-88464166D01*
X119310000Y-88370000D01*
X119240000Y-88370000D01*
X119190000Y-88370000D01*
X119190000Y-88280000D01*
X119190000Y-88230000D01*
X119189299Y-88109228D01*
X119190000Y-88060000D01*
X119232781Y-88059333D01*
X119307219Y-88060000D01*
X119310000Y-87980000D01*
X119310000Y-87940000D01*
X119310000Y-87900000D01*
X119450830Y-87900000D01*
X119589171Y-87900000D01*
X119706166Y-87900000D01*
X119885476Y-87900000D01*
X119940000Y-87900000D01*
G37*
X119940000Y-87900000D02*
X120020000Y-87900000D01*
X120065599Y-87900000D01*
X120100000Y-87900000D01*
X120100000Y-87976709D01*
X120100000Y-88070000D01*
X120198457Y-88070000D01*
X120281544Y-88070000D01*
X120280000Y-88220000D01*
X120253872Y-88220000D01*
X120171422Y-88220000D01*
X120108333Y-88220000D01*
X119990590Y-88220847D01*
X119940000Y-88220000D01*
X119940000Y-88169458D01*
X119940259Y-88110541D01*
X119844748Y-88109823D01*
X119706166Y-88110000D01*
X119573059Y-88110000D01*
X119470000Y-88110000D01*
X119470000Y-88157627D01*
X119470000Y-88200000D01*
X119470000Y-88230666D01*
X119470000Y-88360000D01*
X119510000Y-88360000D01*
X119570000Y-88360000D01*
X119680000Y-88360000D01*
X119710000Y-88360000D01*
X119840000Y-88360000D01*
X119910000Y-88360000D01*
X119930000Y-88360000D01*
X119930000Y-88440000D01*
X119930000Y-88550000D01*
X119880000Y-88550000D01*
X119770000Y-88550000D01*
X119716750Y-88550000D01*
X119587160Y-88550000D01*
X119500000Y-88550000D01*
X119470000Y-88550000D01*
X119470000Y-88686416D01*
X119467968Y-88824000D01*
X119710038Y-88822000D01*
X119850000Y-88820000D01*
X119916592Y-88820792D01*
X119938999Y-88820000D01*
X119939000Y-88760500D01*
X119940000Y-88700000D01*
X120060000Y-88700000D01*
X120123114Y-88700000D01*
X120230000Y-88699999D01*
X120280000Y-88700000D01*
X120280000Y-88764463D01*
X120280000Y-88880000D01*
X120190000Y-88880000D01*
X120120000Y-88880000D01*
X120120000Y-88990000D01*
X120089747Y-88990000D01*
X120025394Y-88990000D01*
X119902384Y-88990586D01*
X119707824Y-88993333D01*
X119706166Y-88993333D01*
X119514457Y-88991060D01*
X119393136Y-88990000D01*
X119328009Y-88990000D01*
X119310000Y-88990000D01*
X119310000Y-88929833D01*
X119310000Y-88860000D01*
X119240000Y-88860000D01*
X119180000Y-88860000D01*
X119180000Y-88740000D01*
X119180000Y-88690000D01*
X119180000Y-88579257D01*
X119180000Y-88530000D01*
X119240000Y-88530000D01*
X119310000Y-88530000D01*
X119310000Y-88464166D01*
X119310000Y-88370000D01*
X119240000Y-88370000D01*
X119190000Y-88370000D01*
X119190000Y-88280000D01*
X119190000Y-88230000D01*
X119189299Y-88109228D01*
X119190000Y-88060000D01*
X119232781Y-88059333D01*
X119307219Y-88060000D01*
X119310000Y-87980000D01*
X119310000Y-87940000D01*
X119310000Y-87900000D01*
X119450830Y-87900000D01*
X119589171Y-87900000D01*
X119706166Y-87900000D01*
X119885476Y-87900000D01*
X119940000Y-87900000D01*
G36*
X117810000Y-87910000D02*
G01*
X117813338Y-88305416D01*
X117820000Y-88697000D01*
X117187333Y-88697000D01*
X117187333Y-88845166D01*
X117190000Y-88990000D01*
X117150000Y-88990000D01*
X117067966Y-88990000D01*
X117018001Y-88990000D01*
X116909582Y-88990000D01*
X116850000Y-88990000D01*
X116849523Y-88888887D01*
X116850478Y-88845166D01*
X116850000Y-88690000D01*
X116830000Y-88690000D01*
X116785166Y-88690000D01*
X116720000Y-88690000D01*
X116720000Y-88612333D01*
X116720000Y-88530000D01*
X116783312Y-88530000D01*
X116850000Y-88530000D01*
X116850000Y-88360000D01*
X116850000Y-88296592D01*
X116850000Y-88220000D01*
X116850000Y-87910000D01*
X117187333Y-87910000D01*
X117187333Y-88527666D01*
X117483666Y-88527666D01*
X117483666Y-87910000D01*
X117800000Y-87909999D01*
X117810000Y-87910000D01*
G37*
X117810000Y-87910000D02*
X117813338Y-88305416D01*
X117820000Y-88697000D01*
X117187333Y-88697000D01*
X117187333Y-88845166D01*
X117190000Y-88990000D01*
X117150000Y-88990000D01*
X117067966Y-88990000D01*
X117018001Y-88990000D01*
X116909582Y-88990000D01*
X116850000Y-88990000D01*
X116849523Y-88888887D01*
X116850478Y-88845166D01*
X116850000Y-88690000D01*
X116830000Y-88690000D01*
X116785166Y-88690000D01*
X116720000Y-88690000D01*
X116720000Y-88612333D01*
X116720000Y-88530000D01*
X116783312Y-88530000D01*
X116850000Y-88530000D01*
X116850000Y-88360000D01*
X116850000Y-88296592D01*
X116850000Y-88220000D01*
X116850000Y-87910000D01*
X117187333Y-87910000D01*
X117187333Y-88527666D01*
X117483666Y-88527666D01*
X117483666Y-87910000D01*
X117800000Y-87909999D01*
X117810000Y-87910000D01*
G36*
X115340000Y-88160000D02*
G01*
X115340000Y-88400000D01*
X114605000Y-88400666D01*
X114605000Y-88824000D01*
X114816666Y-88824000D01*
X114950000Y-88820000D01*
X115040000Y-88820000D01*
X115040000Y-88750000D01*
X115040000Y-88710000D01*
X115150000Y-88710000D01*
X115200000Y-88710000D01*
X115310000Y-88710000D01*
X115360000Y-88710000D01*
X115360000Y-88780000D01*
X115360000Y-88860000D01*
X115282333Y-88860000D01*
X115200000Y-88860000D01*
X115197666Y-88980000D01*
X115180000Y-88980000D01*
X115128630Y-88980108D01*
X115020000Y-88980000D01*
X114844353Y-88980000D01*
X114810000Y-88980000D01*
X114630000Y-88980000D01*
X114515012Y-88980000D01*
X114454861Y-88980000D01*
X114440000Y-88980000D01*
X114440000Y-88930000D01*
X114440000Y-88860000D01*
X114351000Y-88860000D01*
X114303711Y-88860000D01*
X114270000Y-88860000D01*
X114267889Y-88724834D01*
X114266333Y-88612333D01*
X114269422Y-88470469D01*
X114270000Y-88390000D01*
X114270000Y-88340000D01*
X114350000Y-88340000D01*
X114440000Y-88340000D01*
X114440000Y-88290000D01*
X114440000Y-88240000D01*
X114515756Y-88240586D01*
X114640000Y-88240000D01*
X114720000Y-88240000D01*
X114890000Y-88240000D01*
X114970000Y-88240000D01*
X115030000Y-88240000D01*
X115030000Y-88100000D01*
X114990000Y-88100000D01*
X114960000Y-88100000D01*
X114852013Y-88100000D01*
X114680000Y-88100000D01*
X114650530Y-88100479D01*
X114469470Y-88099521D01*
X114350000Y-88100000D01*
X114290000Y-88100000D01*
X114270000Y-88100000D01*
X114270000Y-88013457D01*
X114270000Y-88009083D01*
X114270000Y-87920000D01*
X114306057Y-87920000D01*
X114350000Y-87920000D01*
X114451411Y-87917767D01*
X114602013Y-87914397D01*
X114816666Y-87913833D01*
X115340000Y-87913833D01*
X115340000Y-88160000D01*
X115340000Y-88160000D01*
G37*
X115340000Y-88160000D02*
X115340000Y-88400000D01*
X114605000Y-88400666D01*
X114605000Y-88824000D01*
X114816666Y-88824000D01*
X114950000Y-88820000D01*
X115040000Y-88820000D01*
X115040000Y-88750000D01*
X115040000Y-88710000D01*
X115150000Y-88710000D01*
X115200000Y-88710000D01*
X115310000Y-88710000D01*
X115360000Y-88710000D01*
X115360000Y-88780000D01*
X115360000Y-88860000D01*
X115282333Y-88860000D01*
X115200000Y-88860000D01*
X115197666Y-88980000D01*
X115180000Y-88980000D01*
X115128630Y-88980108D01*
X115020000Y-88980000D01*
X114844353Y-88980000D01*
X114810000Y-88980000D01*
X114630000Y-88980000D01*
X114515012Y-88980000D01*
X114454861Y-88980000D01*
X114440000Y-88980000D01*
X114440000Y-88930000D01*
X114440000Y-88860000D01*
X114351000Y-88860000D01*
X114303711Y-88860000D01*
X114270000Y-88860000D01*
X114267889Y-88724834D01*
X114266333Y-88612333D01*
X114269422Y-88470469D01*
X114270000Y-88390000D01*
X114270000Y-88340000D01*
X114350000Y-88340000D01*
X114440000Y-88340000D01*
X114440000Y-88290000D01*
X114440000Y-88240000D01*
X114515756Y-88240586D01*
X114640000Y-88240000D01*
X114720000Y-88240000D01*
X114890000Y-88240000D01*
X114970000Y-88240000D01*
X115030000Y-88240000D01*
X115030000Y-88100000D01*
X114990000Y-88100000D01*
X114960000Y-88100000D01*
X114852013Y-88100000D01*
X114680000Y-88100000D01*
X114650530Y-88100479D01*
X114469470Y-88099521D01*
X114350000Y-88100000D01*
X114290000Y-88100000D01*
X114270000Y-88100000D01*
X114270000Y-88013457D01*
X114270000Y-88009083D01*
X114270000Y-87920000D01*
X114306057Y-87920000D01*
X114350000Y-87920000D01*
X114451411Y-87917767D01*
X114602013Y-87914397D01*
X114816666Y-87913833D01*
X115340000Y-87913833D01*
X115340000Y-88160000D01*
G36*
X127864170Y-91120000D02*
G01*
X127977688Y-91120000D01*
X128040000Y-91119999D01*
X128070000Y-91120000D01*
X128070000Y-91200000D01*
X128070000Y-91270000D01*
X128151666Y-91270000D01*
X128188720Y-91270000D01*
X128230000Y-91270000D01*
X128230000Y-91370000D01*
X128230000Y-91480000D01*
X128230000Y-91660000D01*
X128230000Y-91740000D01*
X128230000Y-92210666D01*
X128067000Y-92210666D01*
X127960000Y-92210000D01*
X127900000Y-92210000D01*
X127898045Y-92106220D01*
X127897666Y-92062500D01*
X127897666Y-91910000D01*
X127480000Y-91910000D01*
X127480000Y-92062500D01*
X127480000Y-92210000D01*
X127440000Y-92210000D01*
X127354966Y-92210335D01*
X127305000Y-92210666D01*
X127150000Y-92210666D01*
X127150000Y-91740000D01*
X127150000Y-91540000D01*
X127150000Y-91390000D01*
X127150000Y-91321666D01*
X127474333Y-91321666D01*
X127474333Y-91745000D01*
X127897666Y-91745000D01*
X127897666Y-91321666D01*
X127474333Y-91321666D01*
X127150000Y-91320000D01*
X127150000Y-91310000D01*
X127150000Y-91280000D01*
X127194229Y-91280000D01*
X127280000Y-91280000D01*
X127280000Y-91194666D01*
X127280000Y-91120000D01*
X127330000Y-91120000D01*
X127410000Y-91120000D01*
X127560000Y-91120000D01*
X127690000Y-91120000D01*
X127830000Y-91120000D01*
X127864170Y-91120000D01*
G37*
X127864170Y-91120000D02*
X127977688Y-91120000D01*
X128040000Y-91119999D01*
X128070000Y-91120000D01*
X128070000Y-91200000D01*
X128070000Y-91270000D01*
X128151666Y-91270000D01*
X128188720Y-91270000D01*
X128230000Y-91270000D01*
X128230000Y-91370000D01*
X128230000Y-91480000D01*
X128230000Y-91660000D01*
X128230000Y-91740000D01*
X128230000Y-92210666D01*
X128067000Y-92210666D01*
X127960000Y-92210000D01*
X127900000Y-92210000D01*
X127898045Y-92106220D01*
X127897666Y-92062500D01*
X127897666Y-91910000D01*
X127480000Y-91910000D01*
X127480000Y-92062500D01*
X127480000Y-92210000D01*
X127440000Y-92210000D01*
X127354966Y-92210335D01*
X127305000Y-92210666D01*
X127150000Y-92210666D01*
X127150000Y-91740000D01*
X127150000Y-91540000D01*
X127150000Y-91390000D01*
X127150000Y-91321666D01*
X127474333Y-91321666D01*
X127474333Y-91745000D01*
X127897666Y-91745000D01*
X127897666Y-91321666D01*
X127474333Y-91321666D01*
X127150000Y-91320000D01*
X127150000Y-91310000D01*
X127150000Y-91280000D01*
X127194229Y-91280000D01*
X127280000Y-91280000D01*
X127280000Y-91194666D01*
X127280000Y-91120000D01*
X127330000Y-91120000D01*
X127410000Y-91120000D01*
X127560000Y-91120000D01*
X127690000Y-91120000D01*
X127830000Y-91120000D01*
X127864170Y-91120000D01*
G36*
X127679508Y-93580000D02*
G01*
X127760000Y-93580000D01*
X128210000Y-93580000D01*
X128220000Y-94670000D01*
X127750000Y-94670000D01*
X127540000Y-94670000D01*
X127402138Y-94670000D01*
X127320000Y-94670000D01*
X127290000Y-94670000D01*
X127290000Y-94610000D01*
X127290000Y-94580000D01*
X127290001Y-94511142D01*
X127200436Y-94508857D01*
X127149154Y-94510000D01*
X127150000Y-94390000D01*
X127150000Y-94350000D01*
X127149436Y-94238913D01*
X127150000Y-94200000D01*
X127199166Y-94200333D01*
X127474333Y-94200333D01*
X127474333Y-94496666D01*
X127897666Y-94496666D01*
X127897666Y-94200333D01*
X127474333Y-94200333D01*
X127199166Y-94215166D01*
X127290000Y-94204833D01*
X127290000Y-94140000D01*
X127290000Y-94080000D01*
X127199166Y-94080000D01*
X127150000Y-94080000D01*
X127150577Y-93952682D01*
X127149712Y-93902000D01*
X127150288Y-93778000D01*
X127150000Y-93735450D01*
X127194229Y-93734666D01*
X127474333Y-93734666D01*
X127474333Y-94031000D01*
X127897666Y-94031000D01*
X127897666Y-93734666D01*
X127474333Y-93734666D01*
X127197115Y-93742333D01*
X127281443Y-93737667D01*
X127279279Y-93650000D01*
X127280722Y-93580000D01*
X127320000Y-93580000D01*
X127388494Y-93580000D01*
X127502088Y-93580000D01*
X127650000Y-93580000D01*
X127679508Y-93580000D01*
G37*
X127679508Y-93580000D02*
X127760000Y-93580000D01*
X128210000Y-93580000D01*
X128220000Y-94670000D01*
X127750000Y-94670000D01*
X127540000Y-94670000D01*
X127402138Y-94670000D01*
X127320000Y-94670000D01*
X127290000Y-94670000D01*
X127290000Y-94610000D01*
X127290000Y-94580000D01*
X127290001Y-94511142D01*
X127200436Y-94508857D01*
X127149154Y-94510000D01*
X127150000Y-94390000D01*
X127150000Y-94350000D01*
X127149436Y-94238913D01*
X127150000Y-94200000D01*
X127199166Y-94200333D01*
X127474333Y-94200333D01*
X127474333Y-94496666D01*
X127897666Y-94496666D01*
X127897666Y-94200333D01*
X127474333Y-94200333D01*
X127199166Y-94215166D01*
X127290000Y-94204833D01*
X127290000Y-94140000D01*
X127290000Y-94080000D01*
X127199166Y-94080000D01*
X127150000Y-94080000D01*
X127150577Y-93952682D01*
X127149712Y-93902000D01*
X127150288Y-93778000D01*
X127150000Y-93735450D01*
X127194229Y-93734666D01*
X127474333Y-93734666D01*
X127474333Y-94031000D01*
X127897666Y-94031000D01*
X127897666Y-93734666D01*
X127474333Y-93734666D01*
X127197115Y-93742333D01*
X127281443Y-93737667D01*
X127279279Y-93650000D01*
X127280722Y-93580000D01*
X127320000Y-93580000D01*
X127388494Y-93580000D01*
X127502088Y-93580000D01*
X127650000Y-93580000D01*
X127679508Y-93580000D01*
G36*
X103767666Y-87511666D02*
G01*
X106265333Y-87511666D01*
X106265333Y-92549333D01*
X103767666Y-92549333D01*
X103767666Y-95047000D01*
X96274666Y-95047000D01*
X96274666Y-92507000D01*
X101270000Y-92507000D01*
X101270000Y-87554000D01*
X96274666Y-87554000D01*
X96274666Y-85014000D01*
X103767666Y-85014000D01*
X103767666Y-87511666D01*
X103767666Y-87511666D01*
G37*
X103767666Y-87511666D02*
X106265333Y-87511666D01*
X106265333Y-92549333D01*
X103767666Y-92549333D01*
X103767666Y-95047000D01*
X96274666Y-95047000D01*
X96274666Y-92507000D01*
X101270000Y-92507000D01*
X101270000Y-87554000D01*
X96274666Y-87554000D01*
X96274666Y-85014000D01*
X103767666Y-85014000D01*
X103767666Y-87511666D01*
G36*
X91279333Y-92507000D02*
G01*
X93777000Y-92507000D01*
X93777000Y-95047000D01*
X92535222Y-95047000D01*
X92219087Y-95046072D01*
X91930712Y-95043451D01*
X91680881Y-95039375D01*
X91480377Y-95034084D01*
X91339984Y-95027817D01*
X91270486Y-95020815D01*
X91265222Y-95018777D01*
X91257997Y-94970774D01*
X91251455Y-94848990D01*
X91245843Y-94664312D01*
X91241407Y-94427625D01*
X91238393Y-94149815D01*
X91237047Y-93841766D01*
X91237000Y-93770583D01*
X91237000Y-92550612D01*
X88760500Y-92528166D01*
X88749687Y-88771083D01*
X88738875Y-85014000D01*
X91279333Y-85014000D01*
X91279333Y-92507000D01*
X91279333Y-92507000D01*
G37*
X91279333Y-92507000D02*
X93777000Y-92507000D01*
X93777000Y-95047000D01*
X92535222Y-95047000D01*
X92219087Y-95046072D01*
X91930712Y-95043451D01*
X91680881Y-95039375D01*
X91480377Y-95034084D01*
X91339984Y-95027817D01*
X91270486Y-95020815D01*
X91265222Y-95018777D01*
X91257997Y-94970774D01*
X91251455Y-94848990D01*
X91245843Y-94664312D01*
X91241407Y-94427625D01*
X91238393Y-94149815D01*
X91237047Y-93841766D01*
X91237000Y-93770583D01*
X91237000Y-92550612D01*
X88760500Y-92528166D01*
X88749687Y-88771083D01*
X88738875Y-85014000D01*
X91279333Y-85014000D01*
X91279333Y-92507000D01*
G36*
X127890000Y-96019992D02*
G01*
X127969721Y-96020000D01*
X128034447Y-96020000D01*
X128070000Y-96020000D01*
X128070000Y-96109992D01*
X128070000Y-96189992D01*
X128151666Y-96189992D01*
X128220000Y-96189992D01*
X128230000Y-96189992D01*
X128230235Y-96295631D01*
X128230000Y-96419992D01*
X128230000Y-96570992D01*
X128230000Y-96759992D01*
X128228287Y-96864490D01*
X128230000Y-96979992D01*
X128185049Y-96979992D01*
X128140000Y-96979992D01*
X128070000Y-96979992D01*
X128070000Y-97036658D01*
X128070000Y-97119992D01*
X128032238Y-97119992D01*
X127970000Y-97119992D01*
X127844191Y-97120196D01*
X127664833Y-97121325D01*
X127477915Y-97120046D01*
X127359945Y-97119992D01*
X127300000Y-97119992D01*
X127270000Y-97119992D01*
X127270000Y-97029992D01*
X127270000Y-96959992D01*
X127204583Y-96959992D01*
X127140000Y-96959992D01*
X127140000Y-96867325D01*
X127140000Y-96789992D01*
X127220000Y-96789992D01*
X127300000Y-96789992D01*
X127390000Y-96789992D01*
X127460000Y-96789992D01*
X127460000Y-96939992D01*
X127460000Y-96949992D01*
X127560000Y-96949992D01*
X127680313Y-96951972D01*
X127730000Y-96951992D01*
X127897666Y-96951992D01*
X127897666Y-96189992D01*
X127690937Y-96189992D01*
X127460000Y-96190000D01*
X127460000Y-96220000D01*
X127460000Y-96369992D01*
X127440000Y-96369992D01*
X127400000Y-96369992D01*
X127330000Y-96369992D01*
X127280000Y-96369992D01*
X127180000Y-96369992D01*
X127141322Y-96370000D01*
X127140000Y-96280000D01*
X127140000Y-96190000D01*
X127199166Y-96189992D01*
X127270000Y-96190000D01*
X127270000Y-96105325D01*
X127270000Y-96019992D01*
X127297428Y-96019992D01*
X127360000Y-96019992D01*
X127490000Y-96020000D01*
X127520000Y-96020000D01*
X127850000Y-96020000D01*
X127890000Y-96019992D01*
G37*
X127890000Y-96019992D02*
X127969721Y-96020000D01*
X128034447Y-96020000D01*
X128070000Y-96020000D01*
X128070000Y-96109992D01*
X128070000Y-96189992D01*
X128151666Y-96189992D01*
X128220000Y-96189992D01*
X128230000Y-96189992D01*
X128230235Y-96295631D01*
X128230000Y-96419992D01*
X128230000Y-96570992D01*
X128230000Y-96759992D01*
X128228287Y-96864490D01*
X128230000Y-96979992D01*
X128185049Y-96979992D01*
X128140000Y-96979992D01*
X128070000Y-96979992D01*
X128070000Y-97036658D01*
X128070000Y-97119992D01*
X128032238Y-97119992D01*
X127970000Y-97119992D01*
X127844191Y-97120196D01*
X127664833Y-97121325D01*
X127477915Y-97120046D01*
X127359945Y-97119992D01*
X127300000Y-97119992D01*
X127270000Y-97119992D01*
X127270000Y-97029992D01*
X127270000Y-96959992D01*
X127204583Y-96959992D01*
X127140000Y-96959992D01*
X127140000Y-96867325D01*
X127140000Y-96789992D01*
X127220000Y-96789992D01*
X127300000Y-96789992D01*
X127390000Y-96789992D01*
X127460000Y-96789992D01*
X127460000Y-96939992D01*
X127460000Y-96949992D01*
X127560000Y-96949992D01*
X127680313Y-96951972D01*
X127730000Y-96951992D01*
X127897666Y-96951992D01*
X127897666Y-96189992D01*
X127690937Y-96189992D01*
X127460000Y-96190000D01*
X127460000Y-96220000D01*
X127460000Y-96369992D01*
X127440000Y-96369992D01*
X127400000Y-96369992D01*
X127330000Y-96369992D01*
X127280000Y-96369992D01*
X127180000Y-96369992D01*
X127141322Y-96370000D01*
X127140000Y-96280000D01*
X127140000Y-96190000D01*
X127199166Y-96189992D01*
X127270000Y-96190000D01*
X127270000Y-96105325D01*
X127270000Y-96019992D01*
X127297428Y-96019992D01*
X127360000Y-96019992D01*
X127490000Y-96020000D01*
X127520000Y-96020000D01*
X127850000Y-96020000D01*
X127890000Y-96019992D01*
G36*
X128215166Y-99570000D02*
G01*
X127770000Y-99570000D01*
X127550000Y-99570000D01*
X127420650Y-99570000D01*
X127340000Y-99570000D01*
X127310000Y-99570000D01*
X127280000Y-99570000D01*
X127280000Y-99493468D01*
X127280000Y-99410000D01*
X127194229Y-99410000D01*
X127140000Y-99410000D01*
X127140000Y-99320000D01*
X127140000Y-99195923D01*
X127140000Y-99026333D01*
X127140000Y-98840000D01*
X127140000Y-98724679D01*
X127140000Y-98640000D01*
X127200000Y-98640000D01*
X127240000Y-98650000D01*
X127474333Y-98645333D01*
X127474333Y-99407333D01*
X127897666Y-99407333D01*
X127897666Y-98645333D01*
X127474333Y-98645333D01*
X127200000Y-98640000D01*
X127290000Y-98640000D01*
X127290000Y-98560666D01*
X127290000Y-98524327D01*
X127290000Y-98480000D01*
X127360000Y-98480000D01*
X127459546Y-98480000D01*
X127680000Y-98480000D01*
X127750764Y-98480000D01*
X128220000Y-98480000D01*
X128215166Y-99555500D01*
X128215166Y-99570000D01*
G37*
X128215166Y-99570000D02*
X127770000Y-99570000D01*
X127550000Y-99570000D01*
X127420650Y-99570000D01*
X127340000Y-99570000D01*
X127310000Y-99570000D01*
X127280000Y-99570000D01*
X127280000Y-99493468D01*
X127280000Y-99410000D01*
X127194229Y-99410000D01*
X127140000Y-99410000D01*
X127140000Y-99320000D01*
X127140000Y-99195923D01*
X127140000Y-99026333D01*
X127140000Y-98840000D01*
X127140000Y-98724679D01*
X127140000Y-98640000D01*
X127200000Y-98640000D01*
X127240000Y-98650000D01*
X127474333Y-98645333D01*
X127474333Y-99407333D01*
X127897666Y-99407333D01*
X127897666Y-98645333D01*
X127474333Y-98645333D01*
X127200000Y-98640000D01*
X127290000Y-98640000D01*
X127290000Y-98560666D01*
X127290000Y-98524327D01*
X127290000Y-98480000D01*
X127360000Y-98480000D01*
X127459546Y-98480000D01*
X127680000Y-98480000D01*
X127750764Y-98480000D01*
X128220000Y-98480000D01*
X128215166Y-99555500D01*
X128215166Y-99570000D01*
G36*
X128215166Y-102040000D02*
G01*
X127140000Y-102034529D01*
X127140000Y-101927431D01*
X127140000Y-101876734D01*
X127140000Y-101830000D01*
X127210624Y-101830000D01*
X127320000Y-101830000D01*
X127470000Y-101830000D01*
X127510000Y-101830000D01*
X127897666Y-101830000D01*
X127897666Y-101570042D01*
X127590000Y-101570000D01*
X127427358Y-101570000D01*
X127330000Y-101570000D01*
X127270000Y-101570000D01*
X127270594Y-101471083D01*
X127270000Y-101390000D01*
X127310000Y-101390000D01*
X127392433Y-101390000D01*
X127542410Y-101390000D01*
X127577062Y-101390000D01*
X127897666Y-101390000D01*
X127897666Y-101100666D01*
X127516666Y-101100666D01*
X127335649Y-101099251D01*
X127220000Y-101100000D01*
X127160000Y-101100000D01*
X127139356Y-101100000D01*
X127140000Y-101016000D01*
X127140325Y-100940000D01*
X127140000Y-100930000D01*
X127220000Y-100930000D01*
X127318031Y-100930000D01*
X127476768Y-100930000D01*
X127687264Y-100931333D01*
X128220000Y-100930000D01*
X128215166Y-102010833D01*
X128215166Y-102040000D01*
G37*
X128215166Y-102040000D02*
X127140000Y-102034529D01*
X127140000Y-101927431D01*
X127140000Y-101876734D01*
X127140000Y-101830000D01*
X127210624Y-101830000D01*
X127320000Y-101830000D01*
X127470000Y-101830000D01*
X127510000Y-101830000D01*
X127897666Y-101830000D01*
X127897666Y-101570042D01*
X127590000Y-101570000D01*
X127427358Y-101570000D01*
X127330000Y-101570000D01*
X127270000Y-101570000D01*
X127270594Y-101471083D01*
X127270000Y-101390000D01*
X127310000Y-101390000D01*
X127392433Y-101390000D01*
X127542410Y-101390000D01*
X127577062Y-101390000D01*
X127897666Y-101390000D01*
X127897666Y-101100666D01*
X127516666Y-101100666D01*
X127335649Y-101099251D01*
X127220000Y-101100000D01*
X127160000Y-101100000D01*
X127139356Y-101100000D01*
X127140000Y-101016000D01*
X127140325Y-100940000D01*
X127140000Y-100930000D01*
X127220000Y-100930000D01*
X127318031Y-100930000D01*
X127476768Y-100930000D01*
X127687264Y-100931333D01*
X128220000Y-100930000D01*
X128215166Y-102010833D01*
X128215166Y-102040000D01*
G36*
X125781000Y-102624666D02*
G01*
X113335000Y-102624666D01*
X113335000Y-100169333D01*
X113504333Y-100169333D01*
X113504333Y-102455333D01*
X115790333Y-102455333D01*
X115790333Y-100169333D01*
X115959666Y-100169333D01*
X115959666Y-102455333D01*
X118245666Y-102455333D01*
X118245666Y-100169333D01*
X118415000Y-100169333D01*
X118415000Y-102455333D01*
X120701000Y-102455333D01*
X120701000Y-100169333D01*
X120870333Y-100169333D01*
X120870333Y-102455333D01*
X123156333Y-102455333D01*
X123156333Y-100169333D01*
X123325666Y-100169333D01*
X123325666Y-102455333D01*
X125611666Y-102455333D01*
X125611666Y-100169333D01*
X123325666Y-100169333D01*
X123156333Y-100169333D01*
X120870333Y-100169333D01*
X120701000Y-100169333D01*
X118415000Y-100169333D01*
X118245666Y-100169333D01*
X115959666Y-100169333D01*
X115790333Y-100169333D01*
X113504333Y-100169333D01*
X113335000Y-100169333D01*
X113335000Y-100000000D01*
X113502950Y-100000000D01*
X115790333Y-100000000D01*
X115790333Y-97719080D01*
X115959666Y-97714000D01*
X115959666Y-100000000D01*
X118245666Y-100000000D01*
X118245666Y-97714000D01*
X118415000Y-97714000D01*
X118415000Y-100000000D01*
X120701000Y-100000000D01*
X120701000Y-97714000D01*
X120870333Y-97714000D01*
X120870333Y-100000000D01*
X123156333Y-100000000D01*
X123325666Y-100000000D01*
X125613049Y-100000000D01*
X125601774Y-98867583D01*
X125590500Y-97735166D01*
X124458083Y-97723891D01*
X123325666Y-97712617D01*
X123325666Y-100000000D01*
X123156333Y-100000000D01*
X123156333Y-97714000D01*
X120870333Y-97714000D01*
X120701000Y-97714000D01*
X118415000Y-97714000D01*
X118245666Y-97714000D01*
X115959666Y-97714000D01*
X115793720Y-97724160D01*
X115790333Y-97719080D01*
X114657916Y-97723891D01*
X113507720Y-97724160D01*
X113502950Y-100000000D01*
X113335000Y-100000000D01*
X113335000Y-95301000D01*
X113504333Y-95301000D01*
X113504333Y-97544666D01*
X115790333Y-97544666D01*
X115790333Y-95301000D01*
X115959666Y-95301000D01*
X115959666Y-97544666D01*
X118245666Y-97544666D01*
X118245666Y-95301000D01*
X118415000Y-95301000D01*
X118415000Y-97544666D01*
X120701000Y-97544666D01*
X120701000Y-95301000D01*
X120870333Y-95301000D01*
X120870333Y-97544666D01*
X123156333Y-97544666D01*
X123156333Y-95301000D01*
X123325666Y-95301000D01*
X123325666Y-97544666D01*
X125611666Y-97544666D01*
X125611666Y-95301000D01*
X123325666Y-95301000D01*
X123156333Y-95301000D01*
X120870333Y-95301000D01*
X120701000Y-95301000D01*
X118415000Y-95301000D01*
X118245666Y-95301000D01*
X115959666Y-95301000D01*
X115790333Y-95301000D01*
X113504333Y-95301000D01*
X113335000Y-95301000D01*
X113335000Y-92845666D01*
X113504333Y-92845666D01*
X113504333Y-95089333D01*
X115790333Y-95089333D01*
X115790333Y-92845666D01*
X115959666Y-92845666D01*
X115959666Y-95089333D01*
X118245666Y-95089333D01*
X118245666Y-92845666D01*
X118415000Y-92845666D01*
X118415000Y-95089333D01*
X120701000Y-95089333D01*
X120701000Y-92845666D01*
X120870333Y-92845666D01*
X120870333Y-95089333D01*
X123156333Y-95089333D01*
X123156333Y-92845666D01*
X123325666Y-92845666D01*
X123325666Y-95089333D01*
X125611666Y-95089333D01*
X125611666Y-92845666D01*
X123325666Y-92845666D01*
X123156333Y-92845666D01*
X120870333Y-92845666D01*
X120701000Y-92845666D01*
X118415000Y-92845666D01*
X118245666Y-92845666D01*
X115959666Y-92845666D01*
X115790333Y-92845666D01*
X113504333Y-92845666D01*
X113335000Y-92845666D01*
X113335000Y-90390333D01*
X113504333Y-90390333D01*
X113504333Y-91505111D01*
X113505364Y-91804192D01*
X113508268Y-92075087D01*
X113512764Y-92306377D01*
X113510000Y-92486641D01*
X113510000Y-92600000D01*
X113510000Y-92670000D01*
X113580816Y-92670000D01*
X113701162Y-92670909D01*
X113886817Y-92670000D01*
X114119391Y-92672599D01*
X114392113Y-92675409D01*
X114675555Y-92676333D01*
X115790333Y-92676333D01*
X115790333Y-90390333D01*
X115959666Y-90390333D01*
X115959666Y-91505111D01*
X115960697Y-91804192D01*
X115963601Y-92075087D01*
X115960000Y-92290000D01*
X115960000Y-92486641D01*
X115960000Y-92600000D01*
X115960000Y-92670000D01*
X116036150Y-92670000D01*
X116157656Y-92670000D01*
X116340988Y-92670000D01*
X116574724Y-92672599D01*
X116847446Y-92675409D01*
X117130888Y-92676333D01*
X118245666Y-92676333D01*
X118245666Y-90390333D01*
X118415000Y-90390333D01*
X118415000Y-92676333D01*
X120701000Y-92676333D01*
X120701000Y-90390333D01*
X120870333Y-90390333D01*
X120870333Y-92677716D01*
X122002750Y-92666441D01*
X123140000Y-92670000D01*
X123146441Y-91522750D01*
X123157716Y-90390333D01*
X123325666Y-90390333D01*
X123325666Y-92677716D01*
X125610000Y-92660000D01*
X125610000Y-91520000D01*
X125613049Y-90390333D01*
X123325666Y-90390333D01*
X123157716Y-90390333D01*
X120870333Y-90390333D01*
X120701000Y-90390333D01*
X118415000Y-90390333D01*
X118245666Y-90390333D01*
X115959666Y-90390333D01*
X115790333Y-90390333D01*
X113504333Y-90390333D01*
X113335000Y-90390333D01*
X113335000Y-90221000D01*
X125781000Y-90221000D01*
X125781000Y-102624666D01*
X125781000Y-102624666D01*
G37*
X125781000Y-102624666D02*
X113335000Y-102624666D01*
X113335000Y-100169333D01*
X113504333Y-100169333D01*
X113504333Y-102455333D01*
X115790333Y-102455333D01*
X115790333Y-100169333D01*
X115959666Y-100169333D01*
X115959666Y-102455333D01*
X118245666Y-102455333D01*
X118245666Y-100169333D01*
X118415000Y-100169333D01*
X118415000Y-102455333D01*
X120701000Y-102455333D01*
X120701000Y-100169333D01*
X120870333Y-100169333D01*
X120870333Y-102455333D01*
X123156333Y-102455333D01*
X123156333Y-100169333D01*
X123325666Y-100169333D01*
X123325666Y-102455333D01*
X125611666Y-102455333D01*
X125611666Y-100169333D01*
X123325666Y-100169333D01*
X123156333Y-100169333D01*
X120870333Y-100169333D01*
X120701000Y-100169333D01*
X118415000Y-100169333D01*
X118245666Y-100169333D01*
X115959666Y-100169333D01*
X115790333Y-100169333D01*
X113504333Y-100169333D01*
X113335000Y-100169333D01*
X113335000Y-100000000D01*
X113502950Y-100000000D01*
X115790333Y-100000000D01*
X115790333Y-97719080D01*
X115959666Y-97714000D01*
X115959666Y-100000000D01*
X118245666Y-100000000D01*
X118245666Y-97714000D01*
X118415000Y-97714000D01*
X118415000Y-100000000D01*
X120701000Y-100000000D01*
X120701000Y-97714000D01*
X120870333Y-97714000D01*
X120870333Y-100000000D01*
X123156333Y-100000000D01*
X123325666Y-100000000D01*
X125613049Y-100000000D01*
X125601774Y-98867583D01*
X125590500Y-97735166D01*
X124458083Y-97723891D01*
X123325666Y-97712617D01*
X123325666Y-100000000D01*
X123156333Y-100000000D01*
X123156333Y-97714000D01*
X120870333Y-97714000D01*
X120701000Y-97714000D01*
X118415000Y-97714000D01*
X118245666Y-97714000D01*
X115959666Y-97714000D01*
X115793720Y-97724160D01*
X115790333Y-97719080D01*
X114657916Y-97723891D01*
X113507720Y-97724160D01*
X113502950Y-100000000D01*
X113335000Y-100000000D01*
X113335000Y-95301000D01*
X113504333Y-95301000D01*
X113504333Y-97544666D01*
X115790333Y-97544666D01*
X115790333Y-95301000D01*
X115959666Y-95301000D01*
X115959666Y-97544666D01*
X118245666Y-97544666D01*
X118245666Y-95301000D01*
X118415000Y-95301000D01*
X118415000Y-97544666D01*
X120701000Y-97544666D01*
X120701000Y-95301000D01*
X120870333Y-95301000D01*
X120870333Y-97544666D01*
X123156333Y-97544666D01*
X123156333Y-95301000D01*
X123325666Y-95301000D01*
X123325666Y-97544666D01*
X125611666Y-97544666D01*
X125611666Y-95301000D01*
X123325666Y-95301000D01*
X123156333Y-95301000D01*
X120870333Y-95301000D01*
X120701000Y-95301000D01*
X118415000Y-95301000D01*
X118245666Y-95301000D01*
X115959666Y-95301000D01*
X115790333Y-95301000D01*
X113504333Y-95301000D01*
X113335000Y-95301000D01*
X113335000Y-92845666D01*
X113504333Y-92845666D01*
X113504333Y-95089333D01*
X115790333Y-95089333D01*
X115790333Y-92845666D01*
X115959666Y-92845666D01*
X115959666Y-95089333D01*
X118245666Y-95089333D01*
X118245666Y-92845666D01*
X118415000Y-92845666D01*
X118415000Y-95089333D01*
X120701000Y-95089333D01*
X120701000Y-92845666D01*
X120870333Y-92845666D01*
X120870333Y-95089333D01*
X123156333Y-95089333D01*
X123156333Y-92845666D01*
X123325666Y-92845666D01*
X123325666Y-95089333D01*
X125611666Y-95089333D01*
X125611666Y-92845666D01*
X123325666Y-92845666D01*
X123156333Y-92845666D01*
X120870333Y-92845666D01*
X120701000Y-92845666D01*
X118415000Y-92845666D01*
X118245666Y-92845666D01*
X115959666Y-92845666D01*
X115790333Y-92845666D01*
X113504333Y-92845666D01*
X113335000Y-92845666D01*
X113335000Y-90390333D01*
X113504333Y-90390333D01*
X113504333Y-91505111D01*
X113505364Y-91804192D01*
X113508268Y-92075087D01*
X113512764Y-92306377D01*
X113510000Y-92486641D01*
X113510000Y-92600000D01*
X113510000Y-92670000D01*
X113580816Y-92670000D01*
X113701162Y-92670909D01*
X113886817Y-92670000D01*
X114119391Y-92672599D01*
X114392113Y-92675409D01*
X114675555Y-92676333D01*
X115790333Y-92676333D01*
X115790333Y-90390333D01*
X115959666Y-90390333D01*
X115959666Y-91505111D01*
X115960697Y-91804192D01*
X115963601Y-92075087D01*
X115960000Y-92290000D01*
X115960000Y-92486641D01*
X115960000Y-92600000D01*
X115960000Y-92670000D01*
X116036150Y-92670000D01*
X116157656Y-92670000D01*
X116340988Y-92670000D01*
X116574724Y-92672599D01*
X116847446Y-92675409D01*
X117130888Y-92676333D01*
X118245666Y-92676333D01*
X118245666Y-90390333D01*
X118415000Y-90390333D01*
X118415000Y-92676333D01*
X120701000Y-92676333D01*
X120701000Y-90390333D01*
X120870333Y-90390333D01*
X120870333Y-92677716D01*
X122002750Y-92666441D01*
X123140000Y-92670000D01*
X123146441Y-91522750D01*
X123157716Y-90390333D01*
X123325666Y-90390333D01*
X123325666Y-92677716D01*
X125610000Y-92660000D01*
X125610000Y-91520000D01*
X125613049Y-90390333D01*
X123325666Y-90390333D01*
X123157716Y-90390333D01*
X120870333Y-90390333D01*
X120701000Y-90390333D01*
X118415000Y-90390333D01*
X118245666Y-90390333D01*
X115959666Y-90390333D01*
X115790333Y-90390333D01*
X113504333Y-90390333D01*
X113335000Y-90390333D01*
X113335000Y-90221000D01*
X125781000Y-90221000D01*
X125781000Y-102624666D01*
D11*
G36*
X88547670Y-94405507D02*
G01*
X88557377Y-94406946D01*
X88566896Y-94409331D01*
X88576136Y-94412637D01*
X88585008Y-94416833D01*
X88593425Y-94421878D01*
X88601307Y-94427724D01*
X88608579Y-94434314D01*
X89315686Y-95141421D01*
X89322276Y-95148693D01*
X89328122Y-95156575D01*
X89333167Y-95164992D01*
X89337363Y-95173864D01*
X89340669Y-95183104D01*
X89343054Y-95192623D01*
X89344493Y-95202330D01*
X89344975Y-95212132D01*
X89344493Y-95221934D01*
X89343054Y-95231641D01*
X89340669Y-95241160D01*
X89337363Y-95250400D01*
X89333167Y-95259272D01*
X89328122Y-95267689D01*
X89322276Y-95275571D01*
X89315686Y-95282843D01*
X88750001Y-95848528D01*
X88742729Y-95855118D01*
X88734847Y-95860964D01*
X88726430Y-95866009D01*
X88717558Y-95870205D01*
X88708318Y-95873511D01*
X88698799Y-95875896D01*
X88689092Y-95877335D01*
X88679290Y-95877817D01*
X88669488Y-95877335D01*
X88659781Y-95875896D01*
X88650262Y-95873511D01*
X88641022Y-95870205D01*
X88632150Y-95866009D01*
X88623733Y-95860964D01*
X88615851Y-95855118D01*
X88608579Y-95848528D01*
X87901472Y-95141421D01*
X87894882Y-95134149D01*
X87889036Y-95126267D01*
X87883991Y-95117850D01*
X87879795Y-95108978D01*
X87876489Y-95099738D01*
X87874104Y-95090219D01*
X87872665Y-95080512D01*
X87872183Y-95070710D01*
X87872665Y-95060908D01*
X87874104Y-95051201D01*
X87876489Y-95041682D01*
X87879795Y-95032442D01*
X87883991Y-95023570D01*
X87889036Y-95015153D01*
X87894882Y-95007271D01*
X87901472Y-94999999D01*
X88467157Y-94434314D01*
X88474429Y-94427724D01*
X88482311Y-94421878D01*
X88490728Y-94416833D01*
X88499600Y-94412637D01*
X88508840Y-94409331D01*
X88518359Y-94406946D01*
X88528066Y-94405507D01*
X88537868Y-94405025D01*
X88547670Y-94405507D01*
X88547670Y-94405507D01*
G37*
D12*
X88608579Y-95141421D03*
D11*
G36*
X87631371Y-93074575D02*
G01*
X87643991Y-93076447D01*
X87656366Y-93079547D01*
X87668378Y-93083845D01*
X87679911Y-93089299D01*
X87690853Y-93095858D01*
X87701100Y-93103458D01*
X87710553Y-93112025D01*
X88516654Y-93918126D01*
X88525221Y-93927579D01*
X88532821Y-93937826D01*
X88539380Y-93948768D01*
X88544834Y-93960301D01*
X88549132Y-93972313D01*
X88552232Y-93984688D01*
X88554104Y-93997308D01*
X88554730Y-94010050D01*
X88554104Y-94022792D01*
X88552232Y-94035412D01*
X88549132Y-94047787D01*
X88544834Y-94059799D01*
X88539380Y-94071332D01*
X88532821Y-94082274D01*
X88525221Y-94092521D01*
X88516654Y-94101974D01*
X87781263Y-94837365D01*
X87771810Y-94845932D01*
X87761563Y-94853532D01*
X87750621Y-94860091D01*
X87739088Y-94865545D01*
X87727076Y-94869843D01*
X87714701Y-94872943D01*
X87702081Y-94874815D01*
X87689339Y-94875441D01*
X87676597Y-94874815D01*
X87663977Y-94872943D01*
X87651602Y-94869843D01*
X87639590Y-94865545D01*
X87628057Y-94860091D01*
X87617115Y-94853532D01*
X87606868Y-94845932D01*
X87597415Y-94837365D01*
X86791314Y-94031264D01*
X86782747Y-94021811D01*
X86775147Y-94011564D01*
X86768588Y-94000622D01*
X86763134Y-93989089D01*
X86758836Y-93977077D01*
X86755736Y-93964702D01*
X86753864Y-93952082D01*
X86753238Y-93939340D01*
X86753864Y-93926598D01*
X86755736Y-93913978D01*
X86758836Y-93901603D01*
X86763134Y-93889591D01*
X86768588Y-93878058D01*
X86775147Y-93867116D01*
X86782747Y-93856869D01*
X86791314Y-93847416D01*
X87526705Y-93112025D01*
X87536158Y-93103458D01*
X87546405Y-93095858D01*
X87557347Y-93089299D01*
X87568880Y-93083845D01*
X87580892Y-93079547D01*
X87593267Y-93076447D01*
X87605887Y-93074575D01*
X87618629Y-93073949D01*
X87631371Y-93074575D01*
X87631371Y-93074575D01*
G37*
D13*
X87653984Y-93974695D03*
D11*
G36*
X89752692Y-95195896D02*
G01*
X89765312Y-95197768D01*
X89777687Y-95200868D01*
X89789699Y-95205166D01*
X89801232Y-95210620D01*
X89812174Y-95217179D01*
X89822421Y-95224779D01*
X89831874Y-95233346D01*
X90637975Y-96039447D01*
X90646542Y-96048900D01*
X90654142Y-96059147D01*
X90660701Y-96070089D01*
X90666155Y-96081622D01*
X90670453Y-96093634D01*
X90673553Y-96106009D01*
X90675425Y-96118629D01*
X90676051Y-96131371D01*
X90675425Y-96144113D01*
X90673553Y-96156733D01*
X90670453Y-96169108D01*
X90666155Y-96181120D01*
X90660701Y-96192653D01*
X90654142Y-96203595D01*
X90646542Y-96213842D01*
X90637975Y-96223295D01*
X89902584Y-96958686D01*
X89893131Y-96967253D01*
X89882884Y-96974853D01*
X89871942Y-96981412D01*
X89860409Y-96986866D01*
X89848397Y-96991164D01*
X89836022Y-96994264D01*
X89823402Y-96996136D01*
X89810660Y-96996762D01*
X89797918Y-96996136D01*
X89785298Y-96994264D01*
X89772923Y-96991164D01*
X89760911Y-96986866D01*
X89749378Y-96981412D01*
X89738436Y-96974853D01*
X89728189Y-96967253D01*
X89718736Y-96958686D01*
X88912635Y-96152585D01*
X88904068Y-96143132D01*
X88896468Y-96132885D01*
X88889909Y-96121943D01*
X88884455Y-96110410D01*
X88880157Y-96098398D01*
X88877057Y-96086023D01*
X88875185Y-96073403D01*
X88874559Y-96060661D01*
X88875185Y-96047919D01*
X88877057Y-96035299D01*
X88880157Y-96022924D01*
X88884455Y-96010912D01*
X88889909Y-95999379D01*
X88896468Y-95988437D01*
X88904068Y-95978190D01*
X88912635Y-95968737D01*
X89648026Y-95233346D01*
X89657479Y-95224779D01*
X89667726Y-95217179D01*
X89678668Y-95210620D01*
X89690201Y-95205166D01*
X89702213Y-95200868D01*
X89714588Y-95197768D01*
X89727208Y-95195896D01*
X89739950Y-95195270D01*
X89752692Y-95195896D01*
X89752692Y-95195896D01*
G37*
D13*
X89775305Y-96096016D03*
D14*
X107600000Y-103750000D03*
X107600000Y-106290000D03*
D15*
X105060000Y-103750000D03*
X105060000Y-106290000D03*
X102520000Y-103750000D03*
D16*
X102520000Y-106290000D03*
D17*
X67500000Y-98750000D03*
D18*
X67500000Y-96210000D03*
D11*
G36*
X102082742Y-96150626D02*
G01*
X102095362Y-96152498D01*
X102107737Y-96155598D01*
X102119749Y-96159896D01*
X102131282Y-96165350D01*
X102142224Y-96171909D01*
X102152471Y-96179509D01*
X102161924Y-96188076D01*
X102170491Y-96197529D01*
X102178091Y-96207776D01*
X102184650Y-96218718D01*
X102190104Y-96230251D01*
X102194402Y-96242263D01*
X102197502Y-96254638D01*
X102199374Y-96267258D01*
X102200000Y-96280000D01*
X102200000Y-97320000D01*
X102199374Y-97332742D01*
X102197502Y-97345362D01*
X102194402Y-97357737D01*
X102190104Y-97369749D01*
X102184650Y-97381282D01*
X102178091Y-97392224D01*
X102170491Y-97402471D01*
X102161924Y-97411924D01*
X102152471Y-97420491D01*
X102142224Y-97428091D01*
X102131282Y-97434650D01*
X102119749Y-97440104D01*
X102107737Y-97444402D01*
X102095362Y-97447502D01*
X102082742Y-97449374D01*
X102070000Y-97450000D01*
X100930000Y-97450000D01*
X100917258Y-97449374D01*
X100904638Y-97447502D01*
X100892263Y-97444402D01*
X100880251Y-97440104D01*
X100868718Y-97434650D01*
X100857776Y-97428091D01*
X100847529Y-97420491D01*
X100838076Y-97411924D01*
X100829509Y-97402471D01*
X100821909Y-97392224D01*
X100815350Y-97381282D01*
X100809896Y-97369749D01*
X100805598Y-97357737D01*
X100802498Y-97345362D01*
X100800626Y-97332742D01*
X100800000Y-97320000D01*
X100800000Y-96280000D01*
X100800626Y-96267258D01*
X100802498Y-96254638D01*
X100805598Y-96242263D01*
X100809896Y-96230251D01*
X100815350Y-96218718D01*
X100821909Y-96207776D01*
X100829509Y-96197529D01*
X100838076Y-96188076D01*
X100847529Y-96179509D01*
X100857776Y-96171909D01*
X100868718Y-96165350D01*
X100880251Y-96159896D01*
X100892263Y-96155598D01*
X100904638Y-96152498D01*
X100917258Y-96150626D01*
X100930000Y-96150000D01*
X102070000Y-96150000D01*
X102082742Y-96150626D01*
X102082742Y-96150626D01*
G37*
D13*
X101500000Y-96800000D03*
D11*
G36*
X99082742Y-96150626D02*
G01*
X99095362Y-96152498D01*
X99107737Y-96155598D01*
X99119749Y-96159896D01*
X99131282Y-96165350D01*
X99142224Y-96171909D01*
X99152471Y-96179509D01*
X99161924Y-96188076D01*
X99170491Y-96197529D01*
X99178091Y-96207776D01*
X99184650Y-96218718D01*
X99190104Y-96230251D01*
X99194402Y-96242263D01*
X99197502Y-96254638D01*
X99199374Y-96267258D01*
X99200000Y-96280000D01*
X99200000Y-97320000D01*
X99199374Y-97332742D01*
X99197502Y-97345362D01*
X99194402Y-97357737D01*
X99190104Y-97369749D01*
X99184650Y-97381282D01*
X99178091Y-97392224D01*
X99170491Y-97402471D01*
X99161924Y-97411924D01*
X99152471Y-97420491D01*
X99142224Y-97428091D01*
X99131282Y-97434650D01*
X99119749Y-97440104D01*
X99107737Y-97444402D01*
X99095362Y-97447502D01*
X99082742Y-97449374D01*
X99070000Y-97450000D01*
X97930000Y-97450000D01*
X97917258Y-97449374D01*
X97904638Y-97447502D01*
X97892263Y-97444402D01*
X97880251Y-97440104D01*
X97868718Y-97434650D01*
X97857776Y-97428091D01*
X97847529Y-97420491D01*
X97838076Y-97411924D01*
X97829509Y-97402471D01*
X97821909Y-97392224D01*
X97815350Y-97381282D01*
X97809896Y-97369749D01*
X97805598Y-97357737D01*
X97802498Y-97345362D01*
X97800626Y-97332742D01*
X97800000Y-97320000D01*
X97800000Y-96280000D01*
X97800626Y-96267258D01*
X97802498Y-96254638D01*
X97805598Y-96242263D01*
X97809896Y-96230251D01*
X97815350Y-96218718D01*
X97821909Y-96207776D01*
X97829509Y-96197529D01*
X97838076Y-96188076D01*
X97847529Y-96179509D01*
X97857776Y-96171909D01*
X97868718Y-96165350D01*
X97880251Y-96159896D01*
X97892263Y-96155598D01*
X97904638Y-96152498D01*
X97917258Y-96150626D01*
X97930000Y-96150000D01*
X99070000Y-96150000D01*
X99082742Y-96150626D01*
X99082742Y-96150626D01*
G37*
D13*
X98500000Y-96800000D03*
D11*
G36*
X100509802Y-96450482D02*
G01*
X100519509Y-96451921D01*
X100529028Y-96454306D01*
X100538268Y-96457612D01*
X100547140Y-96461808D01*
X100555557Y-96466853D01*
X100563439Y-96472699D01*
X100570711Y-96479289D01*
X100577301Y-96486561D01*
X100583147Y-96494443D01*
X100588192Y-96502860D01*
X100592388Y-96511732D01*
X100595694Y-96520972D01*
X100598079Y-96530491D01*
X100599518Y-96540198D01*
X100600000Y-96550000D01*
X100600000Y-97350000D01*
X100599518Y-97359802D01*
X100598079Y-97369509D01*
X100595694Y-97379028D01*
X100592388Y-97388268D01*
X100588192Y-97397140D01*
X100583147Y-97405557D01*
X100577301Y-97413439D01*
X100570711Y-97420711D01*
X100563439Y-97427301D01*
X100555557Y-97433147D01*
X100547140Y-97438192D01*
X100538268Y-97442388D01*
X100529028Y-97445694D01*
X100519509Y-97448079D01*
X100509802Y-97449518D01*
X100500000Y-97450000D01*
X99500000Y-97450000D01*
X99490198Y-97449518D01*
X99480491Y-97448079D01*
X99470972Y-97445694D01*
X99461732Y-97442388D01*
X99452860Y-97438192D01*
X99444443Y-97433147D01*
X99436561Y-97427301D01*
X99429289Y-97420711D01*
X99422699Y-97413439D01*
X99416853Y-97405557D01*
X99411808Y-97397140D01*
X99407612Y-97388268D01*
X99404306Y-97379028D01*
X99401921Y-97369509D01*
X99400482Y-97359802D01*
X99400000Y-97350000D01*
X99400000Y-96550000D01*
X99400482Y-96540198D01*
X99401921Y-96530491D01*
X99404306Y-96520972D01*
X99407612Y-96511732D01*
X99411808Y-96502860D01*
X99416853Y-96494443D01*
X99422699Y-96486561D01*
X99429289Y-96479289D01*
X99436561Y-96472699D01*
X99444443Y-96466853D01*
X99452860Y-96461808D01*
X99461732Y-96457612D01*
X99470972Y-96454306D01*
X99480491Y-96451921D01*
X99490198Y-96450482D01*
X99500000Y-96450000D01*
X100500000Y-96450000D01*
X100509802Y-96450482D01*
X100509802Y-96450482D01*
G37*
D12*
X100000000Y-96950000D03*
D11*
G36*
X108609802Y-89400482D02*
G01*
X108619509Y-89401921D01*
X108629028Y-89404306D01*
X108638268Y-89407612D01*
X108647140Y-89411808D01*
X108655557Y-89416853D01*
X108663439Y-89422699D01*
X108670711Y-89429289D01*
X108677301Y-89436561D01*
X108683147Y-89444443D01*
X108688192Y-89452860D01*
X108692388Y-89461732D01*
X108695694Y-89470972D01*
X108698079Y-89480491D01*
X108699518Y-89490198D01*
X108700000Y-89500000D01*
X108700000Y-90500000D01*
X108699518Y-90509802D01*
X108698079Y-90519509D01*
X108695694Y-90529028D01*
X108692388Y-90538268D01*
X108688192Y-90547140D01*
X108683147Y-90555557D01*
X108677301Y-90563439D01*
X108670711Y-90570711D01*
X108663439Y-90577301D01*
X108655557Y-90583147D01*
X108647140Y-90588192D01*
X108638268Y-90592388D01*
X108629028Y-90595694D01*
X108619509Y-90598079D01*
X108609802Y-90599518D01*
X108600000Y-90600000D01*
X107800000Y-90600000D01*
X107790198Y-90599518D01*
X107780491Y-90598079D01*
X107770972Y-90595694D01*
X107761732Y-90592388D01*
X107752860Y-90588192D01*
X107744443Y-90583147D01*
X107736561Y-90577301D01*
X107729289Y-90570711D01*
X107722699Y-90563439D01*
X107716853Y-90555557D01*
X107711808Y-90547140D01*
X107707612Y-90538268D01*
X107704306Y-90529028D01*
X107701921Y-90519509D01*
X107700482Y-90509802D01*
X107700000Y-90500000D01*
X107700000Y-89500000D01*
X107700482Y-89490198D01*
X107701921Y-89480491D01*
X107704306Y-89470972D01*
X107707612Y-89461732D01*
X107711808Y-89452860D01*
X107716853Y-89444443D01*
X107722699Y-89436561D01*
X107729289Y-89429289D01*
X107736561Y-89422699D01*
X107744443Y-89416853D01*
X107752860Y-89411808D01*
X107761732Y-89407612D01*
X107770972Y-89404306D01*
X107780491Y-89401921D01*
X107790198Y-89400482D01*
X107800000Y-89400000D01*
X108600000Y-89400000D01*
X108609802Y-89400482D01*
X108609802Y-89400482D01*
G37*
D12*
X108200000Y-90000000D03*
D11*
G36*
X108582742Y-90800626D02*
G01*
X108595362Y-90802498D01*
X108607737Y-90805598D01*
X108619749Y-90809896D01*
X108631282Y-90815350D01*
X108642224Y-90821909D01*
X108652471Y-90829509D01*
X108661924Y-90838076D01*
X108670491Y-90847529D01*
X108678091Y-90857776D01*
X108684650Y-90868718D01*
X108690104Y-90880251D01*
X108694402Y-90892263D01*
X108697502Y-90904638D01*
X108699374Y-90917258D01*
X108700000Y-90930000D01*
X108700000Y-92070000D01*
X108699374Y-92082742D01*
X108697502Y-92095362D01*
X108694402Y-92107737D01*
X108690104Y-92119749D01*
X108684650Y-92131282D01*
X108678091Y-92142224D01*
X108670491Y-92152471D01*
X108661924Y-92161924D01*
X108652471Y-92170491D01*
X108642224Y-92178091D01*
X108631282Y-92184650D01*
X108619749Y-92190104D01*
X108607737Y-92194402D01*
X108595362Y-92197502D01*
X108582742Y-92199374D01*
X108570000Y-92200000D01*
X107530000Y-92200000D01*
X107517258Y-92199374D01*
X107504638Y-92197502D01*
X107492263Y-92194402D01*
X107480251Y-92190104D01*
X107468718Y-92184650D01*
X107457776Y-92178091D01*
X107447529Y-92170491D01*
X107438076Y-92161924D01*
X107429509Y-92152471D01*
X107421909Y-92142224D01*
X107415350Y-92131282D01*
X107409896Y-92119749D01*
X107405598Y-92107737D01*
X107402498Y-92095362D01*
X107400626Y-92082742D01*
X107400000Y-92070000D01*
X107400000Y-90930000D01*
X107400626Y-90917258D01*
X107402498Y-90904638D01*
X107405598Y-90892263D01*
X107409896Y-90880251D01*
X107415350Y-90868718D01*
X107421909Y-90857776D01*
X107429509Y-90847529D01*
X107438076Y-90838076D01*
X107447529Y-90829509D01*
X107457776Y-90821909D01*
X107468718Y-90815350D01*
X107480251Y-90809896D01*
X107492263Y-90805598D01*
X107504638Y-90802498D01*
X107517258Y-90800626D01*
X107530000Y-90800000D01*
X108570000Y-90800000D01*
X108582742Y-90800626D01*
X108582742Y-90800626D01*
G37*
D13*
X108050000Y-91500000D03*
D11*
G36*
X108582742Y-87800626D02*
G01*
X108595362Y-87802498D01*
X108607737Y-87805598D01*
X108619749Y-87809896D01*
X108631282Y-87815350D01*
X108642224Y-87821909D01*
X108652471Y-87829509D01*
X108661924Y-87838076D01*
X108670491Y-87847529D01*
X108678091Y-87857776D01*
X108684650Y-87868718D01*
X108690104Y-87880251D01*
X108694402Y-87892263D01*
X108697502Y-87904638D01*
X108699374Y-87917258D01*
X108700000Y-87930000D01*
X108700000Y-89070000D01*
X108699374Y-89082742D01*
X108697502Y-89095362D01*
X108694402Y-89107737D01*
X108690104Y-89119749D01*
X108684650Y-89131282D01*
X108678091Y-89142224D01*
X108670491Y-89152471D01*
X108661924Y-89161924D01*
X108652471Y-89170491D01*
X108642224Y-89178091D01*
X108631282Y-89184650D01*
X108619749Y-89190104D01*
X108607737Y-89194402D01*
X108595362Y-89197502D01*
X108582742Y-89199374D01*
X108570000Y-89200000D01*
X107530000Y-89200000D01*
X107517258Y-89199374D01*
X107504638Y-89197502D01*
X107492263Y-89194402D01*
X107480251Y-89190104D01*
X107468718Y-89184650D01*
X107457776Y-89178091D01*
X107447529Y-89170491D01*
X107438076Y-89161924D01*
X107429509Y-89152471D01*
X107421909Y-89142224D01*
X107415350Y-89131282D01*
X107409896Y-89119749D01*
X107405598Y-89107737D01*
X107402498Y-89095362D01*
X107400626Y-89082742D01*
X107400000Y-89070000D01*
X107400000Y-87930000D01*
X107400626Y-87917258D01*
X107402498Y-87904638D01*
X107405598Y-87892263D01*
X107409896Y-87880251D01*
X107415350Y-87868718D01*
X107421909Y-87857776D01*
X107429509Y-87847529D01*
X107438076Y-87838076D01*
X107447529Y-87829509D01*
X107457776Y-87821909D01*
X107468718Y-87815350D01*
X107480251Y-87809896D01*
X107492263Y-87805598D01*
X107504638Y-87802498D01*
X107517258Y-87800626D01*
X107530000Y-87800000D01*
X108570000Y-87800000D01*
X108582742Y-87800626D01*
X108582742Y-87800626D01*
G37*
D13*
X108050000Y-88500000D03*
D11*
G36*
X99082742Y-82550626D02*
G01*
X99095362Y-82552498D01*
X99107737Y-82555598D01*
X99119749Y-82559896D01*
X99131282Y-82565350D01*
X99142224Y-82571909D01*
X99152471Y-82579509D01*
X99161924Y-82588076D01*
X99170491Y-82597529D01*
X99178091Y-82607776D01*
X99184650Y-82618718D01*
X99190104Y-82630251D01*
X99194402Y-82642263D01*
X99197502Y-82654638D01*
X99199374Y-82667258D01*
X99200000Y-82680000D01*
X99200000Y-83720000D01*
X99199374Y-83732742D01*
X99197502Y-83745362D01*
X99194402Y-83757737D01*
X99190104Y-83769749D01*
X99184650Y-83781282D01*
X99178091Y-83792224D01*
X99170491Y-83802471D01*
X99161924Y-83811924D01*
X99152471Y-83820491D01*
X99142224Y-83828091D01*
X99131282Y-83834650D01*
X99119749Y-83840104D01*
X99107737Y-83844402D01*
X99095362Y-83847502D01*
X99082742Y-83849374D01*
X99070000Y-83850000D01*
X97930000Y-83850000D01*
X97917258Y-83849374D01*
X97904638Y-83847502D01*
X97892263Y-83844402D01*
X97880251Y-83840104D01*
X97868718Y-83834650D01*
X97857776Y-83828091D01*
X97847529Y-83820491D01*
X97838076Y-83811924D01*
X97829509Y-83802471D01*
X97821909Y-83792224D01*
X97815350Y-83781282D01*
X97809896Y-83769749D01*
X97805598Y-83757737D01*
X97802498Y-83745362D01*
X97800626Y-83732742D01*
X97800000Y-83720000D01*
X97800000Y-82680000D01*
X97800626Y-82667258D01*
X97802498Y-82654638D01*
X97805598Y-82642263D01*
X97809896Y-82630251D01*
X97815350Y-82618718D01*
X97821909Y-82607776D01*
X97829509Y-82597529D01*
X97838076Y-82588076D01*
X97847529Y-82579509D01*
X97857776Y-82571909D01*
X97868718Y-82565350D01*
X97880251Y-82559896D01*
X97892263Y-82555598D01*
X97904638Y-82552498D01*
X97917258Y-82550626D01*
X97930000Y-82550000D01*
X99070000Y-82550000D01*
X99082742Y-82550626D01*
X99082742Y-82550626D01*
G37*
D13*
X98500000Y-83200000D03*
D11*
G36*
X102082742Y-82550626D02*
G01*
X102095362Y-82552498D01*
X102107737Y-82555598D01*
X102119749Y-82559896D01*
X102131282Y-82565350D01*
X102142224Y-82571909D01*
X102152471Y-82579509D01*
X102161924Y-82588076D01*
X102170491Y-82597529D01*
X102178091Y-82607776D01*
X102184650Y-82618718D01*
X102190104Y-82630251D01*
X102194402Y-82642263D01*
X102197502Y-82654638D01*
X102199374Y-82667258D01*
X102200000Y-82680000D01*
X102200000Y-83720000D01*
X102199374Y-83732742D01*
X102197502Y-83745362D01*
X102194402Y-83757737D01*
X102190104Y-83769749D01*
X102184650Y-83781282D01*
X102178091Y-83792224D01*
X102170491Y-83802471D01*
X102161924Y-83811924D01*
X102152471Y-83820491D01*
X102142224Y-83828091D01*
X102131282Y-83834650D01*
X102119749Y-83840104D01*
X102107737Y-83844402D01*
X102095362Y-83847502D01*
X102082742Y-83849374D01*
X102070000Y-83850000D01*
X100930000Y-83850000D01*
X100917258Y-83849374D01*
X100904638Y-83847502D01*
X100892263Y-83844402D01*
X100880251Y-83840104D01*
X100868718Y-83834650D01*
X100857776Y-83828091D01*
X100847529Y-83820491D01*
X100838076Y-83811924D01*
X100829509Y-83802471D01*
X100821909Y-83792224D01*
X100815350Y-83781282D01*
X100809896Y-83769749D01*
X100805598Y-83757737D01*
X100802498Y-83745362D01*
X100800626Y-83732742D01*
X100800000Y-83720000D01*
X100800000Y-82680000D01*
X100800626Y-82667258D01*
X100802498Y-82654638D01*
X100805598Y-82642263D01*
X100809896Y-82630251D01*
X100815350Y-82618718D01*
X100821909Y-82607776D01*
X100829509Y-82597529D01*
X100838076Y-82588076D01*
X100847529Y-82579509D01*
X100857776Y-82571909D01*
X100868718Y-82565350D01*
X100880251Y-82559896D01*
X100892263Y-82555598D01*
X100904638Y-82552498D01*
X100917258Y-82550626D01*
X100930000Y-82550000D01*
X102070000Y-82550000D01*
X102082742Y-82550626D01*
X102082742Y-82550626D01*
G37*
D13*
X101500000Y-83200000D03*
D11*
G36*
X100509802Y-82550482D02*
G01*
X100519509Y-82551921D01*
X100529028Y-82554306D01*
X100538268Y-82557612D01*
X100547140Y-82561808D01*
X100555557Y-82566853D01*
X100563439Y-82572699D01*
X100570711Y-82579289D01*
X100577301Y-82586561D01*
X100583147Y-82594443D01*
X100588192Y-82602860D01*
X100592388Y-82611732D01*
X100595694Y-82620972D01*
X100598079Y-82630491D01*
X100599518Y-82640198D01*
X100600000Y-82650000D01*
X100600000Y-83450000D01*
X100599518Y-83459802D01*
X100598079Y-83469509D01*
X100595694Y-83479028D01*
X100592388Y-83488268D01*
X100588192Y-83497140D01*
X100583147Y-83505557D01*
X100577301Y-83513439D01*
X100570711Y-83520711D01*
X100563439Y-83527301D01*
X100555557Y-83533147D01*
X100547140Y-83538192D01*
X100538268Y-83542388D01*
X100529028Y-83545694D01*
X100519509Y-83548079D01*
X100509802Y-83549518D01*
X100500000Y-83550000D01*
X99500000Y-83550000D01*
X99490198Y-83549518D01*
X99480491Y-83548079D01*
X99470972Y-83545694D01*
X99461732Y-83542388D01*
X99452860Y-83538192D01*
X99444443Y-83533147D01*
X99436561Y-83527301D01*
X99429289Y-83520711D01*
X99422699Y-83513439D01*
X99416853Y-83505557D01*
X99411808Y-83497140D01*
X99407612Y-83488268D01*
X99404306Y-83479028D01*
X99401921Y-83469509D01*
X99400482Y-83459802D01*
X99400000Y-83450000D01*
X99400000Y-82650000D01*
X99400482Y-82640198D01*
X99401921Y-82630491D01*
X99404306Y-82620972D01*
X99407612Y-82611732D01*
X99411808Y-82602860D01*
X99416853Y-82594443D01*
X99422699Y-82586561D01*
X99429289Y-82579289D01*
X99436561Y-82572699D01*
X99444443Y-82566853D01*
X99452860Y-82561808D01*
X99461732Y-82557612D01*
X99470972Y-82554306D01*
X99480491Y-82551921D01*
X99490198Y-82550482D01*
X99500000Y-82550000D01*
X100500000Y-82550000D01*
X100509802Y-82550482D01*
X100509802Y-82550482D01*
G37*
D12*
X100000000Y-83050000D03*
D11*
G36*
X93582742Y-86550626D02*
G01*
X93595362Y-86552498D01*
X93607737Y-86555598D01*
X93619749Y-86559896D01*
X93631282Y-86565350D01*
X93642224Y-86571909D01*
X93652471Y-86579509D01*
X93661924Y-86588076D01*
X93670491Y-86597529D01*
X93678091Y-86607776D01*
X93684650Y-86618718D01*
X93690104Y-86630251D01*
X93694402Y-86642263D01*
X93697502Y-86654638D01*
X93699374Y-86667258D01*
X93700000Y-86680000D01*
X93700000Y-87820000D01*
X93699374Y-87832742D01*
X93697502Y-87845362D01*
X93694402Y-87857737D01*
X93690104Y-87869749D01*
X93684650Y-87881282D01*
X93678091Y-87892224D01*
X93670491Y-87902471D01*
X93661924Y-87911924D01*
X93652471Y-87920491D01*
X93642224Y-87928091D01*
X93631282Y-87934650D01*
X93619749Y-87940104D01*
X93607737Y-87944402D01*
X93595362Y-87947502D01*
X93582742Y-87949374D01*
X93570000Y-87950000D01*
X92530000Y-87950000D01*
X92517258Y-87949374D01*
X92504638Y-87947502D01*
X92492263Y-87944402D01*
X92480251Y-87940104D01*
X92468718Y-87934650D01*
X92457776Y-87928091D01*
X92447529Y-87920491D01*
X92438076Y-87911924D01*
X92429509Y-87902471D01*
X92421909Y-87892224D01*
X92415350Y-87881282D01*
X92409896Y-87869749D01*
X92405598Y-87857737D01*
X92402498Y-87845362D01*
X92400626Y-87832742D01*
X92400000Y-87820000D01*
X92400000Y-86680000D01*
X92400626Y-86667258D01*
X92402498Y-86654638D01*
X92405598Y-86642263D01*
X92409896Y-86630251D01*
X92415350Y-86618718D01*
X92421909Y-86607776D01*
X92429509Y-86597529D01*
X92438076Y-86588076D01*
X92447529Y-86579509D01*
X92457776Y-86571909D01*
X92468718Y-86565350D01*
X92480251Y-86559896D01*
X92492263Y-86555598D01*
X92504638Y-86552498D01*
X92517258Y-86550626D01*
X92530000Y-86550000D01*
X93570000Y-86550000D01*
X93582742Y-86550626D01*
X93582742Y-86550626D01*
G37*
D13*
X93050000Y-87250000D03*
D11*
G36*
X93582742Y-89550626D02*
G01*
X93595362Y-89552498D01*
X93607737Y-89555598D01*
X93619749Y-89559896D01*
X93631282Y-89565350D01*
X93642224Y-89571909D01*
X93652471Y-89579509D01*
X93661924Y-89588076D01*
X93670491Y-89597529D01*
X93678091Y-89607776D01*
X93684650Y-89618718D01*
X93690104Y-89630251D01*
X93694402Y-89642263D01*
X93697502Y-89654638D01*
X93699374Y-89667258D01*
X93700000Y-89680000D01*
X93700000Y-90820000D01*
X93699374Y-90832742D01*
X93697502Y-90845362D01*
X93694402Y-90857737D01*
X93690104Y-90869749D01*
X93684650Y-90881282D01*
X93678091Y-90892224D01*
X93670491Y-90902471D01*
X93661924Y-90911924D01*
X93652471Y-90920491D01*
X93642224Y-90928091D01*
X93631282Y-90934650D01*
X93619749Y-90940104D01*
X93607737Y-90944402D01*
X93595362Y-90947502D01*
X93582742Y-90949374D01*
X93570000Y-90950000D01*
X92530000Y-90950000D01*
X92517258Y-90949374D01*
X92504638Y-90947502D01*
X92492263Y-90944402D01*
X92480251Y-90940104D01*
X92468718Y-90934650D01*
X92457776Y-90928091D01*
X92447529Y-90920491D01*
X92438076Y-90911924D01*
X92429509Y-90902471D01*
X92421909Y-90892224D01*
X92415350Y-90881282D01*
X92409896Y-90869749D01*
X92405598Y-90857737D01*
X92402498Y-90845362D01*
X92400626Y-90832742D01*
X92400000Y-90820000D01*
X92400000Y-89680000D01*
X92400626Y-89667258D01*
X92402498Y-89654638D01*
X92405598Y-89642263D01*
X92409896Y-89630251D01*
X92415350Y-89618718D01*
X92421909Y-89607776D01*
X92429509Y-89597529D01*
X92438076Y-89588076D01*
X92447529Y-89579509D01*
X92457776Y-89571909D01*
X92468718Y-89565350D01*
X92480251Y-89559896D01*
X92492263Y-89555598D01*
X92504638Y-89552498D01*
X92517258Y-89550626D01*
X92530000Y-89550000D01*
X93570000Y-89550000D01*
X93582742Y-89550626D01*
X93582742Y-89550626D01*
G37*
D13*
X93050000Y-90250000D03*
D11*
G36*
X93609802Y-88150482D02*
G01*
X93619509Y-88151921D01*
X93629028Y-88154306D01*
X93638268Y-88157612D01*
X93647140Y-88161808D01*
X93655557Y-88166853D01*
X93663439Y-88172699D01*
X93670711Y-88179289D01*
X93677301Y-88186561D01*
X93683147Y-88194443D01*
X93688192Y-88202860D01*
X93692388Y-88211732D01*
X93695694Y-88220972D01*
X93698079Y-88230491D01*
X93699518Y-88240198D01*
X93700000Y-88250000D01*
X93700000Y-89250000D01*
X93699518Y-89259802D01*
X93698079Y-89269509D01*
X93695694Y-89279028D01*
X93692388Y-89288268D01*
X93688192Y-89297140D01*
X93683147Y-89305557D01*
X93677301Y-89313439D01*
X93670711Y-89320711D01*
X93663439Y-89327301D01*
X93655557Y-89333147D01*
X93647140Y-89338192D01*
X93638268Y-89342388D01*
X93629028Y-89345694D01*
X93619509Y-89348079D01*
X93609802Y-89349518D01*
X93600000Y-89350000D01*
X92800000Y-89350000D01*
X92790198Y-89349518D01*
X92780491Y-89348079D01*
X92770972Y-89345694D01*
X92761732Y-89342388D01*
X92752860Y-89338192D01*
X92744443Y-89333147D01*
X92736561Y-89327301D01*
X92729289Y-89320711D01*
X92722699Y-89313439D01*
X92716853Y-89305557D01*
X92711808Y-89297140D01*
X92707612Y-89288268D01*
X92704306Y-89279028D01*
X92701921Y-89269509D01*
X92700482Y-89259802D01*
X92700000Y-89250000D01*
X92700000Y-88250000D01*
X92700482Y-88240198D01*
X92701921Y-88230491D01*
X92704306Y-88220972D01*
X92707612Y-88211732D01*
X92711808Y-88202860D01*
X92716853Y-88194443D01*
X92722699Y-88186561D01*
X92729289Y-88179289D01*
X92736561Y-88172699D01*
X92744443Y-88166853D01*
X92752860Y-88161808D01*
X92761732Y-88157612D01*
X92770972Y-88154306D01*
X92780491Y-88151921D01*
X92790198Y-88150482D01*
X92800000Y-88150000D01*
X93600000Y-88150000D01*
X93609802Y-88150482D01*
X93609802Y-88150482D01*
G37*
D12*
X93200000Y-88750000D03*
D11*
G36*
X106446071Y-95851623D02*
G01*
X106478781Y-95856475D01*
X106510857Y-95864509D01*
X106541991Y-95875649D01*
X106571884Y-95889787D01*
X106600247Y-95906787D01*
X106626807Y-95926485D01*
X106651308Y-95948692D01*
X106673515Y-95973193D01*
X106693213Y-95999753D01*
X106710213Y-96028116D01*
X106724351Y-96058009D01*
X106735491Y-96089143D01*
X106743525Y-96121219D01*
X106748377Y-96153929D01*
X106750000Y-96186956D01*
X106750000Y-97313044D01*
X106748377Y-97346071D01*
X106743525Y-97378781D01*
X106735491Y-97410857D01*
X106724351Y-97441991D01*
X106710213Y-97471884D01*
X106693213Y-97500247D01*
X106673515Y-97526807D01*
X106651308Y-97551308D01*
X106626807Y-97573515D01*
X106600247Y-97593213D01*
X106571884Y-97610213D01*
X106541991Y-97624351D01*
X106510857Y-97635491D01*
X106478781Y-97643525D01*
X106446071Y-97648377D01*
X106413044Y-97650000D01*
X105536956Y-97650000D01*
X105503929Y-97648377D01*
X105471219Y-97643525D01*
X105439143Y-97635491D01*
X105408009Y-97624351D01*
X105378116Y-97610213D01*
X105349753Y-97593213D01*
X105323193Y-97573515D01*
X105298692Y-97551308D01*
X105276485Y-97526807D01*
X105256787Y-97500247D01*
X105239787Y-97471884D01*
X105225649Y-97441991D01*
X105214509Y-97410857D01*
X105206475Y-97378781D01*
X105201623Y-97346071D01*
X105200000Y-97313044D01*
X105200000Y-96186956D01*
X105201623Y-96153929D01*
X105206475Y-96121219D01*
X105214509Y-96089143D01*
X105225649Y-96058009D01*
X105239787Y-96028116D01*
X105256787Y-95999753D01*
X105276485Y-95973193D01*
X105298692Y-95948692D01*
X105323193Y-95926485D01*
X105349753Y-95906787D01*
X105378116Y-95889787D01*
X105408009Y-95875649D01*
X105439143Y-95864509D01*
X105471219Y-95856475D01*
X105503929Y-95851623D01*
X105536956Y-95850000D01*
X106413044Y-95850000D01*
X106446071Y-95851623D01*
X106446071Y-95851623D01*
G37*
D19*
X105975000Y-96750000D03*
D11*
G36*
X108496071Y-95851623D02*
G01*
X108528781Y-95856475D01*
X108560857Y-95864509D01*
X108591991Y-95875649D01*
X108621884Y-95889787D01*
X108650247Y-95906787D01*
X108676807Y-95926485D01*
X108701308Y-95948692D01*
X108723515Y-95973193D01*
X108743213Y-95999753D01*
X108760213Y-96028116D01*
X108774351Y-96058009D01*
X108785491Y-96089143D01*
X108793525Y-96121219D01*
X108798377Y-96153929D01*
X108800000Y-96186956D01*
X108800000Y-97313044D01*
X108798377Y-97346071D01*
X108793525Y-97378781D01*
X108785491Y-97410857D01*
X108774351Y-97441991D01*
X108760213Y-97471884D01*
X108743213Y-97500247D01*
X108723515Y-97526807D01*
X108701308Y-97551308D01*
X108676807Y-97573515D01*
X108650247Y-97593213D01*
X108621884Y-97610213D01*
X108591991Y-97624351D01*
X108560857Y-97635491D01*
X108528781Y-97643525D01*
X108496071Y-97648377D01*
X108463044Y-97650000D01*
X107586956Y-97650000D01*
X107553929Y-97648377D01*
X107521219Y-97643525D01*
X107489143Y-97635491D01*
X107458009Y-97624351D01*
X107428116Y-97610213D01*
X107399753Y-97593213D01*
X107373193Y-97573515D01*
X107348692Y-97551308D01*
X107326485Y-97526807D01*
X107306787Y-97500247D01*
X107289787Y-97471884D01*
X107275649Y-97441991D01*
X107264509Y-97410857D01*
X107256475Y-97378781D01*
X107251623Y-97346071D01*
X107250000Y-97313044D01*
X107250000Y-96186956D01*
X107251623Y-96153929D01*
X107256475Y-96121219D01*
X107264509Y-96089143D01*
X107275649Y-96058009D01*
X107289787Y-96028116D01*
X107306787Y-95999753D01*
X107326485Y-95973193D01*
X107348692Y-95948692D01*
X107373193Y-95926485D01*
X107399753Y-95906787D01*
X107428116Y-95889787D01*
X107458009Y-95875649D01*
X107489143Y-95864509D01*
X107521219Y-95856475D01*
X107553929Y-95851623D01*
X107586956Y-95850000D01*
X108463044Y-95850000D01*
X108496071Y-95851623D01*
X108496071Y-95851623D01*
G37*
D19*
X108025000Y-96750000D03*
D11*
G36*
X93596071Y-98251623D02*
G01*
X93628781Y-98256475D01*
X93660857Y-98264509D01*
X93691991Y-98275649D01*
X93721884Y-98289787D01*
X93750247Y-98306787D01*
X93776807Y-98326485D01*
X93801308Y-98348692D01*
X93823515Y-98373193D01*
X93843213Y-98399753D01*
X93860213Y-98428116D01*
X93874351Y-98458009D01*
X93885491Y-98489143D01*
X93893525Y-98521219D01*
X93898377Y-98553929D01*
X93900000Y-98586956D01*
X93900000Y-99463044D01*
X93898377Y-99496071D01*
X93893525Y-99528781D01*
X93885491Y-99560857D01*
X93874351Y-99591991D01*
X93860213Y-99621884D01*
X93843213Y-99650247D01*
X93823515Y-99676807D01*
X93801308Y-99701308D01*
X93776807Y-99723515D01*
X93750247Y-99743213D01*
X93721884Y-99760213D01*
X93691991Y-99774351D01*
X93660857Y-99785491D01*
X93628781Y-99793525D01*
X93596071Y-99798377D01*
X93563044Y-99800000D01*
X92436956Y-99800000D01*
X92403929Y-99798377D01*
X92371219Y-99793525D01*
X92339143Y-99785491D01*
X92308009Y-99774351D01*
X92278116Y-99760213D01*
X92249753Y-99743213D01*
X92223193Y-99723515D01*
X92198692Y-99701308D01*
X92176485Y-99676807D01*
X92156787Y-99650247D01*
X92139787Y-99621884D01*
X92125649Y-99591991D01*
X92114509Y-99560857D01*
X92106475Y-99528781D01*
X92101623Y-99496071D01*
X92100000Y-99463044D01*
X92100000Y-98586956D01*
X92101623Y-98553929D01*
X92106475Y-98521219D01*
X92114509Y-98489143D01*
X92125649Y-98458009D01*
X92139787Y-98428116D01*
X92156787Y-98399753D01*
X92176485Y-98373193D01*
X92198692Y-98348692D01*
X92223193Y-98326485D01*
X92249753Y-98306787D01*
X92278116Y-98289787D01*
X92308009Y-98275649D01*
X92339143Y-98264509D01*
X92371219Y-98256475D01*
X92403929Y-98251623D01*
X92436956Y-98250000D01*
X93563044Y-98250000D01*
X93596071Y-98251623D01*
X93596071Y-98251623D01*
G37*
D19*
X93000000Y-99025000D03*
D11*
G36*
X93596071Y-96201623D02*
G01*
X93628781Y-96206475D01*
X93660857Y-96214509D01*
X93691991Y-96225649D01*
X93721884Y-96239787D01*
X93750247Y-96256787D01*
X93776807Y-96276485D01*
X93801308Y-96298692D01*
X93823515Y-96323193D01*
X93843213Y-96349753D01*
X93860213Y-96378116D01*
X93874351Y-96408009D01*
X93885491Y-96439143D01*
X93893525Y-96471219D01*
X93898377Y-96503929D01*
X93900000Y-96536956D01*
X93900000Y-97413044D01*
X93898377Y-97446071D01*
X93893525Y-97478781D01*
X93885491Y-97510857D01*
X93874351Y-97541991D01*
X93860213Y-97571884D01*
X93843213Y-97600247D01*
X93823515Y-97626807D01*
X93801308Y-97651308D01*
X93776807Y-97673515D01*
X93750247Y-97693213D01*
X93721884Y-97710213D01*
X93691991Y-97724351D01*
X93660857Y-97735491D01*
X93628781Y-97743525D01*
X93596071Y-97748377D01*
X93563044Y-97750000D01*
X92436956Y-97750000D01*
X92403929Y-97748377D01*
X92371219Y-97743525D01*
X92339143Y-97735491D01*
X92308009Y-97724351D01*
X92278116Y-97710213D01*
X92249753Y-97693213D01*
X92223193Y-97673515D01*
X92198692Y-97651308D01*
X92176485Y-97626807D01*
X92156787Y-97600247D01*
X92139787Y-97571884D01*
X92125649Y-97541991D01*
X92114509Y-97510857D01*
X92106475Y-97478781D01*
X92101623Y-97446071D01*
X92100000Y-97413044D01*
X92100000Y-96536956D01*
X92101623Y-96503929D01*
X92106475Y-96471219D01*
X92114509Y-96439143D01*
X92125649Y-96408009D01*
X92139787Y-96378116D01*
X92156787Y-96349753D01*
X92176485Y-96323193D01*
X92198692Y-96298692D01*
X92223193Y-96276485D01*
X92249753Y-96256787D01*
X92278116Y-96239787D01*
X92308009Y-96225649D01*
X92339143Y-96214509D01*
X92371219Y-96206475D01*
X92403929Y-96201623D01*
X92436956Y-96200000D01*
X93563044Y-96200000D01*
X93596071Y-96201623D01*
X93596071Y-96201623D01*
G37*
D19*
X93000000Y-96975000D03*
D11*
G36*
X93596071Y-102851623D02*
G01*
X93628781Y-102856475D01*
X93660857Y-102864509D01*
X93691991Y-102875649D01*
X93721884Y-102889787D01*
X93750247Y-102906787D01*
X93776807Y-102926485D01*
X93801308Y-102948692D01*
X93823515Y-102973193D01*
X93843213Y-102999753D01*
X93860213Y-103028116D01*
X93874351Y-103058009D01*
X93885491Y-103089143D01*
X93893525Y-103121219D01*
X93898377Y-103153929D01*
X93900000Y-103186956D01*
X93900000Y-104063044D01*
X93898377Y-104096071D01*
X93893525Y-104128781D01*
X93885491Y-104160857D01*
X93874351Y-104191991D01*
X93860213Y-104221884D01*
X93843213Y-104250247D01*
X93823515Y-104276807D01*
X93801308Y-104301308D01*
X93776807Y-104323515D01*
X93750247Y-104343213D01*
X93721884Y-104360213D01*
X93691991Y-104374351D01*
X93660857Y-104385491D01*
X93628781Y-104393525D01*
X93596071Y-104398377D01*
X93563044Y-104400000D01*
X92436956Y-104400000D01*
X92403929Y-104398377D01*
X92371219Y-104393525D01*
X92339143Y-104385491D01*
X92308009Y-104374351D01*
X92278116Y-104360213D01*
X92249753Y-104343213D01*
X92223193Y-104323515D01*
X92198692Y-104301308D01*
X92176485Y-104276807D01*
X92156787Y-104250247D01*
X92139787Y-104221884D01*
X92125649Y-104191991D01*
X92114509Y-104160857D01*
X92106475Y-104128781D01*
X92101623Y-104096071D01*
X92100000Y-104063044D01*
X92100000Y-103186956D01*
X92101623Y-103153929D01*
X92106475Y-103121219D01*
X92114509Y-103089143D01*
X92125649Y-103058009D01*
X92139787Y-103028116D01*
X92156787Y-102999753D01*
X92176485Y-102973193D01*
X92198692Y-102948692D01*
X92223193Y-102926485D01*
X92249753Y-102906787D01*
X92278116Y-102889787D01*
X92308009Y-102875649D01*
X92339143Y-102864509D01*
X92371219Y-102856475D01*
X92403929Y-102851623D01*
X92436956Y-102850000D01*
X93563044Y-102850000D01*
X93596071Y-102851623D01*
X93596071Y-102851623D01*
G37*
D19*
X93000000Y-103625000D03*
D11*
G36*
X93596071Y-100801623D02*
G01*
X93628781Y-100806475D01*
X93660857Y-100814509D01*
X93691991Y-100825649D01*
X93721884Y-100839787D01*
X93750247Y-100856787D01*
X93776807Y-100876485D01*
X93801308Y-100898692D01*
X93823515Y-100923193D01*
X93843213Y-100949753D01*
X93860213Y-100978116D01*
X93874351Y-101008009D01*
X93885491Y-101039143D01*
X93893525Y-101071219D01*
X93898377Y-101103929D01*
X93900000Y-101136956D01*
X93900000Y-102013044D01*
X93898377Y-102046071D01*
X93893525Y-102078781D01*
X93885491Y-102110857D01*
X93874351Y-102141991D01*
X93860213Y-102171884D01*
X93843213Y-102200247D01*
X93823515Y-102226807D01*
X93801308Y-102251308D01*
X93776807Y-102273515D01*
X93750247Y-102293213D01*
X93721884Y-102310213D01*
X93691991Y-102324351D01*
X93660857Y-102335491D01*
X93628781Y-102343525D01*
X93596071Y-102348377D01*
X93563044Y-102350000D01*
X92436956Y-102350000D01*
X92403929Y-102348377D01*
X92371219Y-102343525D01*
X92339143Y-102335491D01*
X92308009Y-102324351D01*
X92278116Y-102310213D01*
X92249753Y-102293213D01*
X92223193Y-102273515D01*
X92198692Y-102251308D01*
X92176485Y-102226807D01*
X92156787Y-102200247D01*
X92139787Y-102171884D01*
X92125649Y-102141991D01*
X92114509Y-102110857D01*
X92106475Y-102078781D01*
X92101623Y-102046071D01*
X92100000Y-102013044D01*
X92100000Y-101136956D01*
X92101623Y-101103929D01*
X92106475Y-101071219D01*
X92114509Y-101039143D01*
X92125649Y-101008009D01*
X92139787Y-100978116D01*
X92156787Y-100949753D01*
X92176485Y-100923193D01*
X92198692Y-100898692D01*
X92223193Y-100876485D01*
X92249753Y-100856787D01*
X92278116Y-100839787D01*
X92308009Y-100825649D01*
X92339143Y-100814509D01*
X92371219Y-100806475D01*
X92403929Y-100801623D01*
X92436956Y-100800000D01*
X93563044Y-100800000D01*
X93596071Y-100801623D01*
X93596071Y-100801623D01*
G37*
D19*
X93000000Y-101575000D03*
M02*
