G04 #@! TF.GenerationSoftware,KiCad,Pcbnew,5.1.2*
G04 #@! TF.CreationDate,2019-07-07T07:42:55-07:00*
G04 #@! TF.ProjectId,MegaMan_SAO,4d656761-4d61-46e5-9f53-414f2e6b6963,rev?*
G04 #@! TF.SameCoordinates,Original*
G04 #@! TF.FileFunction,Paste,Bot*
G04 #@! TF.FilePolarity,Positive*
%FSLAX46Y46*%
G04 Gerber Fmt 4.6, Leading zero omitted, Abs format (unit mm)*
G04 Created by KiCad (PCBNEW 5.1.2) date 2019-07-07 07:42:55*
%MOMM*%
%LPD*%
G04 APERTURE LIST*
%ADD10C,0.100000*%
%ADD11C,0.600000*%
%ADD12C,0.900000*%
%ADD13C,1.150000*%
G04 APERTURE END LIST*
D10*
G36*
X88543749Y-94671588D02*
G01*
X88549573Y-94672452D01*
X88555285Y-94673883D01*
X88560829Y-94675866D01*
X88566152Y-94678384D01*
X88571202Y-94681411D01*
X88575932Y-94684918D01*
X88580294Y-94688873D01*
X89061127Y-95169706D01*
X89065082Y-95174068D01*
X89068589Y-95178798D01*
X89071616Y-95183848D01*
X89074134Y-95189171D01*
X89076117Y-95194715D01*
X89077548Y-95200427D01*
X89078412Y-95206251D01*
X89078701Y-95212132D01*
X89078412Y-95218013D01*
X89077548Y-95223837D01*
X89076117Y-95229549D01*
X89074134Y-95235093D01*
X89071616Y-95240416D01*
X89068589Y-95245466D01*
X89065082Y-95250196D01*
X89061127Y-95254558D01*
X88721716Y-95593969D01*
X88717354Y-95597924D01*
X88712624Y-95601431D01*
X88707574Y-95604458D01*
X88702251Y-95606976D01*
X88696707Y-95608959D01*
X88690995Y-95610390D01*
X88685171Y-95611254D01*
X88679290Y-95611543D01*
X88673409Y-95611254D01*
X88667585Y-95610390D01*
X88661873Y-95608959D01*
X88656329Y-95606976D01*
X88651006Y-95604458D01*
X88645956Y-95601431D01*
X88641226Y-95597924D01*
X88636864Y-95593969D01*
X88156031Y-95113136D01*
X88152076Y-95108774D01*
X88148569Y-95104044D01*
X88145542Y-95098994D01*
X88143024Y-95093671D01*
X88141041Y-95088127D01*
X88139610Y-95082415D01*
X88138746Y-95076591D01*
X88138457Y-95070710D01*
X88138746Y-95064829D01*
X88139610Y-95059005D01*
X88141041Y-95053293D01*
X88143024Y-95047749D01*
X88145542Y-95042426D01*
X88148569Y-95037376D01*
X88152076Y-95032646D01*
X88156031Y-95028284D01*
X88495442Y-94688873D01*
X88499804Y-94684918D01*
X88504534Y-94681411D01*
X88509584Y-94678384D01*
X88514907Y-94675866D01*
X88520451Y-94673883D01*
X88526163Y-94672452D01*
X88531987Y-94671588D01*
X88537868Y-94671299D01*
X88543749Y-94671588D01*
X88543749Y-94671588D01*
G37*
D11*
X88608579Y-95141421D03*
D10*
G36*
X87627451Y-93340656D02*
G01*
X87636187Y-93341952D01*
X87644755Y-93344098D01*
X87653071Y-93347074D01*
X87661055Y-93350850D01*
X87668630Y-93355391D01*
X87675724Y-93360652D01*
X87682269Y-93366583D01*
X88262096Y-93946410D01*
X88268027Y-93952955D01*
X88273288Y-93960049D01*
X88277829Y-93967624D01*
X88281605Y-93975608D01*
X88284581Y-93983924D01*
X88286727Y-93992492D01*
X88288023Y-94001228D01*
X88288456Y-94010050D01*
X88288023Y-94018872D01*
X88286727Y-94027608D01*
X88284581Y-94036176D01*
X88281605Y-94044492D01*
X88277829Y-94052476D01*
X88273288Y-94060051D01*
X88268027Y-94067145D01*
X88262096Y-94073690D01*
X87752979Y-94582807D01*
X87746434Y-94588738D01*
X87739340Y-94593999D01*
X87731765Y-94598540D01*
X87723781Y-94602316D01*
X87715465Y-94605292D01*
X87706897Y-94607438D01*
X87698161Y-94608734D01*
X87689339Y-94609167D01*
X87680517Y-94608734D01*
X87671781Y-94607438D01*
X87663213Y-94605292D01*
X87654897Y-94602316D01*
X87646913Y-94598540D01*
X87639338Y-94593999D01*
X87632244Y-94588738D01*
X87625699Y-94582807D01*
X87045872Y-94002980D01*
X87039941Y-93996435D01*
X87034680Y-93989341D01*
X87030139Y-93981766D01*
X87026363Y-93973782D01*
X87023387Y-93965466D01*
X87021241Y-93956898D01*
X87019945Y-93948162D01*
X87019512Y-93939340D01*
X87019945Y-93930518D01*
X87021241Y-93921782D01*
X87023387Y-93913214D01*
X87026363Y-93904898D01*
X87030139Y-93896914D01*
X87034680Y-93889339D01*
X87039941Y-93882245D01*
X87045872Y-93875700D01*
X87554989Y-93366583D01*
X87561534Y-93360652D01*
X87568628Y-93355391D01*
X87576203Y-93350850D01*
X87584187Y-93347074D01*
X87592503Y-93344098D01*
X87601071Y-93341952D01*
X87609807Y-93340656D01*
X87618629Y-93340223D01*
X87627451Y-93340656D01*
X87627451Y-93340656D01*
G37*
D12*
X87653984Y-93974695D03*
D10*
G36*
X89748772Y-95461977D02*
G01*
X89757508Y-95463273D01*
X89766076Y-95465419D01*
X89774392Y-95468395D01*
X89782376Y-95472171D01*
X89789951Y-95476712D01*
X89797045Y-95481973D01*
X89803590Y-95487904D01*
X90383417Y-96067731D01*
X90389348Y-96074276D01*
X90394609Y-96081370D01*
X90399150Y-96088945D01*
X90402926Y-96096929D01*
X90405902Y-96105245D01*
X90408048Y-96113813D01*
X90409344Y-96122549D01*
X90409777Y-96131371D01*
X90409344Y-96140193D01*
X90408048Y-96148929D01*
X90405902Y-96157497D01*
X90402926Y-96165813D01*
X90399150Y-96173797D01*
X90394609Y-96181372D01*
X90389348Y-96188466D01*
X90383417Y-96195011D01*
X89874300Y-96704128D01*
X89867755Y-96710059D01*
X89860661Y-96715320D01*
X89853086Y-96719861D01*
X89845102Y-96723637D01*
X89836786Y-96726613D01*
X89828218Y-96728759D01*
X89819482Y-96730055D01*
X89810660Y-96730488D01*
X89801838Y-96730055D01*
X89793102Y-96728759D01*
X89784534Y-96726613D01*
X89776218Y-96723637D01*
X89768234Y-96719861D01*
X89760659Y-96715320D01*
X89753565Y-96710059D01*
X89747020Y-96704128D01*
X89167193Y-96124301D01*
X89161262Y-96117756D01*
X89156001Y-96110662D01*
X89151460Y-96103087D01*
X89147684Y-96095103D01*
X89144708Y-96086787D01*
X89142562Y-96078219D01*
X89141266Y-96069483D01*
X89140833Y-96060661D01*
X89141266Y-96051839D01*
X89142562Y-96043103D01*
X89144708Y-96034535D01*
X89147684Y-96026219D01*
X89151460Y-96018235D01*
X89156001Y-96010660D01*
X89161262Y-96003566D01*
X89167193Y-95997021D01*
X89676310Y-95487904D01*
X89682855Y-95481973D01*
X89689949Y-95476712D01*
X89697524Y-95472171D01*
X89705508Y-95468395D01*
X89713824Y-95465419D01*
X89722392Y-95463273D01*
X89731128Y-95461977D01*
X89739950Y-95461544D01*
X89748772Y-95461977D01*
X89748772Y-95461977D01*
G37*
D12*
X89775305Y-96096016D03*
D10*
G36*
X101918822Y-96350433D02*
G01*
X101927558Y-96351729D01*
X101936126Y-96353875D01*
X101944442Y-96356851D01*
X101952426Y-96360627D01*
X101960001Y-96365168D01*
X101967095Y-96370429D01*
X101973640Y-96376360D01*
X101979571Y-96382905D01*
X101984832Y-96389999D01*
X101989373Y-96397574D01*
X101993149Y-96405558D01*
X101996125Y-96413874D01*
X101998271Y-96422442D01*
X101999567Y-96431178D01*
X102000000Y-96440000D01*
X102000000Y-97160000D01*
X101999567Y-97168822D01*
X101998271Y-97177558D01*
X101996125Y-97186126D01*
X101993149Y-97194442D01*
X101989373Y-97202426D01*
X101984832Y-97210001D01*
X101979571Y-97217095D01*
X101973640Y-97223640D01*
X101967095Y-97229571D01*
X101960001Y-97234832D01*
X101952426Y-97239373D01*
X101944442Y-97243149D01*
X101936126Y-97246125D01*
X101927558Y-97248271D01*
X101918822Y-97249567D01*
X101910000Y-97250000D01*
X101090000Y-97250000D01*
X101081178Y-97249567D01*
X101072442Y-97248271D01*
X101063874Y-97246125D01*
X101055558Y-97243149D01*
X101047574Y-97239373D01*
X101039999Y-97234832D01*
X101032905Y-97229571D01*
X101026360Y-97223640D01*
X101020429Y-97217095D01*
X101015168Y-97210001D01*
X101010627Y-97202426D01*
X101006851Y-97194442D01*
X101003875Y-97186126D01*
X101001729Y-97177558D01*
X101000433Y-97168822D01*
X101000000Y-97160000D01*
X101000000Y-96440000D01*
X101000433Y-96431178D01*
X101001729Y-96422442D01*
X101003875Y-96413874D01*
X101006851Y-96405558D01*
X101010627Y-96397574D01*
X101015168Y-96389999D01*
X101020429Y-96382905D01*
X101026360Y-96376360D01*
X101032905Y-96370429D01*
X101039999Y-96365168D01*
X101047574Y-96360627D01*
X101055558Y-96356851D01*
X101063874Y-96353875D01*
X101072442Y-96351729D01*
X101081178Y-96350433D01*
X101090000Y-96350000D01*
X101910000Y-96350000D01*
X101918822Y-96350433D01*
X101918822Y-96350433D01*
G37*
D12*
X101500000Y-96800000D03*
D10*
G36*
X98918822Y-96350433D02*
G01*
X98927558Y-96351729D01*
X98936126Y-96353875D01*
X98944442Y-96356851D01*
X98952426Y-96360627D01*
X98960001Y-96365168D01*
X98967095Y-96370429D01*
X98973640Y-96376360D01*
X98979571Y-96382905D01*
X98984832Y-96389999D01*
X98989373Y-96397574D01*
X98993149Y-96405558D01*
X98996125Y-96413874D01*
X98998271Y-96422442D01*
X98999567Y-96431178D01*
X99000000Y-96440000D01*
X99000000Y-97160000D01*
X98999567Y-97168822D01*
X98998271Y-97177558D01*
X98996125Y-97186126D01*
X98993149Y-97194442D01*
X98989373Y-97202426D01*
X98984832Y-97210001D01*
X98979571Y-97217095D01*
X98973640Y-97223640D01*
X98967095Y-97229571D01*
X98960001Y-97234832D01*
X98952426Y-97239373D01*
X98944442Y-97243149D01*
X98936126Y-97246125D01*
X98927558Y-97248271D01*
X98918822Y-97249567D01*
X98910000Y-97250000D01*
X98090000Y-97250000D01*
X98081178Y-97249567D01*
X98072442Y-97248271D01*
X98063874Y-97246125D01*
X98055558Y-97243149D01*
X98047574Y-97239373D01*
X98039999Y-97234832D01*
X98032905Y-97229571D01*
X98026360Y-97223640D01*
X98020429Y-97217095D01*
X98015168Y-97210001D01*
X98010627Y-97202426D01*
X98006851Y-97194442D01*
X98003875Y-97186126D01*
X98001729Y-97177558D01*
X98000433Y-97168822D01*
X98000000Y-97160000D01*
X98000000Y-96440000D01*
X98000433Y-96431178D01*
X98001729Y-96422442D01*
X98003875Y-96413874D01*
X98006851Y-96405558D01*
X98010627Y-96397574D01*
X98015168Y-96389999D01*
X98020429Y-96382905D01*
X98026360Y-96376360D01*
X98032905Y-96370429D01*
X98039999Y-96365168D01*
X98047574Y-96360627D01*
X98055558Y-96356851D01*
X98063874Y-96353875D01*
X98072442Y-96351729D01*
X98081178Y-96350433D01*
X98090000Y-96350000D01*
X98910000Y-96350000D01*
X98918822Y-96350433D01*
X98918822Y-96350433D01*
G37*
D12*
X98500000Y-96800000D03*
D10*
G36*
X100345881Y-96650289D02*
G01*
X100351705Y-96651153D01*
X100357417Y-96652584D01*
X100362961Y-96654567D01*
X100368284Y-96657085D01*
X100373334Y-96660112D01*
X100378064Y-96663619D01*
X100382426Y-96667574D01*
X100386381Y-96671936D01*
X100389888Y-96676666D01*
X100392915Y-96681716D01*
X100395433Y-96687039D01*
X100397416Y-96692583D01*
X100398847Y-96698295D01*
X100399711Y-96704119D01*
X100400000Y-96710000D01*
X100400000Y-97190000D01*
X100399711Y-97195881D01*
X100398847Y-97201705D01*
X100397416Y-97207417D01*
X100395433Y-97212961D01*
X100392915Y-97218284D01*
X100389888Y-97223334D01*
X100386381Y-97228064D01*
X100382426Y-97232426D01*
X100378064Y-97236381D01*
X100373334Y-97239888D01*
X100368284Y-97242915D01*
X100362961Y-97245433D01*
X100357417Y-97247416D01*
X100351705Y-97248847D01*
X100345881Y-97249711D01*
X100340000Y-97250000D01*
X99660000Y-97250000D01*
X99654119Y-97249711D01*
X99648295Y-97248847D01*
X99642583Y-97247416D01*
X99637039Y-97245433D01*
X99631716Y-97242915D01*
X99626666Y-97239888D01*
X99621936Y-97236381D01*
X99617574Y-97232426D01*
X99613619Y-97228064D01*
X99610112Y-97223334D01*
X99607085Y-97218284D01*
X99604567Y-97212961D01*
X99602584Y-97207417D01*
X99601153Y-97201705D01*
X99600289Y-97195881D01*
X99600000Y-97190000D01*
X99600000Y-96710000D01*
X99600289Y-96704119D01*
X99601153Y-96698295D01*
X99602584Y-96692583D01*
X99604567Y-96687039D01*
X99607085Y-96681716D01*
X99610112Y-96676666D01*
X99613619Y-96671936D01*
X99617574Y-96667574D01*
X99621936Y-96663619D01*
X99626666Y-96660112D01*
X99631716Y-96657085D01*
X99637039Y-96654567D01*
X99642583Y-96652584D01*
X99648295Y-96651153D01*
X99654119Y-96650289D01*
X99660000Y-96650000D01*
X100340000Y-96650000D01*
X100345881Y-96650289D01*
X100345881Y-96650289D01*
G37*
D11*
X100000000Y-96950000D03*
D10*
G36*
X108445881Y-89600289D02*
G01*
X108451705Y-89601153D01*
X108457417Y-89602584D01*
X108462961Y-89604567D01*
X108468284Y-89607085D01*
X108473334Y-89610112D01*
X108478064Y-89613619D01*
X108482426Y-89617574D01*
X108486381Y-89621936D01*
X108489888Y-89626666D01*
X108492915Y-89631716D01*
X108495433Y-89637039D01*
X108497416Y-89642583D01*
X108498847Y-89648295D01*
X108499711Y-89654119D01*
X108500000Y-89660000D01*
X108500000Y-90340000D01*
X108499711Y-90345881D01*
X108498847Y-90351705D01*
X108497416Y-90357417D01*
X108495433Y-90362961D01*
X108492915Y-90368284D01*
X108489888Y-90373334D01*
X108486381Y-90378064D01*
X108482426Y-90382426D01*
X108478064Y-90386381D01*
X108473334Y-90389888D01*
X108468284Y-90392915D01*
X108462961Y-90395433D01*
X108457417Y-90397416D01*
X108451705Y-90398847D01*
X108445881Y-90399711D01*
X108440000Y-90400000D01*
X107960000Y-90400000D01*
X107954119Y-90399711D01*
X107948295Y-90398847D01*
X107942583Y-90397416D01*
X107937039Y-90395433D01*
X107931716Y-90392915D01*
X107926666Y-90389888D01*
X107921936Y-90386381D01*
X107917574Y-90382426D01*
X107913619Y-90378064D01*
X107910112Y-90373334D01*
X107907085Y-90368284D01*
X107904567Y-90362961D01*
X107902584Y-90357417D01*
X107901153Y-90351705D01*
X107900289Y-90345881D01*
X107900000Y-90340000D01*
X107900000Y-89660000D01*
X107900289Y-89654119D01*
X107901153Y-89648295D01*
X107902584Y-89642583D01*
X107904567Y-89637039D01*
X107907085Y-89631716D01*
X107910112Y-89626666D01*
X107913619Y-89621936D01*
X107917574Y-89617574D01*
X107921936Y-89613619D01*
X107926666Y-89610112D01*
X107931716Y-89607085D01*
X107937039Y-89604567D01*
X107942583Y-89602584D01*
X107948295Y-89601153D01*
X107954119Y-89600289D01*
X107960000Y-89600000D01*
X108440000Y-89600000D01*
X108445881Y-89600289D01*
X108445881Y-89600289D01*
G37*
D11*
X108200000Y-90000000D03*
D10*
G36*
X108418822Y-91000433D02*
G01*
X108427558Y-91001729D01*
X108436126Y-91003875D01*
X108444442Y-91006851D01*
X108452426Y-91010627D01*
X108460001Y-91015168D01*
X108467095Y-91020429D01*
X108473640Y-91026360D01*
X108479571Y-91032905D01*
X108484832Y-91039999D01*
X108489373Y-91047574D01*
X108493149Y-91055558D01*
X108496125Y-91063874D01*
X108498271Y-91072442D01*
X108499567Y-91081178D01*
X108500000Y-91090000D01*
X108500000Y-91910000D01*
X108499567Y-91918822D01*
X108498271Y-91927558D01*
X108496125Y-91936126D01*
X108493149Y-91944442D01*
X108489373Y-91952426D01*
X108484832Y-91960001D01*
X108479571Y-91967095D01*
X108473640Y-91973640D01*
X108467095Y-91979571D01*
X108460001Y-91984832D01*
X108452426Y-91989373D01*
X108444442Y-91993149D01*
X108436126Y-91996125D01*
X108427558Y-91998271D01*
X108418822Y-91999567D01*
X108410000Y-92000000D01*
X107690000Y-92000000D01*
X107681178Y-91999567D01*
X107672442Y-91998271D01*
X107663874Y-91996125D01*
X107655558Y-91993149D01*
X107647574Y-91989373D01*
X107639999Y-91984832D01*
X107632905Y-91979571D01*
X107626360Y-91973640D01*
X107620429Y-91967095D01*
X107615168Y-91960001D01*
X107610627Y-91952426D01*
X107606851Y-91944442D01*
X107603875Y-91936126D01*
X107601729Y-91927558D01*
X107600433Y-91918822D01*
X107600000Y-91910000D01*
X107600000Y-91090000D01*
X107600433Y-91081178D01*
X107601729Y-91072442D01*
X107603875Y-91063874D01*
X107606851Y-91055558D01*
X107610627Y-91047574D01*
X107615168Y-91039999D01*
X107620429Y-91032905D01*
X107626360Y-91026360D01*
X107632905Y-91020429D01*
X107639999Y-91015168D01*
X107647574Y-91010627D01*
X107655558Y-91006851D01*
X107663874Y-91003875D01*
X107672442Y-91001729D01*
X107681178Y-91000433D01*
X107690000Y-91000000D01*
X108410000Y-91000000D01*
X108418822Y-91000433D01*
X108418822Y-91000433D01*
G37*
D12*
X108050000Y-91500000D03*
D10*
G36*
X108418822Y-88000433D02*
G01*
X108427558Y-88001729D01*
X108436126Y-88003875D01*
X108444442Y-88006851D01*
X108452426Y-88010627D01*
X108460001Y-88015168D01*
X108467095Y-88020429D01*
X108473640Y-88026360D01*
X108479571Y-88032905D01*
X108484832Y-88039999D01*
X108489373Y-88047574D01*
X108493149Y-88055558D01*
X108496125Y-88063874D01*
X108498271Y-88072442D01*
X108499567Y-88081178D01*
X108500000Y-88090000D01*
X108500000Y-88910000D01*
X108499567Y-88918822D01*
X108498271Y-88927558D01*
X108496125Y-88936126D01*
X108493149Y-88944442D01*
X108489373Y-88952426D01*
X108484832Y-88960001D01*
X108479571Y-88967095D01*
X108473640Y-88973640D01*
X108467095Y-88979571D01*
X108460001Y-88984832D01*
X108452426Y-88989373D01*
X108444442Y-88993149D01*
X108436126Y-88996125D01*
X108427558Y-88998271D01*
X108418822Y-88999567D01*
X108410000Y-89000000D01*
X107690000Y-89000000D01*
X107681178Y-88999567D01*
X107672442Y-88998271D01*
X107663874Y-88996125D01*
X107655558Y-88993149D01*
X107647574Y-88989373D01*
X107639999Y-88984832D01*
X107632905Y-88979571D01*
X107626360Y-88973640D01*
X107620429Y-88967095D01*
X107615168Y-88960001D01*
X107610627Y-88952426D01*
X107606851Y-88944442D01*
X107603875Y-88936126D01*
X107601729Y-88927558D01*
X107600433Y-88918822D01*
X107600000Y-88910000D01*
X107600000Y-88090000D01*
X107600433Y-88081178D01*
X107601729Y-88072442D01*
X107603875Y-88063874D01*
X107606851Y-88055558D01*
X107610627Y-88047574D01*
X107615168Y-88039999D01*
X107620429Y-88032905D01*
X107626360Y-88026360D01*
X107632905Y-88020429D01*
X107639999Y-88015168D01*
X107647574Y-88010627D01*
X107655558Y-88006851D01*
X107663874Y-88003875D01*
X107672442Y-88001729D01*
X107681178Y-88000433D01*
X107690000Y-88000000D01*
X108410000Y-88000000D01*
X108418822Y-88000433D01*
X108418822Y-88000433D01*
G37*
D12*
X108050000Y-88500000D03*
D10*
G36*
X98918822Y-82750433D02*
G01*
X98927558Y-82751729D01*
X98936126Y-82753875D01*
X98944442Y-82756851D01*
X98952426Y-82760627D01*
X98960001Y-82765168D01*
X98967095Y-82770429D01*
X98973640Y-82776360D01*
X98979571Y-82782905D01*
X98984832Y-82789999D01*
X98989373Y-82797574D01*
X98993149Y-82805558D01*
X98996125Y-82813874D01*
X98998271Y-82822442D01*
X98999567Y-82831178D01*
X99000000Y-82840000D01*
X99000000Y-83560000D01*
X98999567Y-83568822D01*
X98998271Y-83577558D01*
X98996125Y-83586126D01*
X98993149Y-83594442D01*
X98989373Y-83602426D01*
X98984832Y-83610001D01*
X98979571Y-83617095D01*
X98973640Y-83623640D01*
X98967095Y-83629571D01*
X98960001Y-83634832D01*
X98952426Y-83639373D01*
X98944442Y-83643149D01*
X98936126Y-83646125D01*
X98927558Y-83648271D01*
X98918822Y-83649567D01*
X98910000Y-83650000D01*
X98090000Y-83650000D01*
X98081178Y-83649567D01*
X98072442Y-83648271D01*
X98063874Y-83646125D01*
X98055558Y-83643149D01*
X98047574Y-83639373D01*
X98039999Y-83634832D01*
X98032905Y-83629571D01*
X98026360Y-83623640D01*
X98020429Y-83617095D01*
X98015168Y-83610001D01*
X98010627Y-83602426D01*
X98006851Y-83594442D01*
X98003875Y-83586126D01*
X98001729Y-83577558D01*
X98000433Y-83568822D01*
X98000000Y-83560000D01*
X98000000Y-82840000D01*
X98000433Y-82831178D01*
X98001729Y-82822442D01*
X98003875Y-82813874D01*
X98006851Y-82805558D01*
X98010627Y-82797574D01*
X98015168Y-82789999D01*
X98020429Y-82782905D01*
X98026360Y-82776360D01*
X98032905Y-82770429D01*
X98039999Y-82765168D01*
X98047574Y-82760627D01*
X98055558Y-82756851D01*
X98063874Y-82753875D01*
X98072442Y-82751729D01*
X98081178Y-82750433D01*
X98090000Y-82750000D01*
X98910000Y-82750000D01*
X98918822Y-82750433D01*
X98918822Y-82750433D01*
G37*
D12*
X98500000Y-83200000D03*
D10*
G36*
X101918822Y-82750433D02*
G01*
X101927558Y-82751729D01*
X101936126Y-82753875D01*
X101944442Y-82756851D01*
X101952426Y-82760627D01*
X101960001Y-82765168D01*
X101967095Y-82770429D01*
X101973640Y-82776360D01*
X101979571Y-82782905D01*
X101984832Y-82789999D01*
X101989373Y-82797574D01*
X101993149Y-82805558D01*
X101996125Y-82813874D01*
X101998271Y-82822442D01*
X101999567Y-82831178D01*
X102000000Y-82840000D01*
X102000000Y-83560000D01*
X101999567Y-83568822D01*
X101998271Y-83577558D01*
X101996125Y-83586126D01*
X101993149Y-83594442D01*
X101989373Y-83602426D01*
X101984832Y-83610001D01*
X101979571Y-83617095D01*
X101973640Y-83623640D01*
X101967095Y-83629571D01*
X101960001Y-83634832D01*
X101952426Y-83639373D01*
X101944442Y-83643149D01*
X101936126Y-83646125D01*
X101927558Y-83648271D01*
X101918822Y-83649567D01*
X101910000Y-83650000D01*
X101090000Y-83650000D01*
X101081178Y-83649567D01*
X101072442Y-83648271D01*
X101063874Y-83646125D01*
X101055558Y-83643149D01*
X101047574Y-83639373D01*
X101039999Y-83634832D01*
X101032905Y-83629571D01*
X101026360Y-83623640D01*
X101020429Y-83617095D01*
X101015168Y-83610001D01*
X101010627Y-83602426D01*
X101006851Y-83594442D01*
X101003875Y-83586126D01*
X101001729Y-83577558D01*
X101000433Y-83568822D01*
X101000000Y-83560000D01*
X101000000Y-82840000D01*
X101000433Y-82831178D01*
X101001729Y-82822442D01*
X101003875Y-82813874D01*
X101006851Y-82805558D01*
X101010627Y-82797574D01*
X101015168Y-82789999D01*
X101020429Y-82782905D01*
X101026360Y-82776360D01*
X101032905Y-82770429D01*
X101039999Y-82765168D01*
X101047574Y-82760627D01*
X101055558Y-82756851D01*
X101063874Y-82753875D01*
X101072442Y-82751729D01*
X101081178Y-82750433D01*
X101090000Y-82750000D01*
X101910000Y-82750000D01*
X101918822Y-82750433D01*
X101918822Y-82750433D01*
G37*
D12*
X101500000Y-83200000D03*
D10*
G36*
X100345881Y-82750289D02*
G01*
X100351705Y-82751153D01*
X100357417Y-82752584D01*
X100362961Y-82754567D01*
X100368284Y-82757085D01*
X100373334Y-82760112D01*
X100378064Y-82763619D01*
X100382426Y-82767574D01*
X100386381Y-82771936D01*
X100389888Y-82776666D01*
X100392915Y-82781716D01*
X100395433Y-82787039D01*
X100397416Y-82792583D01*
X100398847Y-82798295D01*
X100399711Y-82804119D01*
X100400000Y-82810000D01*
X100400000Y-83290000D01*
X100399711Y-83295881D01*
X100398847Y-83301705D01*
X100397416Y-83307417D01*
X100395433Y-83312961D01*
X100392915Y-83318284D01*
X100389888Y-83323334D01*
X100386381Y-83328064D01*
X100382426Y-83332426D01*
X100378064Y-83336381D01*
X100373334Y-83339888D01*
X100368284Y-83342915D01*
X100362961Y-83345433D01*
X100357417Y-83347416D01*
X100351705Y-83348847D01*
X100345881Y-83349711D01*
X100340000Y-83350000D01*
X99660000Y-83350000D01*
X99654119Y-83349711D01*
X99648295Y-83348847D01*
X99642583Y-83347416D01*
X99637039Y-83345433D01*
X99631716Y-83342915D01*
X99626666Y-83339888D01*
X99621936Y-83336381D01*
X99617574Y-83332426D01*
X99613619Y-83328064D01*
X99610112Y-83323334D01*
X99607085Y-83318284D01*
X99604567Y-83312961D01*
X99602584Y-83307417D01*
X99601153Y-83301705D01*
X99600289Y-83295881D01*
X99600000Y-83290000D01*
X99600000Y-82810000D01*
X99600289Y-82804119D01*
X99601153Y-82798295D01*
X99602584Y-82792583D01*
X99604567Y-82787039D01*
X99607085Y-82781716D01*
X99610112Y-82776666D01*
X99613619Y-82771936D01*
X99617574Y-82767574D01*
X99621936Y-82763619D01*
X99626666Y-82760112D01*
X99631716Y-82757085D01*
X99637039Y-82754567D01*
X99642583Y-82752584D01*
X99648295Y-82751153D01*
X99654119Y-82750289D01*
X99660000Y-82750000D01*
X100340000Y-82750000D01*
X100345881Y-82750289D01*
X100345881Y-82750289D01*
G37*
D11*
X100000000Y-83050000D03*
D10*
G36*
X93418822Y-86750433D02*
G01*
X93427558Y-86751729D01*
X93436126Y-86753875D01*
X93444442Y-86756851D01*
X93452426Y-86760627D01*
X93460001Y-86765168D01*
X93467095Y-86770429D01*
X93473640Y-86776360D01*
X93479571Y-86782905D01*
X93484832Y-86789999D01*
X93489373Y-86797574D01*
X93493149Y-86805558D01*
X93496125Y-86813874D01*
X93498271Y-86822442D01*
X93499567Y-86831178D01*
X93500000Y-86840000D01*
X93500000Y-87660000D01*
X93499567Y-87668822D01*
X93498271Y-87677558D01*
X93496125Y-87686126D01*
X93493149Y-87694442D01*
X93489373Y-87702426D01*
X93484832Y-87710001D01*
X93479571Y-87717095D01*
X93473640Y-87723640D01*
X93467095Y-87729571D01*
X93460001Y-87734832D01*
X93452426Y-87739373D01*
X93444442Y-87743149D01*
X93436126Y-87746125D01*
X93427558Y-87748271D01*
X93418822Y-87749567D01*
X93410000Y-87750000D01*
X92690000Y-87750000D01*
X92681178Y-87749567D01*
X92672442Y-87748271D01*
X92663874Y-87746125D01*
X92655558Y-87743149D01*
X92647574Y-87739373D01*
X92639999Y-87734832D01*
X92632905Y-87729571D01*
X92626360Y-87723640D01*
X92620429Y-87717095D01*
X92615168Y-87710001D01*
X92610627Y-87702426D01*
X92606851Y-87694442D01*
X92603875Y-87686126D01*
X92601729Y-87677558D01*
X92600433Y-87668822D01*
X92600000Y-87660000D01*
X92600000Y-86840000D01*
X92600433Y-86831178D01*
X92601729Y-86822442D01*
X92603875Y-86813874D01*
X92606851Y-86805558D01*
X92610627Y-86797574D01*
X92615168Y-86789999D01*
X92620429Y-86782905D01*
X92626360Y-86776360D01*
X92632905Y-86770429D01*
X92639999Y-86765168D01*
X92647574Y-86760627D01*
X92655558Y-86756851D01*
X92663874Y-86753875D01*
X92672442Y-86751729D01*
X92681178Y-86750433D01*
X92690000Y-86750000D01*
X93410000Y-86750000D01*
X93418822Y-86750433D01*
X93418822Y-86750433D01*
G37*
D12*
X93050000Y-87250000D03*
D10*
G36*
X93418822Y-89750433D02*
G01*
X93427558Y-89751729D01*
X93436126Y-89753875D01*
X93444442Y-89756851D01*
X93452426Y-89760627D01*
X93460001Y-89765168D01*
X93467095Y-89770429D01*
X93473640Y-89776360D01*
X93479571Y-89782905D01*
X93484832Y-89789999D01*
X93489373Y-89797574D01*
X93493149Y-89805558D01*
X93496125Y-89813874D01*
X93498271Y-89822442D01*
X93499567Y-89831178D01*
X93500000Y-89840000D01*
X93500000Y-90660000D01*
X93499567Y-90668822D01*
X93498271Y-90677558D01*
X93496125Y-90686126D01*
X93493149Y-90694442D01*
X93489373Y-90702426D01*
X93484832Y-90710001D01*
X93479571Y-90717095D01*
X93473640Y-90723640D01*
X93467095Y-90729571D01*
X93460001Y-90734832D01*
X93452426Y-90739373D01*
X93444442Y-90743149D01*
X93436126Y-90746125D01*
X93427558Y-90748271D01*
X93418822Y-90749567D01*
X93410000Y-90750000D01*
X92690000Y-90750000D01*
X92681178Y-90749567D01*
X92672442Y-90748271D01*
X92663874Y-90746125D01*
X92655558Y-90743149D01*
X92647574Y-90739373D01*
X92639999Y-90734832D01*
X92632905Y-90729571D01*
X92626360Y-90723640D01*
X92620429Y-90717095D01*
X92615168Y-90710001D01*
X92610627Y-90702426D01*
X92606851Y-90694442D01*
X92603875Y-90686126D01*
X92601729Y-90677558D01*
X92600433Y-90668822D01*
X92600000Y-90660000D01*
X92600000Y-89840000D01*
X92600433Y-89831178D01*
X92601729Y-89822442D01*
X92603875Y-89813874D01*
X92606851Y-89805558D01*
X92610627Y-89797574D01*
X92615168Y-89789999D01*
X92620429Y-89782905D01*
X92626360Y-89776360D01*
X92632905Y-89770429D01*
X92639999Y-89765168D01*
X92647574Y-89760627D01*
X92655558Y-89756851D01*
X92663874Y-89753875D01*
X92672442Y-89751729D01*
X92681178Y-89750433D01*
X92690000Y-89750000D01*
X93410000Y-89750000D01*
X93418822Y-89750433D01*
X93418822Y-89750433D01*
G37*
D12*
X93050000Y-90250000D03*
D10*
G36*
X93445881Y-88350289D02*
G01*
X93451705Y-88351153D01*
X93457417Y-88352584D01*
X93462961Y-88354567D01*
X93468284Y-88357085D01*
X93473334Y-88360112D01*
X93478064Y-88363619D01*
X93482426Y-88367574D01*
X93486381Y-88371936D01*
X93489888Y-88376666D01*
X93492915Y-88381716D01*
X93495433Y-88387039D01*
X93497416Y-88392583D01*
X93498847Y-88398295D01*
X93499711Y-88404119D01*
X93500000Y-88410000D01*
X93500000Y-89090000D01*
X93499711Y-89095881D01*
X93498847Y-89101705D01*
X93497416Y-89107417D01*
X93495433Y-89112961D01*
X93492915Y-89118284D01*
X93489888Y-89123334D01*
X93486381Y-89128064D01*
X93482426Y-89132426D01*
X93478064Y-89136381D01*
X93473334Y-89139888D01*
X93468284Y-89142915D01*
X93462961Y-89145433D01*
X93457417Y-89147416D01*
X93451705Y-89148847D01*
X93445881Y-89149711D01*
X93440000Y-89150000D01*
X92960000Y-89150000D01*
X92954119Y-89149711D01*
X92948295Y-89148847D01*
X92942583Y-89147416D01*
X92937039Y-89145433D01*
X92931716Y-89142915D01*
X92926666Y-89139888D01*
X92921936Y-89136381D01*
X92917574Y-89132426D01*
X92913619Y-89128064D01*
X92910112Y-89123334D01*
X92907085Y-89118284D01*
X92904567Y-89112961D01*
X92902584Y-89107417D01*
X92901153Y-89101705D01*
X92900289Y-89095881D01*
X92900000Y-89090000D01*
X92900000Y-88410000D01*
X92900289Y-88404119D01*
X92901153Y-88398295D01*
X92902584Y-88392583D01*
X92904567Y-88387039D01*
X92907085Y-88381716D01*
X92910112Y-88376666D01*
X92913619Y-88371936D01*
X92917574Y-88367574D01*
X92921936Y-88363619D01*
X92926666Y-88360112D01*
X92931716Y-88357085D01*
X92937039Y-88354567D01*
X92942583Y-88352584D01*
X92948295Y-88351153D01*
X92954119Y-88350289D01*
X92960000Y-88350000D01*
X93440000Y-88350000D01*
X93445881Y-88350289D01*
X93445881Y-88350289D01*
G37*
D11*
X93200000Y-88750000D03*
D10*
G36*
X106324505Y-96051204D02*
G01*
X106348773Y-96054804D01*
X106372572Y-96060765D01*
X106395671Y-96069030D01*
X106417850Y-96079520D01*
X106438893Y-96092132D01*
X106458599Y-96106747D01*
X106476777Y-96123223D01*
X106493253Y-96141401D01*
X106507868Y-96161107D01*
X106520480Y-96182150D01*
X106530970Y-96204329D01*
X106539235Y-96227428D01*
X106545196Y-96251227D01*
X106548796Y-96275495D01*
X106550000Y-96299999D01*
X106550000Y-97200001D01*
X106548796Y-97224505D01*
X106545196Y-97248773D01*
X106539235Y-97272572D01*
X106530970Y-97295671D01*
X106520480Y-97317850D01*
X106507868Y-97338893D01*
X106493253Y-97358599D01*
X106476777Y-97376777D01*
X106458599Y-97393253D01*
X106438893Y-97407868D01*
X106417850Y-97420480D01*
X106395671Y-97430970D01*
X106372572Y-97439235D01*
X106348773Y-97445196D01*
X106324505Y-97448796D01*
X106300001Y-97450000D01*
X105649999Y-97450000D01*
X105625495Y-97448796D01*
X105601227Y-97445196D01*
X105577428Y-97439235D01*
X105554329Y-97430970D01*
X105532150Y-97420480D01*
X105511107Y-97407868D01*
X105491401Y-97393253D01*
X105473223Y-97376777D01*
X105456747Y-97358599D01*
X105442132Y-97338893D01*
X105429520Y-97317850D01*
X105419030Y-97295671D01*
X105410765Y-97272572D01*
X105404804Y-97248773D01*
X105401204Y-97224505D01*
X105400000Y-97200001D01*
X105400000Y-96299999D01*
X105401204Y-96275495D01*
X105404804Y-96251227D01*
X105410765Y-96227428D01*
X105419030Y-96204329D01*
X105429520Y-96182150D01*
X105442132Y-96161107D01*
X105456747Y-96141401D01*
X105473223Y-96123223D01*
X105491401Y-96106747D01*
X105511107Y-96092132D01*
X105532150Y-96079520D01*
X105554329Y-96069030D01*
X105577428Y-96060765D01*
X105601227Y-96054804D01*
X105625495Y-96051204D01*
X105649999Y-96050000D01*
X106300001Y-96050000D01*
X106324505Y-96051204D01*
X106324505Y-96051204D01*
G37*
D13*
X105975000Y-96750000D03*
D10*
G36*
X108374505Y-96051204D02*
G01*
X108398773Y-96054804D01*
X108422572Y-96060765D01*
X108445671Y-96069030D01*
X108467850Y-96079520D01*
X108488893Y-96092132D01*
X108508599Y-96106747D01*
X108526777Y-96123223D01*
X108543253Y-96141401D01*
X108557868Y-96161107D01*
X108570480Y-96182150D01*
X108580970Y-96204329D01*
X108589235Y-96227428D01*
X108595196Y-96251227D01*
X108598796Y-96275495D01*
X108600000Y-96299999D01*
X108600000Y-97200001D01*
X108598796Y-97224505D01*
X108595196Y-97248773D01*
X108589235Y-97272572D01*
X108580970Y-97295671D01*
X108570480Y-97317850D01*
X108557868Y-97338893D01*
X108543253Y-97358599D01*
X108526777Y-97376777D01*
X108508599Y-97393253D01*
X108488893Y-97407868D01*
X108467850Y-97420480D01*
X108445671Y-97430970D01*
X108422572Y-97439235D01*
X108398773Y-97445196D01*
X108374505Y-97448796D01*
X108350001Y-97450000D01*
X107699999Y-97450000D01*
X107675495Y-97448796D01*
X107651227Y-97445196D01*
X107627428Y-97439235D01*
X107604329Y-97430970D01*
X107582150Y-97420480D01*
X107561107Y-97407868D01*
X107541401Y-97393253D01*
X107523223Y-97376777D01*
X107506747Y-97358599D01*
X107492132Y-97338893D01*
X107479520Y-97317850D01*
X107469030Y-97295671D01*
X107460765Y-97272572D01*
X107454804Y-97248773D01*
X107451204Y-97224505D01*
X107450000Y-97200001D01*
X107450000Y-96299999D01*
X107451204Y-96275495D01*
X107454804Y-96251227D01*
X107460765Y-96227428D01*
X107469030Y-96204329D01*
X107479520Y-96182150D01*
X107492132Y-96161107D01*
X107506747Y-96141401D01*
X107523223Y-96123223D01*
X107541401Y-96106747D01*
X107561107Y-96092132D01*
X107582150Y-96079520D01*
X107604329Y-96069030D01*
X107627428Y-96060765D01*
X107651227Y-96054804D01*
X107675495Y-96051204D01*
X107699999Y-96050000D01*
X108350001Y-96050000D01*
X108374505Y-96051204D01*
X108374505Y-96051204D01*
G37*
D13*
X108025000Y-96750000D03*
D10*
G36*
X93474505Y-98451204D02*
G01*
X93498773Y-98454804D01*
X93522572Y-98460765D01*
X93545671Y-98469030D01*
X93567850Y-98479520D01*
X93588893Y-98492132D01*
X93608599Y-98506747D01*
X93626777Y-98523223D01*
X93643253Y-98541401D01*
X93657868Y-98561107D01*
X93670480Y-98582150D01*
X93680970Y-98604329D01*
X93689235Y-98627428D01*
X93695196Y-98651227D01*
X93698796Y-98675495D01*
X93700000Y-98699999D01*
X93700000Y-99350001D01*
X93698796Y-99374505D01*
X93695196Y-99398773D01*
X93689235Y-99422572D01*
X93680970Y-99445671D01*
X93670480Y-99467850D01*
X93657868Y-99488893D01*
X93643253Y-99508599D01*
X93626777Y-99526777D01*
X93608599Y-99543253D01*
X93588893Y-99557868D01*
X93567850Y-99570480D01*
X93545671Y-99580970D01*
X93522572Y-99589235D01*
X93498773Y-99595196D01*
X93474505Y-99598796D01*
X93450001Y-99600000D01*
X92549999Y-99600000D01*
X92525495Y-99598796D01*
X92501227Y-99595196D01*
X92477428Y-99589235D01*
X92454329Y-99580970D01*
X92432150Y-99570480D01*
X92411107Y-99557868D01*
X92391401Y-99543253D01*
X92373223Y-99526777D01*
X92356747Y-99508599D01*
X92342132Y-99488893D01*
X92329520Y-99467850D01*
X92319030Y-99445671D01*
X92310765Y-99422572D01*
X92304804Y-99398773D01*
X92301204Y-99374505D01*
X92300000Y-99350001D01*
X92300000Y-98699999D01*
X92301204Y-98675495D01*
X92304804Y-98651227D01*
X92310765Y-98627428D01*
X92319030Y-98604329D01*
X92329520Y-98582150D01*
X92342132Y-98561107D01*
X92356747Y-98541401D01*
X92373223Y-98523223D01*
X92391401Y-98506747D01*
X92411107Y-98492132D01*
X92432150Y-98479520D01*
X92454329Y-98469030D01*
X92477428Y-98460765D01*
X92501227Y-98454804D01*
X92525495Y-98451204D01*
X92549999Y-98450000D01*
X93450001Y-98450000D01*
X93474505Y-98451204D01*
X93474505Y-98451204D01*
G37*
D13*
X93000000Y-99025000D03*
D10*
G36*
X93474505Y-96401204D02*
G01*
X93498773Y-96404804D01*
X93522572Y-96410765D01*
X93545671Y-96419030D01*
X93567850Y-96429520D01*
X93588893Y-96442132D01*
X93608599Y-96456747D01*
X93626777Y-96473223D01*
X93643253Y-96491401D01*
X93657868Y-96511107D01*
X93670480Y-96532150D01*
X93680970Y-96554329D01*
X93689235Y-96577428D01*
X93695196Y-96601227D01*
X93698796Y-96625495D01*
X93700000Y-96649999D01*
X93700000Y-97300001D01*
X93698796Y-97324505D01*
X93695196Y-97348773D01*
X93689235Y-97372572D01*
X93680970Y-97395671D01*
X93670480Y-97417850D01*
X93657868Y-97438893D01*
X93643253Y-97458599D01*
X93626777Y-97476777D01*
X93608599Y-97493253D01*
X93588893Y-97507868D01*
X93567850Y-97520480D01*
X93545671Y-97530970D01*
X93522572Y-97539235D01*
X93498773Y-97545196D01*
X93474505Y-97548796D01*
X93450001Y-97550000D01*
X92549999Y-97550000D01*
X92525495Y-97548796D01*
X92501227Y-97545196D01*
X92477428Y-97539235D01*
X92454329Y-97530970D01*
X92432150Y-97520480D01*
X92411107Y-97507868D01*
X92391401Y-97493253D01*
X92373223Y-97476777D01*
X92356747Y-97458599D01*
X92342132Y-97438893D01*
X92329520Y-97417850D01*
X92319030Y-97395671D01*
X92310765Y-97372572D01*
X92304804Y-97348773D01*
X92301204Y-97324505D01*
X92300000Y-97300001D01*
X92300000Y-96649999D01*
X92301204Y-96625495D01*
X92304804Y-96601227D01*
X92310765Y-96577428D01*
X92319030Y-96554329D01*
X92329520Y-96532150D01*
X92342132Y-96511107D01*
X92356747Y-96491401D01*
X92373223Y-96473223D01*
X92391401Y-96456747D01*
X92411107Y-96442132D01*
X92432150Y-96429520D01*
X92454329Y-96419030D01*
X92477428Y-96410765D01*
X92501227Y-96404804D01*
X92525495Y-96401204D01*
X92549999Y-96400000D01*
X93450001Y-96400000D01*
X93474505Y-96401204D01*
X93474505Y-96401204D01*
G37*
D13*
X93000000Y-96975000D03*
D10*
G36*
X93474505Y-103051204D02*
G01*
X93498773Y-103054804D01*
X93522572Y-103060765D01*
X93545671Y-103069030D01*
X93567850Y-103079520D01*
X93588893Y-103092132D01*
X93608599Y-103106747D01*
X93626777Y-103123223D01*
X93643253Y-103141401D01*
X93657868Y-103161107D01*
X93670480Y-103182150D01*
X93680970Y-103204329D01*
X93689235Y-103227428D01*
X93695196Y-103251227D01*
X93698796Y-103275495D01*
X93700000Y-103299999D01*
X93700000Y-103950001D01*
X93698796Y-103974505D01*
X93695196Y-103998773D01*
X93689235Y-104022572D01*
X93680970Y-104045671D01*
X93670480Y-104067850D01*
X93657868Y-104088893D01*
X93643253Y-104108599D01*
X93626777Y-104126777D01*
X93608599Y-104143253D01*
X93588893Y-104157868D01*
X93567850Y-104170480D01*
X93545671Y-104180970D01*
X93522572Y-104189235D01*
X93498773Y-104195196D01*
X93474505Y-104198796D01*
X93450001Y-104200000D01*
X92549999Y-104200000D01*
X92525495Y-104198796D01*
X92501227Y-104195196D01*
X92477428Y-104189235D01*
X92454329Y-104180970D01*
X92432150Y-104170480D01*
X92411107Y-104157868D01*
X92391401Y-104143253D01*
X92373223Y-104126777D01*
X92356747Y-104108599D01*
X92342132Y-104088893D01*
X92329520Y-104067850D01*
X92319030Y-104045671D01*
X92310765Y-104022572D01*
X92304804Y-103998773D01*
X92301204Y-103974505D01*
X92300000Y-103950001D01*
X92300000Y-103299999D01*
X92301204Y-103275495D01*
X92304804Y-103251227D01*
X92310765Y-103227428D01*
X92319030Y-103204329D01*
X92329520Y-103182150D01*
X92342132Y-103161107D01*
X92356747Y-103141401D01*
X92373223Y-103123223D01*
X92391401Y-103106747D01*
X92411107Y-103092132D01*
X92432150Y-103079520D01*
X92454329Y-103069030D01*
X92477428Y-103060765D01*
X92501227Y-103054804D01*
X92525495Y-103051204D01*
X92549999Y-103050000D01*
X93450001Y-103050000D01*
X93474505Y-103051204D01*
X93474505Y-103051204D01*
G37*
D13*
X93000000Y-103625000D03*
D10*
G36*
X93474505Y-101001204D02*
G01*
X93498773Y-101004804D01*
X93522572Y-101010765D01*
X93545671Y-101019030D01*
X93567850Y-101029520D01*
X93588893Y-101042132D01*
X93608599Y-101056747D01*
X93626777Y-101073223D01*
X93643253Y-101091401D01*
X93657868Y-101111107D01*
X93670480Y-101132150D01*
X93680970Y-101154329D01*
X93689235Y-101177428D01*
X93695196Y-101201227D01*
X93698796Y-101225495D01*
X93700000Y-101249999D01*
X93700000Y-101900001D01*
X93698796Y-101924505D01*
X93695196Y-101948773D01*
X93689235Y-101972572D01*
X93680970Y-101995671D01*
X93670480Y-102017850D01*
X93657868Y-102038893D01*
X93643253Y-102058599D01*
X93626777Y-102076777D01*
X93608599Y-102093253D01*
X93588893Y-102107868D01*
X93567850Y-102120480D01*
X93545671Y-102130970D01*
X93522572Y-102139235D01*
X93498773Y-102145196D01*
X93474505Y-102148796D01*
X93450001Y-102150000D01*
X92549999Y-102150000D01*
X92525495Y-102148796D01*
X92501227Y-102145196D01*
X92477428Y-102139235D01*
X92454329Y-102130970D01*
X92432150Y-102120480D01*
X92411107Y-102107868D01*
X92391401Y-102093253D01*
X92373223Y-102076777D01*
X92356747Y-102058599D01*
X92342132Y-102038893D01*
X92329520Y-102017850D01*
X92319030Y-101995671D01*
X92310765Y-101972572D01*
X92304804Y-101948773D01*
X92301204Y-101924505D01*
X92300000Y-101900001D01*
X92300000Y-101249999D01*
X92301204Y-101225495D01*
X92304804Y-101201227D01*
X92310765Y-101177428D01*
X92319030Y-101154329D01*
X92329520Y-101132150D01*
X92342132Y-101111107D01*
X92356747Y-101091401D01*
X92373223Y-101073223D01*
X92391401Y-101056747D01*
X92411107Y-101042132D01*
X92432150Y-101029520D01*
X92454329Y-101019030D01*
X92477428Y-101010765D01*
X92501227Y-101004804D01*
X92525495Y-101001204D01*
X92549999Y-101000000D01*
X93450001Y-101000000D01*
X93474505Y-101001204D01*
X93474505Y-101001204D01*
G37*
D13*
X93000000Y-101575000D03*
M02*
