G04 #@! TF.GenerationSoftware,KiCad,Pcbnew,5.1.2*
G04 #@! TF.CreationDate,2019-07-07T07:42:55-07:00*
G04 #@! TF.ProjectId,MegaMan_SAO,4d656761-4d61-46e5-9f53-414f2e6b6963,rev?*
G04 #@! TF.SameCoordinates,Original*
G04 #@! TF.FileFunction,Legend,Top*
G04 #@! TF.FilePolarity,Positive*
%FSLAX46Y46*%
G04 Gerber Fmt 4.6, Leading zero omitted, Abs format (unit mm)*
G04 Created by KiCad (PCBNEW 5.1.2) date 2019-07-07 07:42:55*
%MOMM*%
%LPD*%
G04 APERTURE LIST*
%ADD10C,0.010000*%
%ADD11C,2.127200*%
%ADD12O,2.127200X2.127200*%
%ADD13R,2.127200X2.127200*%
%ADD14R,2.200000X2.200000*%
%ADD15C,2.200000*%
G04 APERTURE END LIST*
D10*
G36*
X101270000Y-92549333D02*
G01*
X96274666Y-92549333D01*
X96274666Y-87511666D01*
X101270000Y-87511666D01*
X101270000Y-92549333D01*
X101270000Y-92549333D01*
G37*
X101270000Y-92549333D02*
X96274666Y-92549333D01*
X96274666Y-87511666D01*
X101270000Y-87511666D01*
X101270000Y-92549333D01*
G36*
X93777000Y-92549333D02*
G01*
X92535222Y-92549333D01*
X92219087Y-92548406D01*
X91930712Y-92545784D01*
X91680881Y-92541708D01*
X91480377Y-92536417D01*
X91339984Y-92530151D01*
X91270486Y-92523148D01*
X91265222Y-92521111D01*
X91260111Y-92474796D01*
X91255298Y-92351316D01*
X91250867Y-92158172D01*
X91246901Y-91902864D01*
X91243486Y-91592894D01*
X91240704Y-91235764D01*
X91238641Y-90838973D01*
X91237380Y-90410024D01*
X91237000Y-90002277D01*
X91237000Y-87511666D01*
X93777000Y-87511666D01*
X93777000Y-92549333D01*
X93777000Y-92549333D01*
G37*
X93777000Y-92549333D02*
X92535222Y-92549333D01*
X92219087Y-92548406D01*
X91930712Y-92545784D01*
X91680881Y-92541708D01*
X91480377Y-92536417D01*
X91339984Y-92530151D01*
X91270486Y-92523148D01*
X91265222Y-92521111D01*
X91260111Y-92474796D01*
X91255298Y-92351316D01*
X91250867Y-92158172D01*
X91246901Y-91902864D01*
X91243486Y-91592894D01*
X91240704Y-91235764D01*
X91238641Y-90838973D01*
X91237380Y-90410024D01*
X91237000Y-90002277D01*
X91237000Y-87511666D01*
X93777000Y-87511666D01*
X93777000Y-92549333D01*
G36*
X103767666Y-72525666D02*
G01*
X108805333Y-72525666D01*
X108805333Y-75023333D01*
X111303000Y-75023333D01*
X111303000Y-77521000D01*
X113800666Y-77521000D01*
X113800666Y-82516333D01*
X116298333Y-82516333D01*
X116298333Y-85014000D01*
X121293666Y-85014000D01*
X121293666Y-87511666D01*
X126289000Y-87511666D01*
X126289000Y-90009333D01*
X128786666Y-90009333D01*
X128786666Y-92507000D01*
X131284333Y-92507000D01*
X131284333Y-100042333D01*
X128786666Y-100042333D01*
X128786666Y-102540000D01*
X126289000Y-102540000D01*
X126289000Y-105037666D01*
X123791333Y-105037666D01*
X123791333Y-107535333D01*
X121293666Y-107535333D01*
X121293666Y-110033000D01*
X118796000Y-110033000D01*
X118796000Y-112488333D01*
X121293666Y-112488333D01*
X121293666Y-114986000D01*
X123791333Y-114986000D01*
X123791333Y-117483666D01*
X126289000Y-117483666D01*
X126289000Y-119981333D01*
X131284333Y-119981333D01*
X131284333Y-122478323D01*
X133771416Y-122489244D01*
X136258500Y-122500166D01*
X136280926Y-125019000D01*
X138777333Y-125019000D01*
X138777333Y-130014333D01*
X116256000Y-130014333D01*
X116256000Y-125019000D01*
X113758333Y-125019000D01*
X113758333Y-122521333D01*
X111260666Y-122521333D01*
X111260666Y-120023666D01*
X106307666Y-120023666D01*
X106307666Y-125019000D01*
X108805333Y-125019000D01*
X108805333Y-130014333D01*
X86241666Y-130014333D01*
X86241666Y-125019000D01*
X88738073Y-125019000D01*
X88781666Y-125019000D01*
X88781666Y-127516666D01*
X106265333Y-127516666D01*
X106265333Y-125019000D01*
X103767666Y-125019000D01*
X103767666Y-119981333D01*
X106265333Y-119981333D01*
X106265333Y-117482995D01*
X111281833Y-117504833D01*
X111293055Y-118742444D01*
X111304276Y-119980056D01*
X113779500Y-120002500D01*
X113790721Y-121240111D01*
X113801943Y-122477723D01*
X115039555Y-122488944D01*
X116277166Y-122500166D01*
X116288379Y-123759583D01*
X116299593Y-125019000D01*
X118796000Y-125019000D01*
X118796000Y-127516666D01*
X136279666Y-127516666D01*
X136279666Y-125019000D01*
X131242000Y-125019000D01*
X131242000Y-122521333D01*
X126246666Y-122521333D01*
X126246666Y-120023666D01*
X123749000Y-120023666D01*
X123749000Y-117526000D01*
X121251333Y-117526000D01*
X121251333Y-115028333D01*
X118753666Y-115028333D01*
X118753666Y-112530666D01*
X116256000Y-112530666D01*
X116256000Y-107535333D01*
X113758333Y-107535333D01*
X113758333Y-105037666D01*
X111260666Y-105037666D01*
X111260666Y-100000000D01*
X113758333Y-100000000D01*
X113758333Y-97502333D01*
X116256000Y-97502333D01*
X116256000Y-95004666D01*
X118796000Y-95004666D01*
X118796000Y-97502333D01*
X121293666Y-97502333D01*
X121293666Y-102540000D01*
X118753666Y-102540000D01*
X118753666Y-97544666D01*
X116298333Y-97544666D01*
X116298333Y-100042333D01*
X113800666Y-100042333D01*
X113800666Y-104995333D01*
X116298333Y-104995333D01*
X116298333Y-107493000D01*
X121251333Y-107493000D01*
X121251333Y-104995333D01*
X123749000Y-104995333D01*
X123749000Y-102497666D01*
X126246666Y-102497666D01*
X126246666Y-100000000D01*
X128744333Y-100000000D01*
X128744333Y-92550612D01*
X126267833Y-92528166D01*
X126245387Y-90051666D01*
X121251333Y-90051666D01*
X121251333Y-87554000D01*
X116298333Y-87554000D01*
X116298333Y-90051666D01*
X113800666Y-90051666D01*
X113800666Y-95047000D01*
X111303000Y-95047000D01*
X111303000Y-97544666D01*
X108806612Y-97544666D01*
X108784166Y-100021166D01*
X107546555Y-100032388D01*
X106308943Y-100043610D01*
X106297721Y-101281221D01*
X106286500Y-102518833D01*
X93777000Y-102540279D01*
X93777000Y-104995333D01*
X96274666Y-104995333D01*
X96274666Y-107493000D01*
X98772333Y-107493000D01*
X98772333Y-115028333D01*
X96274666Y-115028333D01*
X96274666Y-117526000D01*
X93777000Y-117526000D01*
X93777000Y-122477721D01*
X95015250Y-122488943D01*
X96253500Y-122500166D01*
X96275926Y-125019000D01*
X88781666Y-125019000D01*
X88738073Y-125019000D01*
X88749286Y-123759583D01*
X88760500Y-122500166D01*
X89998411Y-122488944D01*
X91236323Y-122477722D01*
X91247245Y-119991277D01*
X91258166Y-117504833D01*
X92495778Y-117493611D01*
X93733389Y-117482389D01*
X93744611Y-116244778D01*
X93755833Y-115007166D01*
X95015250Y-114995953D01*
X96274666Y-114984740D01*
X96274666Y-107536593D01*
X95015250Y-107525379D01*
X93755833Y-107514166D01*
X93733387Y-105037666D01*
X81246333Y-105037666D01*
X81246333Y-102540000D01*
X78791000Y-102540000D01*
X78791000Y-105037666D01*
X68758000Y-105037666D01*
X68758000Y-102540000D01*
X63762666Y-102540000D01*
X63762666Y-100042333D01*
X61265000Y-100042333D01*
X61265000Y-95047000D01*
X63762666Y-95047000D01*
X63762666Y-100000000D01*
X66260333Y-100000000D01*
X66260333Y-95048278D01*
X68800333Y-95048278D01*
X68800333Y-100000000D01*
X71298000Y-100000000D01*
X71298000Y-102497666D01*
X78748666Y-102497666D01*
X78748666Y-95047000D01*
X81288666Y-95047000D01*
X81288666Y-102497666D01*
X93734666Y-102497666D01*
X93734666Y-100043612D01*
X91258166Y-100021166D01*
X91246943Y-98782916D01*
X91235721Y-97544666D01*
X86241666Y-97544666D01*
X86241666Y-95047000D01*
X81288666Y-95047000D01*
X78748666Y-95047000D01*
X78748666Y-92549333D01*
X71299278Y-92549333D01*
X71288056Y-93787583D01*
X71276833Y-95025833D01*
X70038583Y-95037056D01*
X68800333Y-95048278D01*
X66260333Y-95048278D01*
X66260333Y-95047000D01*
X63762666Y-95047000D01*
X61265000Y-95047000D01*
X61265000Y-95004666D01*
X63762666Y-95004666D01*
X63762666Y-92507000D01*
X68758000Y-92507000D01*
X68758000Y-90009333D01*
X78791000Y-90009333D01*
X78791000Y-92507000D01*
X86241666Y-92507000D01*
X86241666Y-80061000D01*
X88781666Y-80061000D01*
X88781666Y-95004666D01*
X91279333Y-95004666D01*
X91279333Y-97502333D01*
X93733387Y-97502333D01*
X93755833Y-95025833D01*
X98761750Y-95015076D01*
X103767666Y-95004319D01*
X103767666Y-97544666D01*
X93777000Y-97544666D01*
X93777000Y-100000000D01*
X106265333Y-100000000D01*
X106265333Y-97502333D01*
X108763000Y-97502333D01*
X108763000Y-95004666D01*
X111260666Y-95004666D01*
X111260666Y-90009333D01*
X113758333Y-90009333D01*
X113758333Y-82558666D01*
X111260666Y-82558666D01*
X111260666Y-77564612D01*
X108784166Y-77542166D01*
X108772953Y-76282750D01*
X108761740Y-75023333D01*
X101270000Y-75023333D01*
X101270000Y-77563333D01*
X98772333Y-77563333D01*
X98772333Y-82558666D01*
X96274666Y-82558666D01*
X96274666Y-85057004D01*
X91258166Y-85035166D01*
X91246953Y-83775750D01*
X91235740Y-82516333D01*
X96274666Y-82516333D01*
X96274666Y-80061000D01*
X88781666Y-80061000D01*
X86241666Y-80061000D01*
X86241666Y-80018666D01*
X88739333Y-80018666D01*
X88739333Y-77521000D01*
X91237000Y-77521000D01*
X91237000Y-75023333D01*
X93734666Y-75023333D01*
X93777000Y-75023333D01*
X93777000Y-77521000D01*
X98772333Y-77521000D01*
X98772333Y-75023333D01*
X101270000Y-75023333D01*
X101270000Y-72525666D01*
X96274666Y-72525666D01*
X96274666Y-75023333D01*
X93777000Y-75023333D01*
X93734666Y-75023333D01*
X93734666Y-72525666D01*
X96274666Y-72525666D01*
X96274666Y-70028000D01*
X103767666Y-70028000D01*
X103767666Y-72525666D01*
X103767666Y-72525666D01*
G37*
X103767666Y-72525666D02*
X108805333Y-72525666D01*
X108805333Y-75023333D01*
X111303000Y-75023333D01*
X111303000Y-77521000D01*
X113800666Y-77521000D01*
X113800666Y-82516333D01*
X116298333Y-82516333D01*
X116298333Y-85014000D01*
X121293666Y-85014000D01*
X121293666Y-87511666D01*
X126289000Y-87511666D01*
X126289000Y-90009333D01*
X128786666Y-90009333D01*
X128786666Y-92507000D01*
X131284333Y-92507000D01*
X131284333Y-100042333D01*
X128786666Y-100042333D01*
X128786666Y-102540000D01*
X126289000Y-102540000D01*
X126289000Y-105037666D01*
X123791333Y-105037666D01*
X123791333Y-107535333D01*
X121293666Y-107535333D01*
X121293666Y-110033000D01*
X118796000Y-110033000D01*
X118796000Y-112488333D01*
X121293666Y-112488333D01*
X121293666Y-114986000D01*
X123791333Y-114986000D01*
X123791333Y-117483666D01*
X126289000Y-117483666D01*
X126289000Y-119981333D01*
X131284333Y-119981333D01*
X131284333Y-122478323D01*
X133771416Y-122489244D01*
X136258500Y-122500166D01*
X136280926Y-125019000D01*
X138777333Y-125019000D01*
X138777333Y-130014333D01*
X116256000Y-130014333D01*
X116256000Y-125019000D01*
X113758333Y-125019000D01*
X113758333Y-122521333D01*
X111260666Y-122521333D01*
X111260666Y-120023666D01*
X106307666Y-120023666D01*
X106307666Y-125019000D01*
X108805333Y-125019000D01*
X108805333Y-130014333D01*
X86241666Y-130014333D01*
X86241666Y-125019000D01*
X88738073Y-125019000D01*
X88781666Y-125019000D01*
X88781666Y-127516666D01*
X106265333Y-127516666D01*
X106265333Y-125019000D01*
X103767666Y-125019000D01*
X103767666Y-119981333D01*
X106265333Y-119981333D01*
X106265333Y-117482995D01*
X111281833Y-117504833D01*
X111293055Y-118742444D01*
X111304276Y-119980056D01*
X113779500Y-120002500D01*
X113790721Y-121240111D01*
X113801943Y-122477723D01*
X115039555Y-122488944D01*
X116277166Y-122500166D01*
X116288379Y-123759583D01*
X116299593Y-125019000D01*
X118796000Y-125019000D01*
X118796000Y-127516666D01*
X136279666Y-127516666D01*
X136279666Y-125019000D01*
X131242000Y-125019000D01*
X131242000Y-122521333D01*
X126246666Y-122521333D01*
X126246666Y-120023666D01*
X123749000Y-120023666D01*
X123749000Y-117526000D01*
X121251333Y-117526000D01*
X121251333Y-115028333D01*
X118753666Y-115028333D01*
X118753666Y-112530666D01*
X116256000Y-112530666D01*
X116256000Y-107535333D01*
X113758333Y-107535333D01*
X113758333Y-105037666D01*
X111260666Y-105037666D01*
X111260666Y-100000000D01*
X113758333Y-100000000D01*
X113758333Y-97502333D01*
X116256000Y-97502333D01*
X116256000Y-95004666D01*
X118796000Y-95004666D01*
X118796000Y-97502333D01*
X121293666Y-97502333D01*
X121293666Y-102540000D01*
X118753666Y-102540000D01*
X118753666Y-97544666D01*
X116298333Y-97544666D01*
X116298333Y-100042333D01*
X113800666Y-100042333D01*
X113800666Y-104995333D01*
X116298333Y-104995333D01*
X116298333Y-107493000D01*
X121251333Y-107493000D01*
X121251333Y-104995333D01*
X123749000Y-104995333D01*
X123749000Y-102497666D01*
X126246666Y-102497666D01*
X126246666Y-100000000D01*
X128744333Y-100000000D01*
X128744333Y-92550612D01*
X126267833Y-92528166D01*
X126245387Y-90051666D01*
X121251333Y-90051666D01*
X121251333Y-87554000D01*
X116298333Y-87554000D01*
X116298333Y-90051666D01*
X113800666Y-90051666D01*
X113800666Y-95047000D01*
X111303000Y-95047000D01*
X111303000Y-97544666D01*
X108806612Y-97544666D01*
X108784166Y-100021166D01*
X107546555Y-100032388D01*
X106308943Y-100043610D01*
X106297721Y-101281221D01*
X106286500Y-102518833D01*
X93777000Y-102540279D01*
X93777000Y-104995333D01*
X96274666Y-104995333D01*
X96274666Y-107493000D01*
X98772333Y-107493000D01*
X98772333Y-115028333D01*
X96274666Y-115028333D01*
X96274666Y-117526000D01*
X93777000Y-117526000D01*
X93777000Y-122477721D01*
X95015250Y-122488943D01*
X96253500Y-122500166D01*
X96275926Y-125019000D01*
X88781666Y-125019000D01*
X88738073Y-125019000D01*
X88749286Y-123759583D01*
X88760500Y-122500166D01*
X89998411Y-122488944D01*
X91236323Y-122477722D01*
X91247245Y-119991277D01*
X91258166Y-117504833D01*
X92495778Y-117493611D01*
X93733389Y-117482389D01*
X93744611Y-116244778D01*
X93755833Y-115007166D01*
X95015250Y-114995953D01*
X96274666Y-114984740D01*
X96274666Y-107536593D01*
X95015250Y-107525379D01*
X93755833Y-107514166D01*
X93733387Y-105037666D01*
X81246333Y-105037666D01*
X81246333Y-102540000D01*
X78791000Y-102540000D01*
X78791000Y-105037666D01*
X68758000Y-105037666D01*
X68758000Y-102540000D01*
X63762666Y-102540000D01*
X63762666Y-100042333D01*
X61265000Y-100042333D01*
X61265000Y-95047000D01*
X63762666Y-95047000D01*
X63762666Y-100000000D01*
X66260333Y-100000000D01*
X66260333Y-95048278D01*
X68800333Y-95048278D01*
X68800333Y-100000000D01*
X71298000Y-100000000D01*
X71298000Y-102497666D01*
X78748666Y-102497666D01*
X78748666Y-95047000D01*
X81288666Y-95047000D01*
X81288666Y-102497666D01*
X93734666Y-102497666D01*
X93734666Y-100043612D01*
X91258166Y-100021166D01*
X91246943Y-98782916D01*
X91235721Y-97544666D01*
X86241666Y-97544666D01*
X86241666Y-95047000D01*
X81288666Y-95047000D01*
X78748666Y-95047000D01*
X78748666Y-92549333D01*
X71299278Y-92549333D01*
X71288056Y-93787583D01*
X71276833Y-95025833D01*
X70038583Y-95037056D01*
X68800333Y-95048278D01*
X66260333Y-95048278D01*
X66260333Y-95047000D01*
X63762666Y-95047000D01*
X61265000Y-95047000D01*
X61265000Y-95004666D01*
X63762666Y-95004666D01*
X63762666Y-92507000D01*
X68758000Y-92507000D01*
X68758000Y-90009333D01*
X78791000Y-90009333D01*
X78791000Y-92507000D01*
X86241666Y-92507000D01*
X86241666Y-80061000D01*
X88781666Y-80061000D01*
X88781666Y-95004666D01*
X91279333Y-95004666D01*
X91279333Y-97502333D01*
X93733387Y-97502333D01*
X93755833Y-95025833D01*
X98761750Y-95015076D01*
X103767666Y-95004319D01*
X103767666Y-97544666D01*
X93777000Y-97544666D01*
X93777000Y-100000000D01*
X106265333Y-100000000D01*
X106265333Y-97502333D01*
X108763000Y-97502333D01*
X108763000Y-95004666D01*
X111260666Y-95004666D01*
X111260666Y-90009333D01*
X113758333Y-90009333D01*
X113758333Y-82558666D01*
X111260666Y-82558666D01*
X111260666Y-77564612D01*
X108784166Y-77542166D01*
X108772953Y-76282750D01*
X108761740Y-75023333D01*
X101270000Y-75023333D01*
X101270000Y-77563333D01*
X98772333Y-77563333D01*
X98772333Y-82558666D01*
X96274666Y-82558666D01*
X96274666Y-85057004D01*
X91258166Y-85035166D01*
X91246953Y-83775750D01*
X91235740Y-82516333D01*
X96274666Y-82516333D01*
X96274666Y-80061000D01*
X88781666Y-80061000D01*
X86241666Y-80061000D01*
X86241666Y-80018666D01*
X88739333Y-80018666D01*
X88739333Y-77521000D01*
X91237000Y-77521000D01*
X91237000Y-75023333D01*
X93734666Y-75023333D01*
X93777000Y-75023333D01*
X93777000Y-77521000D01*
X98772333Y-77521000D01*
X98772333Y-75023333D01*
X101270000Y-75023333D01*
X101270000Y-72525666D01*
X96274666Y-72525666D01*
X96274666Y-75023333D01*
X93777000Y-75023333D01*
X93734666Y-75023333D01*
X93734666Y-72525666D01*
X96274666Y-72525666D01*
X96274666Y-70028000D01*
X103767666Y-70028000D01*
X103767666Y-72525666D01*
%LPC*%
G36*
X91279333Y-92507000D02*
G01*
X93777000Y-92507000D01*
X93777000Y-87511666D01*
X96274666Y-87511666D01*
X96274666Y-92507000D01*
X101270000Y-92507000D01*
X101270000Y-87511666D01*
X96274666Y-87511666D01*
X96274666Y-85014000D01*
X106265333Y-85014000D01*
X106265333Y-87511666D01*
X108763000Y-87511666D01*
X108763000Y-95047000D01*
X106265333Y-95047000D01*
X106265333Y-100042333D01*
X93777000Y-100042333D01*
X93777000Y-97544666D01*
X91279333Y-97544666D01*
X91279333Y-95047000D01*
X93777000Y-95047000D01*
X93777000Y-97502333D01*
X103767666Y-97502333D01*
X103767666Y-95047000D01*
X93777000Y-95047000D01*
X91279333Y-95047000D01*
X88781666Y-95047000D01*
X88781666Y-85014000D01*
X91279333Y-85014000D01*
X91279333Y-92507000D01*
X91279333Y-92507000D01*
G37*
X91279333Y-92507000D02*
X93777000Y-92507000D01*
X93777000Y-87511666D01*
X96274666Y-87511666D01*
X96274666Y-92507000D01*
X101270000Y-92507000D01*
X101270000Y-87511666D01*
X96274666Y-87511666D01*
X96274666Y-85014000D01*
X106265333Y-85014000D01*
X106265333Y-87511666D01*
X108763000Y-87511666D01*
X108763000Y-95047000D01*
X106265333Y-95047000D01*
X106265333Y-100042333D01*
X93777000Y-100042333D01*
X93777000Y-97544666D01*
X91279333Y-97544666D01*
X91279333Y-95047000D01*
X93777000Y-95047000D01*
X93777000Y-97502333D01*
X103767666Y-97502333D01*
X103767666Y-95047000D01*
X93777000Y-95047000D01*
X91279333Y-95047000D01*
X88781666Y-95047000D01*
X88781666Y-85014000D01*
X91279333Y-85014000D01*
X91279333Y-92507000D01*
D11*
X107600000Y-103750000D03*
X107600000Y-106290000D03*
D12*
X105060000Y-103750000D03*
X105060000Y-106290000D03*
X102520000Y-103750000D03*
D13*
X102520000Y-106290000D03*
D14*
X67500000Y-98750000D03*
D15*
X67500000Y-96210000D03*
M02*
